SplineFontDB: 3.0
FontName: WreatheBoldItal
FullName: WreatheBoldItal
FamilyName: WreatheBoldItal
Weight: Bold
Copyright: 23 May 2012. Based on Centaur.
Version: 001.000
ItalicAngle: 0
UnderlinePosition: 13
UnderlineWidth: 50
Ascent: 800
Descent: 200
LayerCount: 2
Layer: 0 1 "Back"  1
Layer: 1 1 "Fore"  0
XUID: [1021 420 915814174 466232]
FSType: 0
OS2Version: 1
OS2_WeightWidthSlopeOnly: 0
OS2_UseTypoMetrics: 1
CreationTime: 1337820223
ModificationTime: 1337825954
PfmFamily: 17
TTFWeight: 700
TTFWidth: 5
LineGap: 90
VLineGap: 0
Panose: 2 0 8 3 0 0 0 0 0 0
OS2TypoAscent: 0
OS2TypoAOffset: 1
OS2TypoDescent: 0
OS2TypoDOffset: 1
OS2TypoLinegap: 90
OS2WinAscent: -5
OS2WinAOffset: 1
OS2WinDescent: 1
OS2WinDOffset: 1
HheadAscent: 0
HheadAOffset: 1
HheadDescent: -1
HheadDOffset: 1
OS2SubXSize: 650
OS2SubYSize: 699
OS2SubXOff: 0
OS2SubYOff: 140
OS2SupXSize: 650
OS2SupYSize: 699
OS2SupXOff: 0
OS2SupYOff: 479
OS2StrikeYSize: 49
OS2StrikeYPos: 258
OS2Vendor: 'PfEd'
OS2CodePages: 20000001.00000000
OS2UnicodeRanges: 800000af.5000205b.00000000.00000000
DEI: 91125
ShortTable: maxp 16
  1
  0
  359
  163
  7
  0
  0
  2
  0
  1
  1
  0
  64
  0
  0
  0
EndShort
LangName: 1033 "" "" "" "FontForge 2.0 : Wreathe Bold Italic : 23-5-2012" 
GaspTable: 1 65535 2
Encoding: UnicodeBmp
UnicodeInterp: none
NameList: Adobe Glyph List
DisplaySize: -36
AntiAlias: 1
FitToEm: 1
WinInfo: 51 17 10
BeginChars: 65538 359

StartChar: .null
Encoding: 0 -1 1
AltUni2: 000000.ffffffff.0
Width: 0
Flags: W
LayerCount: 2
Fore
SplineSet
0 132 m 1,0,-1
 4 128 l 1,1,-1
 0 132 l 1,0,-1
EndSplineSet
EndChar

StartChar: nonmarkingreturn
Encoding: 13 13 2
Width: 250
Flags: W
LayerCount: 2
Fore
SplineSet
0 132 m 1,0,-1
 4 128 l 1,1,-1
 0 132 l 1,0,-1
EndSplineSet
EndChar

StartChar: space
Encoding: 32 32 3
Width: 250
Flags: W
LayerCount: 2
Fore
SplineSet
0 132 m 1,0,-1
 4 128 l 1,1,-1
 0 132 l 1,0,-1
EndSplineSet
EndChar

StartChar: exclam
Encoding: 33 33 4
Width: 177
Flags: W
LayerCount: 2
Fore
SplineSet
250 753 m 1,0,1
 249 729 249 729 242 701.5 c 128,-1,2
 235 674 235 674 222 639 c 128,-1,3
 209 604 209 604 204 589 c 2,4,-1
 172 480 l 1,5,-1
 138 359 l 2,6,7
 138 358 138 358 137 354 c 128,-1,8
 136 350 136 350 135.5 348.5 c 128,-1,9
 135 347 135 347 134 343.5 c 128,-1,10
 133 340 133 340 132 338 c 128,-1,11
 131 336 131 336 129 333 c 128,-1,12
 127 330 127 330 125.5 329 c 128,-1,13
 124 328 124 328 121.5 326.5 c 128,-1,14
 119 325 119 325 116.5 325.5 c 128,-1,15
 114 326 114 326 111 327 c 0,16,17
 98 331 98 331 103 359 c 0,18,19
 111 414 111 414 120 460 c 0,20,21
 126 490 126 490 131 523 c 128,-1,22
 136 556 136 556 141.5 597 c 128,-1,23
 147 638 147 638 151 659 c 0,24,25
 151 663 151 663 152.5 682.5 c 128,-1,26
 154 702 154 702 157 715 c 128,-1,27
 160 728 160 728 166 735 c 0,28,29
 184 753 184 753 250 753 c 1,0,1
90 218 m 0,30,31
 103 221 103 221 112 209.5 c 128,-1,32
 121 198 121 198 125 183 c 0,33,34
 131 162 131 162 119.5 142 c 128,-1,35
 108 122 108 122 86 118 c 0,36,37
 53 111 53 111 49 145 c 128,-1,38
 45 179 45 179 68 205 c 0,39,40
 78 215 78 215 90 218 c 0,30,31
EndSplineSet
EndChar

StartChar: quotedbl
Encoding: 34 34 5
Width: 552
Flags: W
LayerCount: 2
Fore
SplineSet
402 456 m 1,0,1
 415 508 415 508 419 593 c 0,2,3
 420 622 420 622 421.5 639 c 128,-1,4
 423 656 423 656 430.5 681.5 c 128,-1,5
 438 707 438 707 451 721 c 0,6,7
 470 741 470 741 501 741.5 c 128,-1,8
 532 742 532 742 546 718 c 0,9,10
 551 709 551 709 551.5 698.5 c 128,-1,11
 552 688 552 688 547 674.5 c 128,-1,12
 542 661 542 661 540 656 c 128,-1,13
 538 651 538 651 530 636 c 2,14,-1
 468 511 l 2,15,16
 466 508 466 508 460.5 495 c 128,-1,17
 455 482 455 482 450 473.5 c 128,-1,18
 445 465 445 465 439 460 c 0,19,20
 436 458 436 458 430.5 457 c 128,-1,21
 425 456 425 456 421.5 456 c 128,-1,22
 418 456 418 456 411.5 456 c 128,-1,23
 405 456 405 456 402 456 c 1,0,1
203 456 m 1,24,25
 205 474 205 474 207 494.5 c 128,-1,26
 209 515 209 515 212.5 539 c 128,-1,27
 216 563 216 563 218 577 c 0,28,29
 219 586 219 586 221 615 c 128,-1,30
 223 644 223 644 226 659 c 0,31,32
 235 710 235 710 258 728 c 1,33,34
 276 744 276 744 307.5 741.5 c 128,-1,35
 339 739 339 739 348 714 c 0,36,37
 357 690 357 690 333 640 c 0,38,39
 322 617 322 617 300 575.5 c 128,-1,40
 278 534 278 534 270 519 c 0,41,42
 268 514 268 514 262.5 500.5 c 128,-1,43
 257 487 257 487 251.5 477.5 c 128,-1,44
 246 468 246 468 240 463 c 0,45,46
 237 460 237 460 233.5 458.5 c 128,-1,47
 230 457 230 457 225.5 456.5 c 128,-1,48
 221 456 221 456 218.5 456 c 128,-1,49
 216 456 216 456 210.5 456 c 128,-1,50
 205 456 205 456 203 456 c 1,24,25
EndSplineSet
EndChar

StartChar: numbersign
Encoding: 35 35 6
Width: 667
Flags: W
LayerCount: 2
Fore
SplineSet
293 542 m 1,0,-1
 254 362 l 1,1,-1
 402 362 l 1,2,-1
 459 366 l 1,3,-1
 473 413 l 1,4,-1
 500 542 l 1,5,-1
 293 542 l 1,0,-1
289 800 m 1,6,-1
 348 800 l 1,7,-1
 305 601 l 1,8,-1
 512 601 l 1,9,-1
 551 800 l 1,10,-1
 613 800 l 1,11,-1
 570 601 l 1,12,-1
 668 601 l 1,13,-1
 668 542 l 1,14,-1
 559 542 l 1,15,-1
 523 362 l 1,16,-1
 668 362 l 1,17,-1
 668 304 l 1,18,-1
 508 304 l 1,19,-1
 478 163 l 1,20,-1
 462 112 l 1,21,-1
 406 105 l 1,22,-1
 453 304 l 1,23,-1
 242 304 l 1,24,-1
 212 163 l 1,25,-1
 196 112 l 1,26,-1
 141 109 l 1,27,-1
 188 304 l 1,28,-1
 86 304 l 1,29,-1
 86 362 l 1,30,-1
 190 366 l 1,31,-1
 207 413 l 1,32,-1
 234 542 l 1,33,-1
 86 542 l 1,34,-1
 86 601 l 1,35,-1
 195 601 l 1,36,-1
 240 605 l 1,37,-1
 258 655 l 1,38,-1
 289 800 l 1,6,-1
EndSplineSet
EndChar

StartChar: dollar
Encoding: 36 36 7
Width: 510
Flags: W
LayerCount: 2
Fore
SplineSet
305 523 m 1,0,-1
 340 702 l 1,1,2
 286 701 286 701 263.5 667.5 c 128,-1,3
 241 634 241 634 253.5 592 c 128,-1,4
 266 550 266 550 305 523 c 1,0,-1
312 378 m 1,5,-1
 266 155 l 1,6,7
 314 155 314 155 332 161 c 0,8,9
 377 176 377 176 393.5 205 c 128,-1,10
 410 234 410 234 400 266 c 128,-1,11
 390 298 390 298 366.5 328 c 128,-1,12
 343 358 343 358 312 378 c 1,5,-1
359 780 m 1,13,-1
 398 780 l 1,14,-1
 395 739 l 1,15,-1
 449 716 l 1,16,-1
 531 659 l 1,17,-1
 531 655 l 1,18,-1
 480 577 l 1,19,-1
 453 589 l 1,20,21
 471 668 471 668 383 698 c 1,22,23
 375 598 375 598 336 495 c 1,24,25
 367 482 367 482 418 433 c 0,26,27
 461 392 461 392 476 339.5 c 128,-1,28
 491 287 491 287 471.5 236.5 c 128,-1,29
 452 186 452 186 398 154 c 0,30,31
 361 132 361 132 312 128 c 0,32,33
 309 128 309 128 296 129 c 128,-1,34
 283 130 283 130 274.5 128.5 c 128,-1,35
 266 127 266 127 261 122 c 0,36,37
 255 116 255 116 251.5 105.5 c 128,-1,38
 248 95 248 95 245.5 77 c 128,-1,39
 243 59 243 59 242 58 c 2,40,-1
 203 54 l 1,41,-1
 219 128 l 1,42,43
 190 134 190 134 158 147 c 128,-1,44
 126 160 126 160 97 184.5 c 128,-1,45
 68 209 68 209 66 238 c 0,46,47
 65 250 65 250 72.5 266.5 c 128,-1,48
 80 283 80 283 96.5 309 c 128,-1,49
 113 335 113 335 113 335 c 1,50,51
 126 328 126 328 130 319.5 c 128,-1,52
 134 311 134 311 135 296 c 128,-1,53
 136 281 136 281 138 273 c 0,54,55
 166 181 166 181 227 163 c 1,56,-1
 281 405 l 1,57,58
 233 427 233 427 196 472.5 c 128,-1,59
 159 518 159 518 151 570.5 c 128,-1,60
 143 623 143 623 181 671 c 1,61,62
 209 704 209 704 255 718.5 c 128,-1,63
 301 733 301 733 352 734 c 1,64,-1
 359 780 l 1,13,-1
EndSplineSet
EndChar

StartChar: percent
Encoding: 37 37 8
Width: 885
Flags: W
LayerCount: 2
Fore
SplineSet
691 446 m 0,0,1
 661 439 661 439 638.5 411.5 c 128,-1,2
 616 384 616 384 604.5 347.5 c 128,-1,3
 593 311 593 311 588.5 275.5 c 128,-1,4
 584 240 584 240 586 210 c 0,5,6
 589 173 589 173 614.5 149 c 128,-1,7
 640 125 640 125 676 134 c 0,8,9
 704 141 704 141 726 168.5 c 128,-1,10
 748 196 748 196 759 232 c 128,-1,11
 770 268 770 268 774.5 303.5 c 128,-1,12
 779 339 779 339 777 366 c 0,13,14
 773 407 773 407 751 431 c 128,-1,15
 729 455 729 455 691 446 c 0,0,1
676 466 m 0,16,17
 748 478 748 478 799.5 431.5 c 128,-1,18
 851 385 851 385 848 312 c 1,19,20
 844 241 844 241 800 184.5 c 128,-1,21
 756 128 756 128 688 118 c 0,22,23
 629 110 629 110 585.5 137.5 c 128,-1,24
 542 165 542 165 525 214.5 c 128,-1,25
 508 264 508 264 521 320 c 0,26,27
 535 377 535 377 576.5 417 c 128,-1,28
 618 457 618 457 676 466 c 0,16,17
289 778 m 0,29,30
 260 772 260 772 237.5 744.5 c 128,-1,31
 215 717 215 717 203.5 681.5 c 128,-1,32
 192 646 192 646 187 610.5 c 128,-1,33
 182 575 182 575 184 546 c 0,34,35
 187 508 187 508 210 483 c 128,-1,36
 233 458 233 458 270 466 c 0,37,38
 299 473 299 473 321.5 500 c 128,-1,39
 344 527 344 527 355.5 563 c 128,-1,40
 367 599 367 599 372 634.5 c 128,-1,41
 377 670 377 670 375 698 c 0,42,43
 372 738 372 738 349.5 762.5 c 128,-1,44
 327 787 327 787 289 778 c 0,29,30
195 116 m 1,45,46
 207 145 207 145 230 175.5 c 128,-1,47
 253 206 253 206 286 243.5 c 128,-1,48
 319 281 319 281 331 296 c 2,49,-1
 612 655 l 2,50,51
 619 663 619 663 634.5 687 c 128,-1,52
 650 711 650 711 664 730 c 128,-1,53
 678 749 678 749 696 768.5 c 128,-1,54
 714 788 714 788 733 795.5 c 128,-1,55
 752 803 752 803 770 796 c 1,56,57
 745 774 745 774 721 744.5 c 128,-1,58
 697 715 697 715 668 674 c 128,-1,59
 639 633 639 633 626 616 c 2,60,-1
 367 284 l 2,61,62
 359 274 359 274 334 237 c 128,-1,63
 309 200 309 200 292 178.5 c 128,-1,64
 275 157 275 157 248 136.5 c 128,-1,65
 221 116 221 116 195 116 c 1,45,46
273 798 m 0,66,67
 376 814 376 814 419 737 c 0,68,69
 457 671 457 671 432 585 c 0,70,71
 406 497 406 497 333 463 c 0,72,73
 312 454 312 454 289 450 c 0,74,75
 211 438 211 438 158.5 489.5 c 128,-1,76
 106 541 106 541 114 620 c 0,77,78
 121 688 121 688 164.5 738 c 128,-1,79
 208 788 208 788 273 798 c 0,66,67
EndSplineSet
EndChar

StartChar: ampersand
Encoding: 38 38 9
Width: 750
Flags: W
LayerCount: 2
Fore
SplineSet
258 527 m 1,0,1
 234 537 234 537 219 551 c 0,2,3
 192 576 192 576 187 600.5 c 128,-1,4
 182 625 182 625 194.5 644.5 c 128,-1,5
 207 664 207 664 230 680.5 c 128,-1,6
 253 697 253 697 278 708 c 128,-1,7
 303 719 303 719 328 725 c 0,8,9
 347 730 347 730 357.5 732 c 128,-1,10
 368 734 368 734 385 733 c 128,-1,11
 402 732 402 732 414 725 c 0,12,13
 439 711 439 711 451 684 c 0,14,15
 465 651 465 651 426 651 c 0,16,17
 410 651 410 651 395 660 c 128,-1,18
 380 669 380 669 370.5 678 c 128,-1,19
 361 687 361 687 344 692 c 128,-1,20
 327 697 327 697 309 688 c 1,21,22
 292 682 292 682 282 670 c 1,23,24
 264 652 264 652 264 633.5 c 128,-1,25
 264 615 264 615 276 600.5 c 128,-1,26
 288 586 288 586 308.5 573 c 128,-1,27
 329 560 329 560 347 552 c 128,-1,28
 365 544 365 544 383 538 c 1,29,-1
 371 503 l 1,30,31
 309 503 309 503 266 487 c 0,32,33
 216 468 216 468 191 423.5 c 128,-1,34
 166 379 166 379 172 328 c 128,-1,35
 178 277 178 277 212 238 c 1,36,37
 240 204 240 204 290 186.5 c 128,-1,38
 340 169 340 169 390 170.5 c 128,-1,39
 440 172 440 172 484 197.5 c 128,-1,40
 528 223 528 223 545 269 c 0,41,42
 549 281 549 281 549.5 295 c 128,-1,43
 550 309 550 309 548.5 319 c 128,-1,44
 547 329 547 329 543.5 345.5 c 128,-1,45
 540 362 540 362 539 370 c 1,46,47
 537 370 537 370 524 369.5 c 128,-1,48
 511 369 511 369 503 368.5 c 128,-1,49
 495 368 495 368 481 367 c 128,-1,50
 467 366 467 366 458 364 c 128,-1,51
 449 362 449 362 438.5 358.5 c 128,-1,52
 428 355 428 355 421 350 c 128,-1,53
 414 345 414 345 412 338 c 1,54,55
 409 332 409 332 413 321 c 128,-1,56
 417 310 417 310 422.5 299.5 c 128,-1,57
 428 289 428 289 432 278 c 128,-1,58
 436 267 436 267 431.5 258 c 128,-1,59
 427 249 427 249 413 245 c 0,60,61
 399 240 399 240 385.5 254.5 c 128,-1,62
 372 269 372 269 369 284 c 0,63,64
 357 338 357 338 411 398 c 0,65,66
 431 420 431 420 464 430 c 128,-1,67
 497 440 497 440 529 438.5 c 128,-1,68
 561 437 561 437 597 437 c 128,-1,69
 633 437 633 437 660 439 c 0,70,71
 675 441 675 441 688 445.5 c 128,-1,72
 701 450 701 450 710.5 457.5 c 128,-1,73
 720 465 720 465 718 476 c 128,-1,74
 716 487 716 487 699 499 c 1,75,76
 731 542 731 542 751 515 c 0,77,78
 768 491 768 491 757 452 c 0,79,80
 755 446 755 446 752 441 c 0,81,82
 742 419 742 419 722.5 404.5 c 128,-1,83
 703 390 703 390 677 383.5 c 128,-1,84
 651 377 651 377 630.5 374.5 c 128,-1,85
 610 372 610 372 582 370 c 1,86,87
 589 339 589 339 589 301 c 128,-1,88
 589 263 589 263 573 234 c 0,89,90
 544 179 544 179 483 149 c 128,-1,91
 422 119 422 119 355.5 118 c 128,-1,92
 289 117 289 117 224.5 141 c 128,-1,93
 160 165 160 165 122 210 c 1,94,95
 88 252 88 252 83.5 306 c 128,-1,96
 79 360 79 360 99.5 405.5 c 128,-1,97
 120 451 120 451 162.5 484.5 c 128,-1,98
 205 518 205 518 258 523 c 1,99,-1
 258 527 l 1,0,1
EndSplineSet
EndChar

StartChar: quotesingle
Encoding: 39 39 10
Width: 281
Flags: W
LayerCount: 2
Fore
SplineSet
168 456 m 1,0,1
 170 478 170 478 175.5 518.5 c 128,-1,2
 181 559 181 559 183 577 c 0,3,4
 190 656 190 656 191 659 c 0,5,6
 199 709 199 709 223 727 c 1,7,8
 241 744 241 744 272.5 741.5 c 128,-1,9
 304 739 304 739 314 714 c 0,10,11
 323 690 323 690 298 640 c 0,12,13
 257 556 257 556 229 507 c 0,14,15
 227 503 227 503 221.5 491.5 c 128,-1,16
 216 480 216 480 211 472 c 128,-1,17
 206 464 206 464 201 460 c 0,18,19
 195 456 195 456 168 456 c 1,0,1
EndSplineSet
EndChar

StartChar: parenleft
Encoding: 40 40 11
Width: 375
Flags: W
LayerCount: 2
Fore
SplineSet
453 796 m 1,0,-1
 453 749 l 1,1,2
 371 730 371 730 281 640 c 0,3,4
 182 540 182 540 136.5 390.5 c 128,-1,5
 91 241 91 241 125 109 c 0,6,7
 145 34 145 34 185 -24 c 0,8,9
 190 -32 190 -32 207.5 -50 c 128,-1,10
 225 -68 225 -68 237 -84.5 c 128,-1,11
 249 -101 249 -101 250 -114 c 0,12,13
 251 -120 251 -120 249 -127.5 c 128,-1,14
 247 -135 247 -135 243 -144 c 128,-1,15
 239 -153 239 -153 238 -157 c 1,16,-1
 234 -157 l 1,17,18
 221 -138 221 -138 192.5 -100.5 c 128,-1,19
 164 -63 164 -63 149 -41.5 c 128,-1,20
 134 -20 134 -20 115.5 15 c 128,-1,21
 97 50 97 50 88 85 c 0,22,23
 46 235 46 235 94.5 403.5 c 128,-1,24
 143 572 143 572 258 679 c 0,25,26
 297 715 297 715 342.5 741 c 128,-1,27
 388 767 388 767 453 796 c 1,0,-1
EndSplineSet
EndChar

StartChar: parenright
Encoding: 41 41 12
Width: 333
Flags: W
LayerCount: 2
Fore
SplineSet
148 796 m 1,0,1
 198 760 198 760 237 696 c 128,-1,2
 276 632 276 632 296 566 c 1,3,4
 315 499 315 499 316 424 c 128,-1,5
 317 349 317 349 301 275.5 c 128,-1,6
 285 202 285 202 251.5 131.5 c 128,-1,7
 218 61 218 61 172 4 c 128,-1,8
 126 -53 126 -53 63.5 -94.5 c 128,-1,9
 1 -136 1 -136 -70 -153 c 1,10,11
 -70 -130 -70 -130 -54 -111.5 c 128,-1,12
 -38 -93 -38 -93 -17.5 -82.5 c 128,-1,13
 3 -72 3 -72 30 -58 c 128,-1,14
 57 -44 57 -44 70 -31 c 1,15,16
 203 87 203 87 249 257 c 0,17,18
 301 446 301 446 240 597 c 0,19,20
 220 645 220 645 178 698 c 0,21,22
 174 703 174 703 163 714 c 128,-1,23
 152 725 152 725 145 734.5 c 128,-1,24
 138 744 138 744 136 753 c 0,25,26
 135 759 135 759 136.5 766 c 128,-1,27
 138 773 138 773 143 784 c 128,-1,28
 148 795 148 795 148 796 c 1,0,1
EndSplineSet
EndChar

StartChar: asterisk
Encoding: 42 42 13
Width: 375
Flags: W
LayerCount: 2
Fore
SplineSet
230.5 661.5 m 128,-1,1
 208 656 208 656 196 640 c 128,-1,2
 184 624 184 624 185 605 c 128,-1,3
 186 586 186 586 194 569 c 128,-1,4
 202 552 202 552 220.5 543.5 c 128,-1,5
 239 535 239 535 261.5 540.5 c 128,-1,6
 284 546 284 546 296 562 c 128,-1,7
 308 578 308 578 307 596.5 c 128,-1,8
 306 615 306 615 298 632 c 128,-1,9
 290 649 290 649 271.5 658 c 128,-1,0
 253 667 253 667 230.5 661.5 c 128,-1,1
94 698 m 1,10,11
 101 697 101 697 117 692.5 c 128,-1,12
 133 688 133 688 144.5 685.5 c 128,-1,13
 156 683 156 683 172 682 c 128,-1,14
 188 681 188 681 194 687 c 1,15,16
 202 691 202 691 209.5 707.5 c 128,-1,17
 217 724 217 724 221.5 739.5 c 128,-1,18
 226 755 226 755 234.5 766.5 c 128,-1,19
 243 778 243 778 253 775 c 0,20,21
 265 772 265 772 270.5 752.5 c 128,-1,22
 276 733 276 733 282 712 c 128,-1,23
 288 691 288 691 302 685 c 0,24,25
 310 682 310 682 326 684.5 c 128,-1,26
 342 687 342 687 357.5 691.5 c 128,-1,27
 373 696 373 696 386.5 695.5 c 128,-1,28
 400 695 400 695 404 686 c 0,29,30
 409 673 409 673 380.5 642.5 c 128,-1,31
 352 612 352 612 350 601 c 0,32,33
 348 587 348 587 359 571.5 c 128,-1,34
 370 556 370 556 387.5 539 c 128,-1,35
 405 522 405 522 410 515 c 1,36,-1
 398 495 l 1,37,38
 394 497 394 497 381.5 501 c 128,-1,39
 369 505 369 505 360.5 508 c 128,-1,40
 352 511 352 511 340 513.5 c 128,-1,41
 328 516 328 516 318.5 516 c 128,-1,42
 309 516 309 516 302 512 c 1,43,44
 295 510 295 510 289 503 c 128,-1,45
 283 496 283 496 279.5 489 c 128,-1,46
 276 482 276 482 272.5 469.5 c 128,-1,47
 269 457 269 457 268 451 c 128,-1,48
 267 445 267 445 264.5 432 c 128,-1,49
 262 419 262 419 262 417 c 1,50,51
 244 417 244 417 234.5 428 c 128,-1,52
 225 439 225 439 223 453 c 128,-1,53
 221 467 221 467 214.5 483.5 c 128,-1,54
 208 500 208 500 198 509 c 0,55,56
 190 515 190 515 174.5 515 c 128,-1,57
 159 515 159 515 147.5 512 c 128,-1,58
 136 509 136 509 116.5 502.5 c 128,-1,59
 97 496 97 496 94 495 c 1,60,-1
 82 515 l 1,61,-1
 82 519 l 1,62,63
 84 521 84 521 95 531.5 c 128,-1,64
 106 542 106 542 113 549 c 128,-1,65
 120 556 120 556 128.5 566.5 c 128,-1,66
 137 577 137 577 140.5 586.5 c 128,-1,67
 144 596 144 596 142 605 c 0,68,69
 139 617 139 617 128 629.5 c 128,-1,70
 117 642 117 642 107.5 650.5 c 128,-1,71
 98 659 98 659 92 672 c 128,-1,72
 86 685 86 685 94 698 c 1,10,11
EndSplineSet
EndChar

StartChar: plus
Encoding: 43 43 14
Width: 667
Flags: W
LayerCount: 2
Fore
SplineSet
348 659 m 1,0,-1
 410 659 l 1,1,-1
 410 425 l 1,2,-1
 645 425 l 1,3,-1
 645 362 l 1,4,-1
 410 362 l 1,5,-1
 410 128 l 1,6,-1
 348 128 l 1,7,-1
 348 362 l 1,8,-1
 113 362 l 1,9,-1
 113 425 l 1,10,-1
 348 425 l 1,11,-1
 348 659 l 1,0,-1
EndSplineSet
EndChar

StartChar: comma
Encoding: 44 44 15
Width: 177
Flags: W
LayerCount: 2
Fore
SplineSet
86 210 m 1,0,1
 123 196 123 196 136 159 c 128,-1,2
 149 122 149 122 141 81 c 0,3,4
 128 17 128 17 84.5 -26 c 128,-1,5
 41 -69 41 -69 -23 -87 c 1,6,7
 -20 -60 -20 -60 -10 -52 c 0,8,9
 -3 -46 -3 -46 15.5 -35.5 c 128,-1,10
 34 -25 34 -25 43 -16 c 0,11,12
 58 -1 58 -1 68 20 c 128,-1,13
 78 41 78 41 79.5 62 c 128,-1,14
 81 83 81 83 68 98.5 c 128,-1,15
 55 114 55 114 27 116 c 1,16,-1
 86 210 l 1,0,1
EndSplineSet
EndChar

StartChar: hyphen
Encoding: 45 45 16
Width: 344
Flags: W
LayerCount: 2
Fore
SplineSet
340 370 m 1,0,-1
 340 366 l 1,1,-1
 352 366 l 1,2,-1
 340 370 l 1,0,-1
47 249 m 1,3,-1
 51 245 l 1,4,-1
 47 249 l 1,3,-1
352 366 m 1,5,6
 349 362 349 362 338 336.5 c 128,-1,7
 327 311 327 311 317 295.5 c 128,-1,8
 307 280 307 280 295 273 c 0,9,10
 290 269 290 269 282 268 c 128,-1,11
 274 267 274 267 260.5 268 c 128,-1,12
 247 269 247 269 246 269 c 0,13,14
 225 269 225 269 183.5 271 c 128,-1,15
 142 273 142 273 121 273 c 0,16,17
 115 273 115 273 98.5 266 c 128,-1,18
 82 259 82 259 67.5 254 c 128,-1,19
 53 249 53 249 51 252 c 0,20,21
 42 263 42 263 66.5 297 c 128,-1,22
 91 331 91 331 105 339 c 1,23,24
 126 349 126 349 160.5 348.5 c 128,-1,25
 195 348 195 348 223 344 c 128,-1,26
 251 340 251 340 281 344 c 0,27,28
 291 346 291 346 312.5 357.5 c 128,-1,29
 334 369 334 369 352 366 c 1,5,6
EndSplineSet
EndChar

StartChar: period
Encoding: 46 46 17
Width: 177
Flags: W
LayerCount: 2
Fore
SplineSet
74 215 m 0,0,1
 104 224 104 224 113 192 c 1,2,3
 121 159 121 159 100 133 c 0,4,5
 91 122 91 122 78 119 c 0,6,7
 43 109 43 109 35.5 142 c 128,-1,8
 28 175 28 175 53 201 c 0,9,10
 62 211 62 211 74 215 c 0,0,1
EndSplineSet
EndChar

StartChar: slash
Encoding: 47 47 18
Width: 566
Flags: W
LayerCount: 2
Fore
SplineSet
66 -149 m 1,0,-1
 163 54 l 1,1,-1
 421 581 l 1,2,-1
 493 730 l 1,3,-1
 526 788 l 1,4,-1
 590 792 l 1,5,6
 579 753 579 753 558.5 710.5 c 128,-1,7
 538 668 538 668 507.5 612.5 c 128,-1,8
 477 557 477 557 466 534 c 2,9,-1
 233 62 l 1,10,-1
 161 -87 l 2,11,12
 159 -91 159 -91 153 -106 c 128,-1,13
 147 -121 147 -121 141 -131 c 128,-1,14
 135 -141 135 -141 127 -145 c 1,15,16
 121 -150 121 -150 110.5 -150.5 c 128,-1,17
 100 -151 100 -151 84.5 -150 c 128,-1,18
 69 -149 69 -149 66 -149 c 1,0,-1
62 -149 m 1,19,-1
 66 -153 l 1,20,-1
 62 -149 l 1,19,-1
EndSplineSet
EndChar

StartChar: zero
Encoding: 48 48 19
Width: 500
Flags: W
LayerCount: 2
Fore
SplineSet
332 708 m 0,0,1
 281 696 281 696 244 609 c 0,2,3
 176 450 176 450 176 288 c 0,4,5
 176 267 176 267 176.5 251.5 c 128,-1,6
 177 236 177 236 181.5 214 c 128,-1,7
 186 192 186 192 194.5 178.5 c 128,-1,8
 203 165 203 165 219 157 c 128,-1,9
 235 149 235 149 258 153 c 0,10,11
 310 162 310 162 348 253 c 0,12,13
 425 437 425 437 426 581 c 0,14,15
 426 606 426 606 422 628 c 128,-1,16
 418 650 418 650 409 672.5 c 128,-1,17
 400 695 400 695 380 705 c 128,-1,18
 360 715 360 715 332 708 c 0,0,1
328 740 m 0,19,20
 369 746 369 746 402 733 c 128,-1,21
 435 720 435 720 456.5 693.5 c 128,-1,22
 478 667 478 667 491.5 633.5 c 128,-1,23
 505 600 505 600 510 562 c 0,24,25
 516 519 516 519 505 452 c 0,26,27
 498 411 498 411 487 371 c 128,-1,28
 476 331 476 331 456.5 287.5 c 128,-1,29
 437 244 437 244 412.5 210 c 128,-1,30
 388 176 388 176 352 151.5 c 128,-1,31
 316 127 316 127 273 121 c 0,32,33
 232 116 232 116 197 130.5 c 128,-1,34
 162 145 162 145 139.5 173 c 128,-1,35
 117 201 117 201 103.5 236.5 c 128,-1,36
 90 272 90 272 87 312 c 1,37,38
 81 371 81 371 94 440.5 c 128,-1,39
 107 510 107 510 135.5 573.5 c 128,-1,40
 164 637 164 637 215 683.5 c 128,-1,41
 266 730 266 730 328 740 c 0,19,20
EndSplineSet
EndChar

StartChar: one
Encoding: 49 49 20
Width: 500
Flags: W
LayerCount: 2
Fore
SplineSet
191 706 m 1,0,1
 193 714 193 714 197 719.5 c 128,-1,2
 201 725 201 725 203.5 728 c 128,-1,3
 206 731 206 731 213.5 732 c 128,-1,4
 221 733 221 733 223.5 733.5 c 128,-1,5
 226 734 226 734 237 734 c 128,-1,6
 248 734 248 734 250 734 c 0,7,8
 276 734 276 734 328 736 c 128,-1,9
 380 738 380 738 406 738 c 1,10,-1
 322 386 l 1,11,-1
 270 183 l 1,12,13
 292 179 292 179 303.5 176.5 c 128,-1,14
 315 174 315 174 337.5 167.5 c 128,-1,15
 360 161 360 161 373 151 c 128,-1,16
 386 141 386 141 391 128 c 1,17,-1
 160 124 l 1,18,-1
 301 683 l 1,19,-1
 191 706 l 1,0,1
EndSplineSet
EndChar

StartChar: two
Encoding: 50 50 21
Width: 500
Flags: W
LayerCount: 2
Fore
SplineSet
156 570 m 1,0,1
 142 574 142 574 136 582 c 128,-1,2
 130 590 130 590 133 601.5 c 128,-1,3
 136 613 136 613 139.5 621 c 128,-1,4
 143 629 143 629 151 643 c 0,5,6
 153 646 153 646 154 648 c 0,7,8
 176 686 176 686 214.5 710.5 c 128,-1,9
 253 735 253 735 297 737 c 0,10,11
 342 739 342 739 379 721.5 c 128,-1,12
 416 704 416 704 437 673.5 c 128,-1,13
 458 643 458 643 464.5 602.5 c 128,-1,14
 471 562 471 562 454 519 c 1,15,16
 438 473 438 473 403 426 c 128,-1,17
 368 379 368 379 336.5 348.5 c 128,-1,18
 305 318 305 318 254 271.5 c 128,-1,19
 203 225 203 225 180 202 c 1,20,-1
 406 211 l 1,21,-1
 477 234 l 1,22,23
 476 232 476 232 468.5 215 c 128,-1,24
 461 198 461 198 457 189.5 c 128,-1,25
 453 181 453 181 445.5 167.5 c 128,-1,26
 438 154 438 154 431 145 c 128,-1,27
 424 136 424 136 416 132 c 1,28,29
 406 125 406 125 386.5 124.5 c 128,-1,30
 367 124 367 124 341 126 c 128,-1,31
 315 128 315 128 309 128 c 0,32,33
 299 128 299 128 245.5 128.5 c 128,-1,34
 192 129 192 129 171.5 128.5 c 128,-1,35
 151 128 151 128 112.5 125 c 128,-1,36
 74 122 74 122 43 116 c 1,37,38
 47 138 47 138 66.5 158.5 c 128,-1,39
 86 179 86 179 116 201 c 128,-1,40
 146 223 146 223 156 234 c 0,41,42
 196 273 196 273 219 298 c 128,-1,43
 242 323 242 323 274 362 c 128,-1,44
 306 401 306 401 327 440 c 128,-1,45
 348 479 348 479 359 519 c 0,46,47
 366 546 366 546 363 580.5 c 128,-1,48
 360 615 360 615 346 644 c 128,-1,49
 332 673 332 673 306 685.5 c 128,-1,50
 280 698 280 698 242 683 c 0,51,52
 187 660 187 660 156 570 c 1,0,1
EndSplineSet
EndChar

StartChar: three
Encoding: 51 51 22
Width: 500
Flags: W
LayerCount: 2
Fore
SplineSet
176 612 m 1,0,-1
 180 609 l 1,1,-1
 176 612 l 1,0,-1
180 612 m 1,2,3
 183 655 183 655 216.5 687.5 c 128,-1,4
 250 720 250 720 295.5 733.5 c 128,-1,5
 341 747 341 747 383 740 c 1,6,7
 434 730 434 730 452.5 685.5 c 128,-1,8
 471 641 471 641 445 597 c 0,9,10
 429 568 429 568 387.5 531.5 c 128,-1,11
 346 495 346 495 336 484 c 1,12,13
 374 483 374 483 400 466 c 128,-1,14
 426 449 426 449 437.5 421.5 c 128,-1,15
 449 394 449 394 448.5 361 c 128,-1,16
 448 328 448 328 436 296 c 0,17,18
 409 228 409 228 345 180 c 128,-1,19
 281 132 281 132 207 120 c 0,20,21
 156 111 156 111 112 125 c 128,-1,22
 68 139 68 139 55 183 c 1,23,24
 69 190 69 190 80 191 c 128,-1,25
 91 192 91 192 99.5 187.5 c 128,-1,26
 108 183 108 183 115.5 177 c 128,-1,27
 123 171 123 171 134 163.5 c 128,-1,28
 145 156 145 156 156 152 c 0,29,30
 204 137 204 137 266 181 c 0,31,32
 292 199 292 199 316.5 236 c 128,-1,33
 341 273 341 273 354 313 c 128,-1,34
 367 353 367 353 352 388 c 128,-1,35
 337 423 337 423 289 435 c 1,36,37
 284 438 284 438 268.5 436.5 c 128,-1,38
 253 435 253 435 247.5 434 c 128,-1,39
 242 433 242 433 227 429.5 c 128,-1,40
 212 426 212 426 207 425 c 1,41,42
 209 437 209 437 213.5 445.5 c 128,-1,43
 218 454 218 454 225.5 460 c 128,-1,44
 233 466 233 466 239.5 470 c 128,-1,45
 246 474 246 474 258 479.5 c 128,-1,46
 270 485 270 485 277 489 c 0,47,48
 327 516 327 516 353 558 c 0,49,50
 365 576 365 576 367.5 599.5 c 128,-1,51
 370 623 370 623 364 643 c 128,-1,52
 358 663 358 663 340.5 676 c 128,-1,53
 323 689 323 689 297 686 c 0,54,55
 274 683 274 683 255 671.5 c 128,-1,56
 236 660 236 660 213 640 c 128,-1,57
 190 620 190 620 180 612 c 1,2,3
EndSplineSet
EndChar

StartChar: four
Encoding: 52 52 23
Width: 500
Flags: W
LayerCount: 2
Fore
SplineSet
375 659 m 1,0,1
 199 541 199 541 133 417 c 1,2,-1
 254 417 l 1,3,-1
 307 420 l 1,4,-1
 328 476 l 1,5,-1
 363 601 l 1,6,-1
 375 659 l 1,0,1
55 343 m 1,7,8
 61 365 61 365 75.5 390.5 c 128,-1,9
 90 416 90 416 99.5 429.5 c 128,-1,10
 109 443 109 443 130 472 c 0,11,12
 165 518 165 518 202 558.5 c 128,-1,13
 239 599 239 599 285 640 c 128,-1,14
 331 681 331 681 382.5 710 c 128,-1,15
 434 739 434 739 484 749 c 1,16,-1
 402 417 l 1,17,-1
 492 417 l 1,18,-1
 477 343 l 1,19,-1
 383 343 l 1,20,-1
 328 124 l 1,21,-1
 238 120 l 1,22,-1
 293 343 l 1,23,-1
 55 343 l 1,7,8
EndSplineSet
EndChar

StartChar: five
Encoding: 53 53 24
Width: 500
Flags: W
LayerCount: 2
Fore
SplineSet
500 753 m 1,0,-1
 504 749 l 1,1,-1
 500 753 l 1,0,-1
207 542 m 1,2,3
 212 564 212 564 221 587.5 c 128,-1,4
 230 611 230 611 244 642.5 c 128,-1,5
 258 674 258 674 263 687 c 2,6,7
 263 687 263 687 268 702 c 128,-1,8
 273 717 273 717 278 724.5 c 128,-1,9
 283 732 283 732 290 735 c 1,10,11
 309 739 309 739 320 738.5 c 128,-1,12
 331 738 331 738 355.5 734 c 128,-1,13
 380 730 380 730 387 730 c 0,14,15
 438 727 438 727 500 749 c 1,16,17
 493 726 493 726 476.5 697.5 c 128,-1,18
 460 669 460 669 444 659 c 1,19,20
 429 651 429 651 400.5 651 c 128,-1,21
 372 651 372 651 336.5 655 c 128,-1,22
 301 659 301 659 289 659 c 1,23,-1
 273 609 l 1,24,25
 338 603 338 603 386 564.5 c 128,-1,26
 434 526 434 526 452 467.5 c 128,-1,27
 470 409 470 409 451 347 c 1,28,29
 431 277 431 277 377 219.5 c 128,-1,30
 323 162 323 162 254 134 c 0,31,32
 178 104 178 104 98 124 c 0,33,34
 96 125 96 125 90.5 126.5 c 128,-1,35
 85 128 85 128 82.5 128.5 c 128,-1,36
 80 129 80 129 75 131 c 128,-1,37
 70 133 70 133 67.5 134 c 128,-1,38
 65 135 65 135 60.5 137.5 c 128,-1,39
 56 140 56 140 55.5 142.5 c 128,-1,40
 55 145 55 145 52 148.5 c 128,-1,41
 49 152 49 152 50 155 c 128,-1,42
 51 158 51 158 51 163 c 1,43,44
 101 153 101 153 142.5 153 c 128,-1,45
 184 153 184 153 223 171.5 c 128,-1,46
 262 190 262 190 296 230 c 0,47,48
 333 272 333 272 347 323 c 128,-1,49
 361 374 361 374 351.5 419 c 128,-1,50
 342 464 342 464 304.5 498.5 c 128,-1,51
 267 533 267 533 207 542 c 1,2,3
EndSplineSet
EndChar

StartChar: six
Encoding: 54 54 25
Width: 500
Flags: W
LayerCount: 2
Fore
SplineSet
285 443 m 1,0,1
 255 436 255 436 233.5 414 c 128,-1,2
 212 392 212 392 201.5 361.5 c 128,-1,3
 191 331 191 331 187 301.5 c 128,-1,4
 183 272 183 272 184 241 c 0,5,6
 185 200 185 200 206 173 c 128,-1,7
 227 146 227 146 266 153 c 0,8,9
 296 158 296 158 317.5 182 c 128,-1,10
 339 206 339 206 349.5 240 c 128,-1,11
 360 274 360 274 364 305.5 c 128,-1,12
 368 337 368 337 367 366 c 0,13,14
 366 404 366 404 343.5 427 c 128,-1,15
 321 450 321 450 285 443 c 1,0,1
227 452 m 1,16,17
 260 475 260 475 289 481 c 0,18,19
 328 489 328 489 361.5 478 c 128,-1,20
 395 467 395 467 415.5 441.5 c 128,-1,21
 436 416 436 416 447.5 383 c 128,-1,22
 459 350 459 350 457.5 313.5 c 128,-1,23
 456 277 456 277 444 245 c 1,24,25
 425 200 425 200 381.5 167 c 128,-1,26
 338 134 338 134 289.5 122.5 c 128,-1,27
 241 111 241 111 192.5 129.5 c 128,-1,28
 144 148 144 148 118 198 c 0,29,30
 75 281 75 281 108 409 c 0,31,32
 122 463 122 463 146.5 514.5 c 128,-1,33
 171 566 171 566 207 613 c 128,-1,34
 243 660 243 660 288 691 c 128,-1,35
 333 722 333 722 386.5 734.5 c 128,-1,36
 440 747 440 747 500 730 c 1,37,-1
 492 710 l 1,38,39
 453 720 453 720 415 706 c 128,-1,40
 377 692 377 692 349 664.5 c 128,-1,41
 321 637 321 637 295.5 598 c 128,-1,42
 270 559 270 559 254 523.5 c 128,-1,43
 238 488 238 488 227 452 c 1,16,17
EndSplineSet
EndChar

StartChar: seven
Encoding: 55 55 26
Width: 500
Flags: W
LayerCount: 2
Fore
SplineSet
414 644 m 1,0,-1
 266 644 l 2,1,2
 261 644 261 644 243 645 c 128,-1,3
 225 646 225 646 213 645 c 128,-1,4
 201 644 201 644 191 640 c 0,5,6
 186 638 186 638 170.5 621 c 128,-1,7
 155 604 155 604 141 592.5 c 128,-1,8
 127 581 127 581 121 588 c 0,9,10
 119 591 119 591 118.5 595 c 128,-1,11
 118 599 118 599 120 604 c 128,-1,12
 122 609 122 609 123 612.5 c 128,-1,13
 124 616 124 616 127 621.5 c 128,-1,14
 130 627 130 627 130 628 c 0,15,16
 134 636 134 636 145.5 666.5 c 128,-1,17
 157 697 157 697 168 718 c 128,-1,18
 179 739 179 739 191 751 c 1,19,20
 204 760 204 760 208.5 751 c 128,-1,21
 213 742 213 742 211 730 c 1,22,-1
 512 734 l 1,23,24
 462 645 462 645 436.5 597 c 128,-1,25
 411 549 411 549 375 471 c 128,-1,26
 339 393 339 393 316 327 c 0,27,28
 316 325 316 325 314 319 c 0,29,30
 308 302 308 302 305 292 c 128,-1,31
 302 282 302 282 297.5 264 c 128,-1,32
 293 246 293 246 293.5 234.5 c 128,-1,33
 294 223 294 223 297.5 210 c 128,-1,34
 301 197 301 197 312 189 c 128,-1,35
 323 181 323 181 340 179 c 1,36,37
 330 153 330 153 311.5 132.5 c 128,-1,38
 293 112 293 112 270 115 c 0,39,40
 243 118 243 118 235.5 148 c 128,-1,41
 228 178 228 178 233 206 c 0,42,43
 242 260 242 260 265 323 c 128,-1,44
 288 386 288 386 307 427 c 128,-1,45
 326 468 326 468 363 541.5 c 128,-1,46
 400 615 400 615 414 644 c 1,0,-1
EndSplineSet
EndChar

StartChar: eight
Encoding: 56 56 27
Width: 500
Flags: W
LayerCount: 2
Fore
SplineSet
320 697 m 1,0,1
 281 689 281 689 268 662 c 128,-1,2
 255 635 255 635 264 604.5 c 128,-1,3
 273 574 273 574 297 550 c 0,4,5
 298 548 298 548 306.5 539 c 128,-1,6
 315 530 315 530 320 525 c 128,-1,7
 325 520 325 520 333 515.5 c 128,-1,8
 341 511 341 511 348 513 c 0,9,10
 378 519 378 519 397 542 c 128,-1,11
 416 565 416 565 418.5 593.5 c 128,-1,12
 421 622 421 622 413 648 c 128,-1,13
 405 674 405 674 380 688.5 c 128,-1,14
 355 703 355 703 320 697 c 1,0,1
277 437 m 1,15,16
 272 436 272 436 267 434.5 c 128,-1,17
 262 433 262 433 256 429.5 c 128,-1,18
 250 426 250 426 246 423 c 128,-1,19
 242 420 242 420 235.5 414 c 128,-1,20
 229 408 229 408 226.5 406 c 128,-1,21
 224 404 224 404 218 397.5 c 128,-1,22
 212 391 212 391 211 390 c 0,23,24
 183 360 183 360 171 319 c 128,-1,25
 159 278 159 278 165.5 241 c 128,-1,26
 172 204 172 204 202 180 c 128,-1,27
 232 156 232 156 281 159 c 1,28,29
 340 164 340 164 367.5 202.5 c 128,-1,30
 395 241 395 241 388.5 290 c 128,-1,31
 382 339 382 339 349 378 c 0,32,33
 348 379 348 379 340.5 388 c 128,-1,34
 333 397 333 397 329.5 401.5 c 128,-1,35
 326 406 326 406 318 414 c 128,-1,36
 310 422 310 422 304 426.5 c 128,-1,37
 298 431 298 431 291 434 c 128,-1,38
 284 437 284 437 277 437 c 1,15,16
254 460 m 1,39,40
 252 462 252 462 242 472 c 128,-1,41
 232 482 232 482 228.5 485.5 c 128,-1,42
 225 489 225 489 217 497.5 c 128,-1,43
 209 506 209 506 205.5 512 c 128,-1,44
 202 518 202 518 197 526 c 128,-1,45
 192 534 192 534 189 542 c 0,46,47
 174 579 174 579 184 620 c 0,48,49
 202 687 202 687 269.5 720 c 128,-1,50
 337 753 337 753 402 729 c 0,51,52
 439 716 439 716 457 685.5 c 128,-1,53
 475 655 475 655 471 619.5 c 128,-1,54
 467 584 467 584 445 554 c 0,55,56
 436 541 436 541 424.5 530.5 c 128,-1,57
 413 520 413 520 395.5 507 c 128,-1,58
 378 494 378 494 371 488 c 1,59,60
 409 461 409 461 435.5 423 c 128,-1,61
 462 385 462 385 468 343 c 0,62,63
 476 280 476 280 442.5 225 c 128,-1,64
 409 170 409 170 350.5 141.5 c 128,-1,65
 292 113 292 113 230 121 c 0,66,67
 157 131 157 131 121.5 190 c 128,-1,68
 86 249 86 249 111 320 c 1,69,70
 128 365 128 365 167 402.5 c 128,-1,71
 206 440 206 440 254 460 c 1,39,40
EndSplineSet
EndChar

StartChar: nine
Encoding: 57 57 28
Width: 500
Flags: W
LayerCount: 2
Fore
SplineSet
305 708 m 0,0,1
 275 701 275 701 254.5 676.5 c 128,-1,2
 234 652 234 652 224.5 618 c 128,-1,3
 215 584 215 584 212 552.5 c 128,-1,4
 209 521 209 521 211 491 c 0,5,6
 214 454 214 454 235.5 430.5 c 128,-1,7
 257 407 257 407 293 415 c 0,8,9
 323 422 323 422 344.5 446 c 128,-1,10
 366 470 366 470 376 502.5 c 128,-1,11
 386 535 386 535 389.5 567 c 128,-1,12
 393 599 393 599 390 628 c 0,13,14
 386 667 386 667 363.5 692 c 128,-1,15
 341 717 341 717 305 708 c 0,0,1
348 405 m 1,16,17
 315 382 315 382 282 376 c 128,-1,18
 249 370 249 370 222.5 379.5 c 128,-1,19
 196 389 196 389 172.5 409 c 128,-1,20
 149 429 149 429 136.5 458.5 c 128,-1,21
 124 488 124 488 119.5 521 c 128,-1,22
 115 554 115 554 125 589 c 1,23,24
 138 642 138 642 179.5 681.5 c 128,-1,25
 221 721 221 721 270.5 736 c 128,-1,26
 320 751 320 751 372 733.5 c 128,-1,27
 424 716 424 716 455 663 c 0,28,29
 494 597 494 597 474 484 c 0,30,31
 465 432 465 432 442 376 c 128,-1,32
 419 320 419 320 383.5 266 c 128,-1,33
 348 212 348 212 302.5 175 c 128,-1,34
 257 138 257 138 202 123.5 c 128,-1,35
 147 109 147 109 86 132 c 1,36,-1
 94 152 l 1,37,38
 138 141 138 141 183 164 c 128,-1,39
 228 187 228 187 261.5 228.5 c 128,-1,40
 295 270 295 270 318.5 317.5 c 128,-1,41
 342 365 342 365 348 405 c 1,16,17
EndSplineSet
EndChar

StartChar: colon
Encoding: 58 58 29
Width: 177
Flags: W
LayerCount: 2
Fore
SplineSet
74 215 m 0,0,1
 104 224 104 224 113 192 c 1,2,3
 121 159 121 159 100 133 c 0,4,5
 91 122 91 122 78 119 c 0,6,7
 43 109 43 109 35.5 142 c 128,-1,8
 28 175 28 175 53 201 c 0,9,10
 62 211 62 211 74 215 c 0,0,1
125 452 m 0,11,12
 141 459 141 459 154 445 c 128,-1,13
 167 431 167 431 170 413 c 0,14,15
 173 397 173 397 160.5 379.5 c 128,-1,16
 148 362 148 362 133 356 c 0,17,18
 120 350 120 350 110 360.5 c 128,-1,19
 100 371 100 371 96 386 c 0,20,21
 91 405 91 405 99 424.5 c 128,-1,22
 107 444 107 444 125 452 c 0,11,12
EndSplineSet
EndChar

StartChar: semicolon
Encoding: 59 59 30
Width: 177
Flags: W
LayerCount: 2
Fore
SplineSet
16 -36 m 1,0,-1
 23 -59 l 1,1,-1
 16 -36 l 1,0,-1
31 128 m 1,2,3
 58 185 58 185 76 194 c 0,4,5
 101 207 101 207 121.5 175 c 128,-1,6
 142 143 142 143 144 116 c 0,7,8
 148 60 148 60 112.5 9 c 128,-1,9
 77 -42 77 -42 23 -59 c 1,10,-1
 16 -32 l 1,11,12
 37 -18 37 -18 55 5 c 128,-1,13
 73 28 73 28 81 52.5 c 128,-1,14
 89 77 89 77 77 98.5 c 128,-1,15
 65 120 65 120 31 128 c 1,2,3
148 452 m 0,16,17
 177 459 177 459 184 427 c 0,18,19
 191 393 191 393 169 367 c 0,20,21
 160 357 160 357 148 354 c 0,22,23
 112 345 112 345 106 378 c 256,24,25
 100 411 100 411 125 437 c 0,26,27
 135 448 135 448 148 452 c 0,16,17
EndSplineSet
EndChar

StartChar: less
Encoding: 60 60 31
Width: 667
Flags: W
LayerCount: 2
Fore
SplineSet
641 648 m 1,0,1
 647 636 647 636 646.5 609.5 c 128,-1,2
 646 583 646 583 635 574 c 0,3,4
 618 561 618 561 592 550 c 128,-1,5
 566 539 566 539 532 528 c 128,-1,6
 498 517 498 517 484 512 c 0,7,8
 453 499 453 499 395.5 473.5 c 128,-1,9
 338 448 338 448 290 428.5 c 128,-1,10
 242 409 242 409 199 398 c 1,11,-1
 199 394 l 1,12,-1
 316 349 l 1,13,-1
 516 267 l 1,14,-1
 638 215 l 1,15,-1
 645 144 l 1,16,17
 581 165 581 165 514.5 192.5 c 128,-1,18
 448 220 448 220 353.5 262 c 128,-1,19
 259 304 259 304 227 318 c 0,20,21
 219 322 219 322 207.5 326 c 128,-1,22
 196 330 196 330 187 333 c 128,-1,23
 178 336 178 336 166 340.5 c 128,-1,24
 154 345 154 345 146 350 c 128,-1,25
 138 355 138 355 129.5 362 c 128,-1,26
 121 369 121 369 117.5 376.5 c 128,-1,27
 114 384 114 384 112 394.5 c 128,-1,28
 110 405 110 405 115 417 c 1,29,30
 116 422 116 422 120.5 426 c 128,-1,31
 125 430 125 430 128 431.5 c 128,-1,32
 131 433 131 433 139 436.5 c 128,-1,33
 147 440 147 440 148 440 c 2,34,-1
 246 481 l 2,35,36
 273 493 273 493 419 552.5 c 128,-1,37
 565 612 565 612 641 648 c 1,0,1
EndSplineSet
EndChar

StartChar: equal
Encoding: 61 61 32
Width: 667
Flags: W
LayerCount: 2
Fore
SplineSet
113 312 m 1,0,-1
 645 312 l 1,1,-1
 645 249 l 1,2,-1
 113 249 l 1,3,-1
 113 312 l 1,0,-1
113 538 m 1,4,-1
 645 538 l 1,5,-1
 645 476 l 1,6,-1
 113 476 l 1,7,-1
 113 538 l 1,4,-1
EndSplineSet
EndChar

StartChar: greater
Encoding: 62 62 33
Width: 667
Flags: W
LayerCount: 2
Fore
SplineSet
113 648 m 1,0,1
 206 622 206 622 380 538.5 c 128,-1,2
 554 455 554 455 645 429 c 1,3,4
 645 425 645 425 646 411.5 c 128,-1,5
 647 398 647 398 646 388.5 c 128,-1,6
 645 379 645 379 642 372 c 0,7,8
 637 361 637 361 615 350.5 c 128,-1,9
 593 340 593 340 563 330.5 c 128,-1,10
 533 321 533 321 527 318 c 2,11,-1
 262 206 l 2,12,13
 249 201 249 201 217 185.5 c 128,-1,14
 185 170 185 170 160.5 161 c 128,-1,15
 136 152 136 152 113 148 c 1,16,-1
 120 215 l 1,17,-1
 250 271 l 1,18,-1
 555 398 l 1,19,20
 419 450 419 450 234 529 c 0,21,22
 226 532 226 532 197.5 540.5 c 128,-1,23
 169 549 169 549 147.5 558.5 c 128,-1,24
 126 568 126 568 117 580 c 0,25,26
 112 587 112 587 111 598.5 c 128,-1,27
 110 610 110 610 111.5 627 c 128,-1,28
 113 644 113 644 113 648 c 1,0,1
EndSplineSet
EndChar

StartChar: question
Encoding: 63 63 34
Width: 323
Flags: W
LayerCount: 2
Fore
SplineSet
70 207 m 0,0,1
 90 214 90 214 102.5 196 c 128,-1,2
 115 178 115 178 111.5 154.5 c 128,-1,3
 108 131 108 131 90 123 c 1,4,5
 56 110 56 110 42 140 c 0,6,7
 29 168 29 168 49 192 c 0,8,9
 57 203 57 203 70 207 c 0,0,1
70 284 m 1,10,11
 80 411 80 411 164 447 c 0,12,13
 179 453 179 453 219.5 460 c 128,-1,14
 260 467 260 467 285 481 c 128,-1,15
 310 495 310 495 318 527 c 0,16,17
 327 567 327 567 291.5 604 c 128,-1,18
 256 641 256 641 215 635 c 0,19,20
 203 633 203 633 183.5 618.5 c 128,-1,21
 164 604 164 604 152 603 c 1,22,23
 141 601 141 601 138 612 c 128,-1,24
 135 623 135 623 139 632 c 1,25,26
 156 698 156 698 220 707 c 0,27,28
 280 716 280 716 328 674 c 1,29,30
 380 630 380 630 369 566 c 0,31,32
 347 447 347 447 281 409 c 0,33,34
 259 397 259 397 225 387 c 128,-1,35
 191 377 191 377 169 370.5 c 128,-1,36
 147 364 147 364 126 342.5 c 128,-1,37
 105 321 105 321 98 284 c 1,38,-1
 70 284 l 1,10,11
EndSplineSet
EndChar

StartChar: at
Encoding: 64 64 35
Width: 833
Flags: W
LayerCount: 2
Fore
SplineSet
508 543 m 1,0,1
 483 537 483 537 454 488 c 1,2,3
 405 401 405 401 387 300 c 0,4,5
 385 287 385 287 384 275 c 128,-1,6
 383 263 383 263 384 246 c 128,-1,7
 385 229 385 229 394 221 c 128,-1,8
 403 213 403 213 418 216 c 0,9,10
 442 221 442 221 476 269 c 0,11,12
 537 356 537 356 550 456 c 1,13,14
 550 472 550 472 550.5 493.5 c 128,-1,15
 551 515 551 515 539.5 532 c 128,-1,16
 528 549 528 549 508 543 c 1,0,1
906 206 m 1,17,18
 885 115 885 115 816.5 48 c 128,-1,19
 748 -19 748 -19 661 -49 c 128,-1,20
 574 -79 574 -79 477 -77 c 128,-1,21
 380 -75 380 -75 301 -39 c 0,22,23
 203 6 203 6 142.5 98.5 c 128,-1,24
 82 191 82 191 74 300 c 0,25,26
 66 422 66 422 117.5 532.5 c 128,-1,27
 169 643 169 643 270 707 c 1,28,29
 337 751 337 751 421.5 769 c 128,-1,30
 506 787 506 787 587.5 778 c 128,-1,31
 669 769 669 769 739.5 722.5 c 128,-1,32
 810 676 810 676 844 597 c 0,33,34
 886 499 886 499 864 385.5 c 128,-1,35
 842 272 842 272 766 198 c 0,36,37
 745 178 745 178 709.5 159.5 c 128,-1,38
 674 141 674 141 634.5 129.5 c 128,-1,39
 595 118 595 118 558 125.5 c 128,-1,40
 521 133 521 133 502 163 c 0,41,42
 491 180 491 180 489.5 198 c 128,-1,43
 488 216 488 216 492 240 c 128,-1,44
 496 264 496 264 496 277 c 1,45,46
 478 234 478 234 449.5 196 c 128,-1,47
 421 158 421 158 387 140 c 1,48,49
 358 123 358 123 325 129.5 c 128,-1,50
 292 136 292 136 276 167 c 0,51,52
 250 215 250 215 260 277 c 128,-1,53
 270 339 270 339 296 393 c 128,-1,54
 322 447 322 447 357 488 c 0,55,56
 373 507 373 507 395.5 526 c 128,-1,57
 418 545 418 545 445.5 560 c 128,-1,58
 473 575 473 575 497.5 579.5 c 128,-1,59
 522 584 522 584 542 568 c 128,-1,60
 562 552 562 552 570 515 c 1,61,-1
 574 515 l 1,62,-1
 589 562 l 1,63,-1
 703 570 l 1,64,65
 693 528 693 528 657.5 426.5 c 128,-1,66
 622 325 622 325 613 269 c 0,67,68
 613 264 613 264 609 247 c 128,-1,69
 605 230 605 230 604 219.5 c 128,-1,70
 603 209 603 209 604 195.5 c 128,-1,71
 605 182 605 182 613.5 174 c 128,-1,72
 622 166 622 166 637 164 c 0,73,74
 661 161 661 161 707 190 c 0,75,76
 793 246 793 246 829 359 c 1,77,78
 844 410 844 410 844 460.5 c 128,-1,79
 844 511 844 511 824.5 559 c 128,-1,80
 805 607 805 607 774.5 645 c 128,-1,81
 744 683 744 683 699 709.5 c 128,-1,82
 654 736 654 736 602 744 c 0,83,84
 504 759 504 759 408.5 728.5 c 128,-1,85
 313 698 313 698 246 628 c 0,86,87
 184 563 184 563 153 473 c 128,-1,88
 122 383 122 383 126 294 c 128,-1,89
 130 205 130 205 175.5 123.5 c 128,-1,90
 221 42 221 42 305 -3 c 1,91,92
 413 -63 413 -63 542.5 -48.5 c 128,-1,93
 672 -34 672 -34 766 47 c 1,94,95
 820 95 820 95 848 144 c 0,96,97
 852 150 852 150 858.5 164.5 c 128,-1,98
 865 179 865 179 869.5 186 c 128,-1,99
 874 193 874 193 883.5 199.5 c 128,-1,100
 893 206 893 206 906 206 c 1,17,18
EndSplineSet
EndChar

StartChar: A
Encoding: 65 65 36
Width: 583
Flags: W
LayerCount: 2
Fore
SplineSet
262 390 m 1,0,1
 268 390 268 390 299.5 387 c 128,-1,2
 331 384 331 384 354.5 385 c 128,-1,3
 378 386 378 386 388 394 c 0,4,5
 392 397 392 397 394.5 402.5 c 128,-1,6
 397 408 397 408 397.5 415.5 c 128,-1,7
 398 423 398 423 398.5 428.5 c 128,-1,8
 399 434 399 434 398.5 442 c 128,-1,9
 398 450 398 450 398 452 c 0,10,11
 399 515 399 515 410 601 c 1,12,13
 402 597 402 597 394.5 589.5 c 128,-1,14
 387 582 387 582 383 577.5 c 128,-1,15
 379 573 379 573 370.5 561 c 128,-1,16
 362 549 362 549 361 546 c 0,17,18
 353 535 353 535 334 510.5 c 128,-1,19
 315 486 315 486 304 470.5 c 128,-1,20
 293 455 293 455 280 432 c 128,-1,21
 267 409 267 409 262 390 c 1,0,1
20 128 m 1,22,-1
 20 124 l 1,23,-1
 152 124 l 1,24,-1
 20 128 l 1,22,-1
320 128 m 1,25,-1
 320 124 l 1,26,-1
 469 124 l 1,27,28
 451 132 451 132 425.5 132.5 c 128,-1,29
 400 133 400 133 366 130.5 c 128,-1,30
 332 128 332 128 320 128 c 1,25,-1
-12 124 m 1,31,32
 -9 141 -9 141 1 146.5 c 128,-1,33
 11 152 11 152 28 155 c 128,-1,34
 45 158 45 158 55 163 c 0,35,36
 61 167 61 167 67.5 172.5 c 128,-1,37
 74 178 74 178 78 182.5 c 128,-1,38
 82 187 82 187 88 195 c 128,-1,39
 94 203 94 203 97 207 c 128,-1,40
 100 211 100 211 106.5 221 c 128,-1,41
 113 231 113 231 114 234 c 0,42,43
 128 254 128 254 164.5 311.5 c 128,-1,44
 201 369 201 369 220 397.5 c 128,-1,45
 239 426 239 426 269.5 472.5 c 128,-1,46
 300 519 300 519 327 557 c 128,-1,47
 354 595 354 595 381 632 c 0,48,49
 387 639 387 639 401.5 660 c 128,-1,50
 416 681 416 681 425 693 c 128,-1,51
 434 705 434 705 449 720 c 128,-1,52
 464 735 464 735 479.5 742 c 128,-1,53
 495 749 495 749 512 749 c 1,54,55
 509 692 509 692 499.5 548.5 c 128,-1,56
 490 405 490 405 488 327 c 0,57,58
 488 318 488 318 483.5 281 c 128,-1,59
 479 244 479 244 480.5 218 c 128,-1,60
 482 192 482 192 493 175 c 0,61,62
 497 168 497 168 503 164 c 128,-1,63
 509 160 509 160 516.5 158.5 c 128,-1,64
 524 157 524 157 529 156 c 128,-1,65
 534 155 534 155 544 157 c 128,-1,66
 554 159 554 159 558 159.5 c 128,-1,67
 562 160 562 160 573 163.5 c 128,-1,68
 584 167 584 167 586 167 c 1,69,70
 586 150 586 150 576 140.5 c 128,-1,71
 566 131 566 131 555 128.5 c 128,-1,72
 544 126 544 126 523 124 c 0,73,74
 488 122 488 122 414 124.5 c 128,-1,75
 340 127 340 127 305 124 c 1,76,-1
 309 155 l 1,77,78
 326 156 326 156 339.5 162 c 128,-1,79
 353 168 353 168 361.5 175.5 c 128,-1,80
 370 183 370 183 376 198 c 128,-1,81
 382 213 382 213 385 224.5 c 128,-1,82
 388 236 388 236 389.5 256 c 128,-1,83
 391 276 391 276 391 286.5 c 128,-1,84
 391 297 391 297 391 318.5 c 128,-1,85
 391 340 391 340 391 347 c 1,86,87
 381 347 381 347 341.5 351.5 c 128,-1,88
 302 356 302 356 273.5 353.5 c 128,-1,89
 245 351 245 351 229 337 c 0,90,91
 197 310 197 310 156 214 c 0,92,93
 155 213 155 213 152 206 c 128,-1,94
 149 199 149 199 148 196.5 c 128,-1,95
 147 194 147 194 144.5 186.5 c 128,-1,96
 142 179 142 179 143 176.5 c 128,-1,97
 144 174 144 174 145 167 c 1,98,99
 153 152 153 152 199 152 c 1,100,-1
 183 125 l 1,101,-1
 121 128 l 1,102,-1
 -12 124 l 1,31,32
EndSplineSet
EndChar

StartChar: B
Encoding: 66 66 37
Width: 531
Flags: W
LayerCount: 2
Fore
SplineSet
168 734 m 1,0,-1
 168 730 l 1,1,-1
 258 730 l 1,2,-1
 168 734 l 1,0,-1
340 702 m 1,3,4
 334 660 334 660 305 542 c 0,5,6
 304 539 304 539 301 529 c 128,-1,7
 298 519 298 519 296.5 512 c 128,-1,8
 295 505 295 505 294 495 c 128,-1,9
 293 485 293 485 297 483 c 1,10,11
 307 470 307 470 329 472.5 c 128,-1,12
 351 475 351 475 371.5 484 c 128,-1,13
 392 493 392 493 402 501 c 0,14,15
 439 532 439 532 442 579 c 128,-1,16
 445 626 445 626 415.5 662.5 c 128,-1,17
 386 699 386 699 340 702 c 1,3,4
281 448 m 1,18,19
 278 427 278 427 273 404.5 c 128,-1,20
 268 382 268 382 259 347.5 c 128,-1,21
 250 313 250 313 248 304 c 0,22,23
 243 286 243 286 234 234 c 1,24,25
 229 198 229 198 245 177 c 128,-1,26
 261 156 261 156 288.5 155.5 c 128,-1,27
 316 155 316 155 348 169 c 1,28,29
 393 191 393 191 414.5 244.5 c 128,-1,30
 436 298 436 298 422.5 352.5 c 128,-1,31
 409 407 409 407 363 433 c 0,32,33
 336 448 336 448 281 448 c 1,18,19
141 734 m 1,34,35
 162 733 162 733 235 736.5 c 128,-1,36
 308 740 308 740 358 736.5 c 128,-1,37
 408 733 408 733 449 718 c 0,38,39
 506 696 506 696 525 642.5 c 128,-1,40
 544 589 544 589 509 538 c 0,41,42
 500 525 500 525 486 513.5 c 128,-1,43
 472 502 472 502 463 496 c 128,-1,44
 454 490 454 490 433.5 479 c 128,-1,45
 413 468 413 468 406 464 c 1,46,47
 458 455 458 455 490 415.5 c 128,-1,48
 522 376 522 376 528 328 c 128,-1,49
 534 280 534 280 516 231 c 128,-1,50
 498 182 498 182 457 155 c 0,51,52
 430 138 430 138 392 130.5 c 128,-1,53
 354 123 354 123 329.5 123 c 128,-1,54
 305 123 305 123 255.5 127 c 128,-1,55
 206 131 206 131 191 132 c 0,56,57
 161 133 161 133 104.5 128.5 c 128,-1,58
 48 124 48 124 23 124 c 1,59,-1
 23 155 l 1,60,61
 26 155 26 155 39.5 155 c 128,-1,62
 53 155 53 155 58.5 155.5 c 128,-1,63
 64 156 64 156 74 157 c 128,-1,64
 84 158 84 158 91.5 162 c 128,-1,65
 99 166 99 166 105 172 c 0,66,67
 113 181 113 181 120 195.5 c 128,-1,68
 127 210 127 210 129.5 220 c 128,-1,69
 132 230 132 230 136 251 c 128,-1,70
 140 272 140 272 141 277 c 2,71,-1
 198 530 l 2,72,73
 200 540 200 540 207.5 564 c 128,-1,74
 215 588 215 588 219.5 604.5 c 128,-1,75
 224 621 224 621 227 645 c 128,-1,76
 230 669 230 669 224 678 c 1,77,78
 220 687 220 687 213.5 692.5 c 128,-1,79
 207 698 207 698 194.5 700 c 128,-1,80
 182 702 182 702 176 702.5 c 128,-1,81
 170 703 170 703 153.5 702.5 c 128,-1,82
 137 702 137 702 137 702 c 1,83,-1
 141 734 l 1,34,35
EndSplineSet
EndChar

StartChar: C
Encoding: 67 67 38
Width: 615
Flags: W
LayerCount: 2
Fore
SplineSet
609 277 m 1,0,1
 590 195 590 195 568 174 c 0,2,3
 563 168 563 168 555.5 163 c 128,-1,4
 548 158 548 158 537.5 154 c 128,-1,5
 527 150 527 150 520 147.5 c 128,-1,6
 513 145 513 145 500.5 141 c 128,-1,7
 488 137 488 137 484 136 c 0,8,9
 435 120 435 120 383.5 116.5 c 128,-1,10
 332 113 332 113 280 126.5 c 128,-1,11
 228 140 228 140 188 170 c 0,12,13
 128 215 128 215 106.5 290.5 c 128,-1,14
 85 366 85 366 99 445 c 0,15,16
 120 556 120 556 203 635.5 c 128,-1,17
 286 715 286 715 398 737 c 0,18,19
 520 762 520 762 625 717 c 0,20,21
 626 716 626 716 632 713.5 c 128,-1,22
 638 711 638 711 640.5 710 c 128,-1,23
 643 709 643 709 649 706.5 c 128,-1,24
 655 704 655 704 657.5 702 c 128,-1,25
 660 700 660 700 665.5 697.5 c 128,-1,26
 671 695 671 695 674 692.5 c 128,-1,27
 677 690 677 690 680.5 687 c 128,-1,28
 684 684 684 684 686.5 681 c 128,-1,29
 689 678 689 678 691 674 c 1,30,31
 695 656 695 656 693 640.5 c 128,-1,32
 691 625 691 625 684 597.5 c 128,-1,33
 677 570 677 570 676 562 c 1,34,-1
 648 562 l 1,35,36
 648 606 648 606 627.5 639 c 128,-1,37
 607 672 607 672 574.5 687 c 128,-1,38
 542 702 542 702 502 705.5 c 128,-1,39
 462 709 462 709 422 694 c 1,40,41
 361 675 361 675 313 625 c 128,-1,42
 265 575 265 575 238 511 c 0,43,44
 219 467 219 467 211.5 423 c 128,-1,45
 204 379 204 379 210.5 331.5 c 128,-1,46
 217 284 217 284 240 245 c 0,47,48
 271 193 271 193 319.5 172.5 c 128,-1,49
 368 152 368 152 416.5 162 c 128,-1,50
 465 172 465 172 510 204.5 c 128,-1,51
 555 237 555 237 582 284 c 1,52,-1
 609 277 l 1,0,1
EndSplineSet
EndChar

StartChar: D
Encoding: 68 68 39
Width: 677
Flags: W
LayerCount: 2
Fore
SplineSet
332 695 m 1,0,1
 322 622 322 622 290 490.5 c 128,-1,2
 258 359 258 359 250 320 c 0,3,4
 248 312 248 312 242 288 c 128,-1,5
 236 264 236 264 232 246.5 c 128,-1,6
 228 229 228 229 228 208.5 c 128,-1,7
 228 188 228 188 235 176 c 0,8,9
 248 155 248 155 309 155 c 0,10,11
 432 155 432 155 500 209 c 0,12,13
 555 253 555 253 580.5 333.5 c 128,-1,14
 606 414 606 414 593 498 c 128,-1,15
 580 582 580 582 531 631 c 0,16,17
 494 668 494 668 445 681.5 c 128,-1,18
 396 695 396 695 332 695 c 1,0,1
102 734 m 1,19,20
 131 734 131 734 193.5 736 c 128,-1,21
 256 738 256 738 297.5 738 c 128,-1,22
 339 738 339 738 393 734 c 128,-1,23
 447 730 447 730 493.5 717 c 128,-1,24
 540 704 540 704 578 681 c 0,25,26
 645 641 645 641 678 570 c 128,-1,27
 711 499 711 499 707 425 c 128,-1,28
 703 351 703 351 665 281 c 128,-1,29
 627 211 627 211 562 173 c 0,30,31
 525 151 525 151 475 139.5 c 128,-1,32
 425 128 425 128 390.5 126 c 128,-1,33
 356 124 356 124 297 124 c 2,34,-1
 8 124 l 1,35,-1
 8 155 l 1,36,37
 12 155 12 155 25 155 c 128,-1,38
 38 155 38 155 45 155 c 128,-1,39
 52 155 52 155 62.5 156.5 c 128,-1,40
 73 158 73 158 81.5 161 c 128,-1,41
 90 164 90 164 97 170 c 0,42,43
 106 177 106 177 113 190.5 c 128,-1,44
 120 204 120 204 123 214.5 c 128,-1,45
 126 225 126 225 130 245 c 128,-1,46
 134 265 134 265 135 269 c 0,47,48
 158 361 158 361 192 530 c 0,49,50
 208 610 208 610 213 640 c 0,51,52
 213 642 213 642 215 650.5 c 128,-1,53
 217 659 217 659 217.5 663.5 c 128,-1,54
 218 668 218 668 217.5 675 c 128,-1,55
 217 682 217 682 215 686 c 0,56,57
 210 695 210 695 194 700 c 128,-1,58
 178 705 178 705 160.5 705.5 c 128,-1,59
 143 706 143 706 125 706.5 c 128,-1,60
 107 707 107 707 98 706 c 1,61,-1
 102 734 l 1,19,20
EndSplineSet
EndChar

StartChar: E
Encoding: 69 69 40
Width: 479
Flags: W
LayerCount: 2
Fore
SplineSet
16 128 m 1,0,-1
 16 124 l 1,1,-1
 406 124 l 1,2,-1
 281 132 l 1,3,-1
 16 128 l 1,0,-1
105 734 m 1,4,-1
 531 734 l 1,5,-1
 520 632 l 1,6,-1
 492 632 l 1,7,8
 492 652 492 652 486.5 666 c 128,-1,9
 481 680 481 680 473.5 687 c 128,-1,10
 466 694 466 694 450.5 697.5 c 128,-1,11
 435 701 435 701 424 701.5 c 128,-1,12
 413 702 413 702 391 702 c 0,13,14
 387 702 387 702 377.5 703 c 128,-1,15
 368 704 368 704 361.5 704 c 128,-1,16
 355 704 355 704 347 702 c 128,-1,17
 339 700 339 700 335 696 c 0,18,19
 329 690 329 690 325 680.5 c 128,-1,20
 321 671 321 671 318.5 654.5 c 128,-1,21
 316 638 316 638 315 636 c 0,22,23
 279 493 279 493 277 484 c 1,24,25
 285 484 285 484 304 483 c 128,-1,26
 323 482 323 482 334 482 c 128,-1,27
 345 482 345 482 360.5 484.5 c 128,-1,28
 376 487 376 487 386.5 493 c 128,-1,29
 397 499 397 499 404.5 509 c 128,-1,30
 412 519 412 519 416 526.5 c 128,-1,31
 420 534 420 534 429 540 c 128,-1,32
 438 546 438 546 453 546 c 1,33,34
 452 541 452 541 447 515.5 c 128,-1,35
 442 490 442 490 438 472.5 c 128,-1,36
 434 455 434 455 426.5 434 c 128,-1,37
 419 413 419 413 408 401.5 c 128,-1,38
 397 390 397 390 383 390 c 1,39,40
 383 392 383 392 385 402 c 128,-1,41
 387 412 387 412 387 417.5 c 128,-1,42
 387 423 387 423 386 430.5 c 128,-1,43
 385 438 385 438 380 442 c 1,44,45
 369 455 369 455 324.5 456 c 128,-1,46
 280 457 280 457 270 443 c 0,47,48
 264 434 264 434 260 419.5 c 128,-1,49
 256 405 256 405 253 384.5 c 128,-1,50
 250 364 250 364 249 359 c 0,51,52
 219 217 219 217 207 171 c 1,53,54
 221 171 221 171 266.5 166.5 c 128,-1,55
 312 162 312 162 343.5 165 c 128,-1,56
 375 168 375 168 398 183 c 1,57,58
 422 197 422 197 454 244 c 0,59,60
 456 248 456 248 457 249 c 1,61,-1
 484 241 l 2,62,63
 484 240 484 240 476.5 215 c 128,-1,64
 469 190 469 190 464.5 178.5 c 128,-1,65
 460 167 460 167 451 150.5 c 128,-1,66
 442 134 442 134 432 128 c 1,67,68
 414 122 414 122 398 123 c 128,-1,69
 382 124 382 124 353.5 128 c 128,-1,70
 325 132 325 132 316 132 c 0,71,72
 294 132 294 132 240.5 132.5 c 128,-1,73
 187 133 187 133 157.5 133 c 128,-1,74
 128 133 128 133 84 131 c 128,-1,75
 40 129 40 129 4 124 c 1,76,-1
 0 155 l 1,77,78
 4 157 4 157 37.5 160.5 c 128,-1,79
 71 164 71 164 85 177 c 0,80,81
 94 185 94 185 101.5 199.5 c 128,-1,82
 109 214 109 214 111.5 224 c 128,-1,83
 114 234 114 234 118.5 254.5 c 128,-1,84
 123 275 123 275 125 280 c 0,85,86
 154 397 154 397 184 530 c 0,87,88
 195 579 195 579 208 644 c 0,89,90
 208 645 208 645 209 651 c 128,-1,91
 210 657 210 657 210.5 659.5 c 128,-1,92
 211 662 211 662 211.5 667 c 128,-1,93
 212 672 212 672 212 675.5 c 128,-1,94
 212 679 212 679 210.5 683 c 128,-1,95
 209 687 209 687 207 690 c 0,96,97
 201 698 201 698 186 702.5 c 128,-1,98
 171 707 171 707 159 707.5 c 128,-1,99
 147 708 147 708 125.5 707 c 128,-1,100
 104 706 104 706 102 706 c 1,101,-1
 105 734 l 1,4,-1
EndSplineSet
EndChar

StartChar: F
Encoding: 70 70 41
Width: 458
Flags: W
LayerCount: 2
Fore
SplineSet
133 730 m 1,0,-1
 566 734 l 1,1,-1
 547 644 l 1,2,-1
 516 644 l 1,3,4
 515 675 515 675 483.5 692 c 128,-1,5
 452 709 452 709 413.5 707.5 c 128,-1,6
 375 706 375 706 352 689 c 0,7,8
 349 687 349 687 346.5 684 c 128,-1,9
 344 681 344 681 342 679 c 128,-1,10
 340 677 340 677 338 673.5 c 128,-1,11
 336 670 336 670 334.5 667.5 c 128,-1,12
 333 665 333 665 331.5 661 c 128,-1,13
 330 657 330 657 329.5 655 c 128,-1,14
 329 653 329 653 327.5 648 c 128,-1,15
 326 643 326 643 326 641.5 c 128,-1,16
 326 640 326 640 324.5 634.5 c 128,-1,17
 323 629 323 629 323 628 c 0,18,19
 320 616 320 616 312 585 c 128,-1,20
 304 554 304 554 299.5 531.5 c 128,-1,21
 295 509 295 509 293 488 c 1,22,23
 299 488 299 488 326 486 c 128,-1,24
 353 484 353 484 371 485.5 c 128,-1,25
 389 487 389 487 402 494 c 0,26,27
 414 500 414 500 423 511.5 c 128,-1,28
 432 523 432 523 441.5 530.5 c 128,-1,29
 451 538 451 538 469 538 c 1,30,-1
 442 437 l 1,31,-1
 429 388 l 1,32,-1
 398 382 l 1,33,34
 399 386 399 386 400 395 c 128,-1,35
 401 404 401 404 401.5 410 c 128,-1,36
 402 416 402 416 401 423 c 128,-1,37
 400 430 400 430 396 436 c 0,38,39
 384 450 384 450 338.5 452 c 128,-1,40
 293 454 293 454 281 439 c 0,41,42
 275 431 275 431 271.5 417 c 128,-1,43
 268 403 268 403 265 384 c 128,-1,44
 262 365 262 365 260 359 c 0,45,46
 254 334 254 334 239.5 266.5 c 128,-1,47
 225 199 225 199 215 163 c 1,48,-1
 320 159 l 1,49,50
 317 149 317 149 311 142 c 128,-1,51
 305 135 305 135 300 132 c 128,-1,52
 295 129 295 129 284 128 c 128,-1,53
 273 127 273 127 268 127.5 c 128,-1,54
 263 128 263 128 248.5 129.5 c 128,-1,55
 234 131 234 131 230 131 c 1,56,57
 213 136 213 136 123 132 c 128,-1,58
 33 128 33 128 16 128 c 1,59,60
 18 147 18 147 27 153 c 128,-1,61
 36 159 36 159 54 160 c 128,-1,62
 72 161 72 161 82 164 c 0,63,64
 110 175 110 175 125 214 c 1,65,66
 151 288 151 288 182 449 c 128,-1,67
 213 610 213 610 242 687 c 1,68,-1
 129 702 l 1,69,-1
 133 730 l 1,0,-1
12 128 m 1,70,-1
 16 124 l 1,71,-1
 12 128 l 1,70,-1
EndSplineSet
EndChar

StartChar: G
Encoding: 71 71 42
Width: 635
Flags: W
LayerCount: 2
Fore
SplineSet
613 222 m 1,0,1
 613 208 613 208 605.5 195.5 c 128,-1,2
 598 183 598 183 589 175.5 c 128,-1,3
 580 168 580 168 563 160 c 128,-1,4
 546 152 546 152 536 148.5 c 128,-1,5
 526 145 526 145 509 139 c 0,6,7
 503 137 503 137 500 136 c 0,8,9
 439 116 439 116 379 113 c 128,-1,10
 319 110 319 110 259 131 c 128,-1,11
 199 152 199 152 156 198 c 0,12,13
 108 251 108 251 94 323.5 c 128,-1,14
 80 396 80 396 96.5 465 c 128,-1,15
 113 534 113 534 154.5 596 c 128,-1,16
 196 658 196 658 254 693 c 0,17,18
 322 734 322 734 399 744.5 c 128,-1,19
 476 755 476 755 548.5 738.5 c 128,-1,20
 621 722 621 722 691 683 c 1,21,-1
 660 570 l 1,22,-1
 637 570 l 1,23,24
 637 625 637 625 606.5 659.5 c 128,-1,25
 576 694 576 694 531 702.5 c 128,-1,26
 486 711 486 711 436.5 702.5 c 128,-1,27
 387 694 387 694 348 670 c 0,28,29
 291 636 291 636 252.5 570.5 c 128,-1,30
 214 505 214 505 203 434 c 128,-1,31
 192 363 192 363 216 293 c 128,-1,32
 240 223 240 223 301 183 c 0,33,34
 313 175 313 175 324.5 169 c 128,-1,35
 336 163 336 163 351.5 160.5 c 128,-1,36
 367 158 367 158 374.5 156 c 128,-1,37
 382 154 382 154 402 154.5 c 128,-1,38
 422 155 422 155 426 155 c 128,-1,39
 430 155 430 155 454.5 157 c 128,-1,40
 479 159 479 159 480 159 c 0,41,42
 482 170 482 170 488.5 193 c 128,-1,43
 495 216 495 216 498 232.5 c 128,-1,44
 501 249 501 249 500.5 266 c 128,-1,45
 500 283 500 283 487.5 290.5 c 128,-1,46
 475 298 475 298 449 294 c 0,47,48
 445 294 445 294 433 292 c 128,-1,49
 421 290 421 290 414 288 c 1,50,-1
 418 320 l 1,51,-1
 652 339 l 1,52,53
 652 323 652 323 646.5 317 c 128,-1,54
 641 311 641 311 629.5 306.5 c 128,-1,55
 618 302 618 302 611 295 c 0,56,57
 598 282 598 282 594 257.5 c 128,-1,58
 590 233 590 233 594 214 c 1,59,-1
 613 222 l 1,0,1
EndSplineSet
EndChar

StartChar: H
Encoding: 72 72 43
Width: 708
Flags: W
LayerCount: 2
Fore
SplineSet
47 128 m 1,0,-1
 47 124 l 1,1,-1
 262 124 l 1,2,-1
 191 128 l 1,3,-1
 47 128 l 1,0,-1
133 702 m 1,4,5
 133 713 133 713 137 719.5 c 128,-1,6
 141 726 141 726 149.5 728 c 128,-1,7
 158 730 158 730 163.5 730.5 c 128,-1,8
 169 731 169 731 182 730.5 c 128,-1,9
 195 730 195 730 199 730 c 2,10,-1
 410 730 l 1,11,-1
 406 702 l 1,12,-1
 341 685 l 1,13,-1
 316 620 l 1,14,-1
 281 468 l 1,15,-1
 555 468 l 1,16,17
 559 499 559 499 573 557.5 c 128,-1,18
 587 616 587 616 589 624 c 0,19,20
 589 626 589 626 592.5 638.5 c 128,-1,21
 596 651 596 651 596.5 656.5 c 128,-1,22
 597 662 597 662 596.5 671 c 128,-1,23
 596 680 596 680 591 686 c 0,24,25
 589 689 589 689 585 692 c 128,-1,26
 581 695 581 695 577.5 696.5 c 128,-1,27
 574 698 574 698 568.5 699.5 c 128,-1,28
 563 701 563 701 560 701.5 c 128,-1,29
 557 702 557 702 550.5 702 c 128,-1,30
 544 702 544 702 541 702 c 128,-1,31
 538 702 538 702 531.5 702 c 128,-1,32
 525 702 525 702 523 702 c 1,33,-1
 527 730 l 1,34,-1
 789 730 l 1,35,-1
 789 702 l 1,36,37
 773 702 773 702 760 699 c 128,-1,38
 747 696 747 696 738 692 c 128,-1,39
 729 688 729 688 721 678.5 c 128,-1,40
 713 669 713 669 708.5 662.5 c 128,-1,41
 704 656 704 656 699 641.5 c 128,-1,42
 694 627 694 627 692 620 c 128,-1,43
 690 613 690 613 686 595 c 128,-1,44
 682 577 682 577 680 570 c 0,45,46
 677 558 677 558 663.5 504.5 c 128,-1,47
 650 451 650 451 645.5 432.5 c 128,-1,48
 641 414 641 414 631 368 c 128,-1,49
 621 322 621 322 616 295 c 128,-1,50
 611 268 611 268 605.5 230 c 128,-1,51
 600 192 600 192 598 159 c 1,52,-1
 684 152 l 1,53,-1
 680 128 l 1,54,-1
 410 124 l 1,55,56
 411 139 411 139 421 147.5 c 128,-1,57
 431 156 431 156 442.5 159.5 c 128,-1,58
 454 163 454 163 467 170.5 c 128,-1,59
 480 178 480 178 486 191 c 0,60,61
 521 259 521 259 543 425 c 1,62,-1
 352 433 l 1,63,-1
 278 429 l 1,64,-1
 254 359 l 1,65,-1
 215 159 l 1,66,-1
 293 152 l 1,67,-1
 289 124 l 1,68,-1
 16 124 l 1,69,70
 16 141 16 141 28 149.5 c 128,-1,71
 40 158 40 158 55 160 c 128,-1,72
 70 162 70 162 86 170 c 128,-1,73
 102 178 102 178 109 195 c 0,74,75
 129 243 129 243 143.5 301.5 c 128,-1,76
 158 360 158 360 172 439 c 128,-1,77
 186 518 186 518 193 550 c 0,78,79
 195 558 195 558 201 579.5 c 128,-1,80
 207 601 207 601 210.5 615 c 128,-1,81
 214 629 214 629 216.5 650.5 c 128,-1,82
 219 672 219 672 214 679 c 1,83,84
 210 687 210 687 203.5 692.5 c 128,-1,85
 197 698 197 698 186 700 c 128,-1,86
 175 702 175 702 169.5 702.5 c 128,-1,87
 164 703 164 703 149 702.5 c 128,-1,88
 134 702 134 702 133 702 c 1,4,5
EndSplineSet
EndChar

StartChar: I
Encoding: 73 73 44
Width: 354
Flags: W
LayerCount: 2
Fore
SplineSet
141 706 m 1,0,-1
 145 702 l 1,1,-1
 141 706 l 1,0,-1
148 734 m 1,2,-1
 430 734 l 1,3,-1
 430 706 l 1,4,5
 369 706 369 706 346 678 c 0,6,7
 338 669 338 669 332 653 c 128,-1,8
 326 637 326 637 323.5 625 c 128,-1,9
 321 613 321 613 317 592.5 c 128,-1,10
 313 572 313 572 312 566 c 0,11,12
 293 481 293 481 257 331 c 0,13,14
 257 329 257 329 251 307 c 128,-1,15
 245 285 245 285 242.5 272.5 c 128,-1,16
 240 260 240 260 236.5 240 c 128,-1,17
 233 220 233 220 234 206 c 128,-1,18
 235 192 235 192 239 183 c 0,19,20
 248 166 248 166 271 159.5 c 128,-1,21
 294 153 294 153 315 155.5 c 128,-1,22
 336 158 336 158 355 163 c 1,23,-1
 371 136 l 1,24,25
 349 129 349 129 323 127 c 128,-1,26
 297 125 297 125 279 125.5 c 128,-1,27
 261 126 261 126 230 128.5 c 128,-1,28
 199 131 199 131 184 132 c 0,29,30
 155 133 155 133 101 130.5 c 128,-1,31
 47 128 47 128 27 128 c 1,32,-1
 31 155 l 1,33,34
 90 155 90 155 112 179 c 0,35,36
 121 188 121 188 127.5 202.5 c 128,-1,37
 134 217 134 217 136.5 228 c 128,-1,38
 139 239 139 239 143 258.5 c 128,-1,39
 147 278 147 278 148 284 c 2,40,-1
 204 534 l 2,41,42
 206 544 206 544 213 566.5 c 128,-1,43
 220 589 220 589 224 604.5 c 128,-1,44
 228 620 228 620 231 642.5 c 128,-1,45
 234 665 234 665 228 675 c 1,46,47
 222 688 222 688 205 695.5 c 128,-1,48
 188 703 188 703 176.5 704 c 128,-1,49
 165 705 165 705 145 706 c 1,50,-1
 148 734 l 1,2,-1
EndSplineSet
EndChar

StartChar: J
Encoding: 74 74 45
Width: 333
Flags: W
LayerCount: 2
Fore
SplineSet
141 730 m 1,0,-1
 410 730 l 1,1,2
 406 711 406 711 396 705.5 c 128,-1,3
 386 700 386 700 370.5 697.5 c 128,-1,4
 355 695 355 695 345 685 c 1,5,6
 337 679 337 679 331.5 667.5 c 128,-1,7
 326 656 326 656 324 648.5 c 128,-1,8
 322 641 322 641 318.5 624.5 c 128,-1,9
 315 608 315 608 314 605 c 0,10,11
 274 442 274 442 227 222 c 0,12,13
 224 211 224 211 218 181 c 128,-1,14
 212 151 212 151 209.5 138 c 128,-1,15
 207 125 207 125 200.5 99.5 c 128,-1,16
 194 74 194 74 188.5 57.5 c 128,-1,17
 183 41 183 41 174 19.5 c 128,-1,18
 165 -2 165 -2 155 -20 c 0,19,20
 108 -107 108 -107 20 -138 c 1,21,22
 -27 -152 -27 -152 -42 -147 c 0,23,24
 -48 -144 -48 -144 -54 -138 c 128,-1,25
 -60 -132 -60 -132 -66.5 -123 c 128,-1,26
 -73 -114 -73 -114 -77 -107 c 128,-1,27
 -81 -100 -81 -100 -86.5 -88.5 c 128,-1,28
 -92 -77 -92 -77 -94 -75 c 1,29,30
 -77 -73 -77 -73 -55 -83 c 128,-1,31
 -33 -93 -33 -93 -19.5 -99 c 128,-1,32
 -6 -105 -6 -105 20 -95 c 1,33,34
 34 -86 34 -86 46 -70.5 c 128,-1,35
 58 -55 58 -55 65.5 -41 c 128,-1,36
 73 -27 73 -27 80 -2 c 128,-1,37
 87 23 87 23 90 35.5 c 128,-1,38
 93 48 93 48 98.5 75.5 c 128,-1,39
 104 103 104 103 105 109 c 0,40,41
 182 467 182 467 227 624 c 1,42,43
 218 631 218 631 220 648 c 128,-1,44
 222 665 222 665 220 675 c 1,45,46
 216 683 216 683 210 688.5 c 128,-1,47
 204 694 204 694 193 696 c 128,-1,48
 182 698 182 698 177 698.5 c 128,-1,49
 172 699 172 699 156.5 698.5 c 128,-1,50
 141 698 141 698 141 698 c 1,51,-1
 141 730 l 1,0,-1
EndSplineSet
EndChar

StartChar: K
Encoding: 75 75 46
Width: 625
Flags: W
LayerCount: 2
Fore
SplineSet
508 734 m 1,0,-1
 508 730 l 1,1,-1
 605 730 l 1,2,-1
 508 734 l 1,0,-1
148 706 m 1,3,4
 149 715 149 715 151.5 720.5 c 128,-1,5
 154 726 154 726 157.5 729 c 128,-1,6
 161 732 161 732 168 733 c 128,-1,7
 175 734 175 734 179.5 734 c 128,-1,8
 184 734 184 734 193.5 734 c 128,-1,9
 203 734 203 734 207 734 c 2,10,-1
 383 734 l 1,11,-1
 383 706 l 1,12,13
 361 704 361 704 344.5 687 c 128,-1,14
 328 670 328 670 318 642 c 128,-1,15
 308 614 308 614 302 588 c 128,-1,16
 296 562 296 562 290.5 531 c 128,-1,17
 285 500 285 500 281 488 c 1,18,19
 401 580 401 580 453 632 c 0,20,21
 468 647 468 647 475.5 656.5 c 128,-1,22
 483 666 483 666 488.5 678 c 128,-1,23
 494 690 494 690 485 697 c 128,-1,24
 476 704 476 704 453 706 c 1,25,-1
 453 734 l 1,26,-1
 664 734 l 1,27,-1
 664 706 l 1,28,29
 626 705 626 705 588.5 686 c 128,-1,30
 551 667 551 667 526.5 645.5 c 128,-1,31
 502 624 502 624 465.5 588 c 128,-1,32
 429 552 429 552 410 536 c 0,33,34
 407 533 407 533 385 518 c 128,-1,35
 363 503 363 503 348.5 489.5 c 128,-1,36
 334 476 334 476 334 468 c 0,37,38
 334 455 334 455 345 437.5 c 128,-1,39
 356 420 356 420 375 397 c 128,-1,40
 394 374 394 374 397 370 c 0,41,42
 401 364 401 364 416.5 342 c 128,-1,43
 432 320 432 320 438 312 c 128,-1,44
 444 304 444 304 459.5 284 c 128,-1,45
 475 264 475 264 483 255.5 c 128,-1,46
 491 247 491 247 506.5 230.5 c 128,-1,47
 522 214 522 214 533 206 c 128,-1,48
 544 198 544 198 560.5 187 c 128,-1,49
 577 176 577 176 591.5 170.5 c 128,-1,50
 606 165 606 165 624 160.5 c 128,-1,51
 642 156 642 156 660 155 c 1,52,-1
 660 128 l 1,53,54
 645 128 645 128 605 124.5 c 128,-1,55
 565 121 565 121 533.5 122 c 128,-1,56
 502 123 502 123 480 131 c 0,57,58
 471 135 471 135 460.5 143.5 c 128,-1,59
 450 152 450 152 444 158 c 128,-1,60
 438 164 438 164 427 177.5 c 128,-1,61
 416 191 416 191 413 195 c 0,62,63
 405 203 405 203 382 229 c 128,-1,64
 359 255 359 255 346.5 270 c 128,-1,65
 334 285 334 285 316 308 c 128,-1,66
 298 331 298 331 285.5 352 c 128,-1,67
 273 373 273 373 266 394 c 1,68,-1
 262 394 l 1,69,70
 260 384 260 384 253.5 360 c 128,-1,71
 247 336 247 336 242.5 315 c 128,-1,72
 238 294 238 294 233 267.5 c 128,-1,73
 228 241 228 241 229.5 221.5 c 128,-1,74
 231 202 231 202 236.5 185.5 c 128,-1,75
 242 169 242 169 258.5 163 c 128,-1,76
 275 157 275 157 301 163 c 1,77,-1
 301 132 l 1,78,79
 259 124 259 124 210.5 123 c 128,-1,80
 162 122 162 122 98.5 125 c 128,-1,81
 35 128 35 128 8 128 c 1,82,-1
 8 155 l 1,83,84
 10 155 10 155 14 155 c 0,85,86
 35 155 35 155 46 156 c 128,-1,87
 57 157 57 157 73.5 162.5 c 128,-1,88
 90 168 90 168 99 180 c 1,89,90
 111 193 111 193 117.5 212 c 128,-1,91
 124 231 124 231 130.5 262.5 c 128,-1,92
 137 294 137 294 138 300 c 2,93,-1
 199 550 l 2,94,95
 200 554 200 554 204 568.5 c 128,-1,96
 208 583 208 583 210 590.5 c 128,-1,97
 212 598 212 598 215 611.5 c 128,-1,98
 218 625 218 625 219 634.5 c 128,-1,99
 220 644 220 644 220 655 c 128,-1,100
 220 666 220 666 218 675 c 0,101,102
 217 681 217 681 213.5 685.5 c 128,-1,103
 210 690 210 690 205 693 c 128,-1,104
 200 696 200 696 195.5 698 c 128,-1,105
 191 700 191 700 183 701.5 c 128,-1,106
 175 703 175 703 171 703.5 c 128,-1,107
 167 704 167 704 158.5 705 c 128,-1,108
 150 706 150 706 148 706 c 1,3,4
EndSplineSet
EndChar

StartChar: L
Encoding: 76 76 47
Width: 469
Flags: W
LayerCount: 2
Fore
SplineSet
35 128 m 1,0,-1
 35 124 l 1,1,-1
 430 124 l 1,2,-1
 309 128 l 1,3,-1
 35 128 l 1,0,-1
145 730 m 1,4,-1
 426 730 l 1,5,6
 421 714 421 714 408 706.5 c 128,-1,7
 395 699 395 699 381.5 697.5 c 128,-1,8
 368 696 368 696 353 689 c 128,-1,9
 338 682 338 682 330 667 c 0,10,11
 319 647 319 647 312.5 621 c 128,-1,12
 306 595 306 595 300 559.5 c 128,-1,13
 294 524 294 524 290 511 c 0,14,15
 284 485 284 485 264 416.5 c 128,-1,16
 244 348 244 348 234 295.5 c 128,-1,17
 224 243 224 243 227 198 c 0,18,19
 230 155 230 155 305 155 c 0,20,21
 330 155 330 155 355.5 159 c 128,-1,22
 381 163 381 163 407.5 171.5 c 128,-1,23
 434 180 434 180 453.5 198 c 128,-1,24
 473 216 473 216 480 241 c 1,25,-1
 516 230 l 1,26,-1
 472 159 l 1,27,-1
 452 127 l 1,28,-1
 328 128 l 1,29,-1
 12 124 l 1,30,31
 16 141 16 141 29 148.5 c 128,-1,32
 42 156 42 156 57 156 c 128,-1,33
 72 156 72 156 87.5 162 c 128,-1,34
 103 168 103 168 110 183 c 0,35,36
 117 197 117 197 121.5 214.5 c 128,-1,37
 126 232 126 232 131 255.5 c 128,-1,38
 136 279 136 279 138 288 c 0,39,40
 150 337 150 337 170 428 c 128,-1,41
 190 519 190 519 194 538 c 0,42,43
 196 547 196 547 202.5 569 c 128,-1,44
 209 591 209 591 212.5 605 c 128,-1,45
 216 619 216 619 219 641 c 128,-1,46
 222 663 222 663 216 671 c 1,47,48
 213 679 213 679 207.5 684.5 c 128,-1,49
 202 690 202 690 191.5 693.5 c 128,-1,50
 181 697 181 697 176 698 c 128,-1,51
 171 699 171 699 156 700.5 c 128,-1,52
 141 702 141 702 141 702 c 1,53,-1
 145 730 l 1,4,-1
EndSplineSet
EndChar

StartChar: M
Encoding: 77 77 48
Width: 719
Flags: W
LayerCount: 2
Fore
SplineSet
35 132 m 1,0,-1
 35 128 l 1,1,-1
 172 128 l 1,2,-1
 35 132 l 1,0,-1
94 734 m 1,3,4
 124 734 124 734 180.5 730 c 128,-1,5
 237 726 237 726 246 726 c 0,6,7
 250 726 250 726 263 727 c 128,-1,8
 276 728 276 728 286 727 c 128,-1,9
 296 726 296 726 302 722 c 0,10,11
 311 715 311 715 317 697 c 128,-1,12
 323 679 323 679 327 651 c 128,-1,13
 331 623 331 623 332 620 c 0,14,15
 333 615 333 615 346.5 563 c 128,-1,16
 360 511 360 511 364 493.5 c 128,-1,17
 368 476 368 476 377 436 c 128,-1,18
 386 396 386 396 389.5 366.5 c 128,-1,19
 393 337 393 337 395 308 c 1,20,21
 407 321 407 321 423.5 354 c 128,-1,22
 440 387 440 387 441 390 c 0,23,24
 464 430 464 430 558 612 c 0,25,26
 560 617 560 617 573 648 c 128,-1,27
 586 679 586 679 598 698.5 c 128,-1,28
 610 718 610 718 622 726 c 0,29,30
 628 729 628 729 636 730 c 128,-1,31
 644 731 644 731 657 730.5 c 128,-1,32
 670 730 670 730 672 730 c 2,33,-1
 793 730 l 1,34,35
 786 712 786 712 767 707.5 c 128,-1,36
 748 703 748 703 727.5 698.5 c 128,-1,37
 707 694 707 694 699 675 c 0,38,39
 692 659 692 659 688 639.5 c 128,-1,40
 684 620 684 620 681.5 591.5 c 128,-1,41
 679 563 679 563 678 554 c 0,42,43
 659 409 659 409 648 296 c 0,44,45
 647 288 647 288 643.5 268.5 c 128,-1,46
 640 249 640 249 637.5 233.5 c 128,-1,47
 635 218 635 218 635.5 201 c 128,-1,48
 636 184 636 184 643 175 c 0,49,50
 652 163 652 163 665.5 160 c 128,-1,51
 679 157 679 157 703 160 c 128,-1,52
 727 163 727 163 730 163 c 1,53,54
 730 153 730 153 726 145.5 c 128,-1,55
 722 138 722 138 718 135 c 128,-1,56
 714 132 714 132 703 130 c 128,-1,57
 692 128 692 128 687 128 c 128,-1,58
 682 128 682 128 668 128 c 2,59,-1
 465 128 l 1,60,-1
 469 155 l 1,61,62
 488 158 488 158 501 166 c 128,-1,63
 514 174 514 174 521 188 c 128,-1,64
 528 202 528 202 531.5 215 c 128,-1,65
 535 228 535 228 538 249 c 256,66,67
 541 270 541 270 552 346 c 128,-1,68
 563 422 563 422 568.5 472 c 128,-1,69
 574 522 574 522 574 570 c 1,70,-1
 570 570 l 1,71,72
 565 552 565 552 555.5 533 c 128,-1,73
 546 514 546 514 532.5 491 c 128,-1,74
 519 468 519 468 513 456 c 2,75,-1
 403 238 l 2,76,77
 399 230 399 230 391.5 209 c 128,-1,78
 384 188 384 188 378 175 c 128,-1,79
 372 162 372 162 359.5 151 c 128,-1,80
 347 140 347 140 332 140 c 1,81,-1
 299 296 l 1,82,-1
 238 562 l 1,83,-1
 234 562 l 1,84,85
 232 509 232 509 208 409.5 c 128,-1,86
 184 310 184 310 179 284 c 0,87,88
 178 278 178 278 174 261 c 128,-1,89
 170 244 170 244 167.5 233 c 128,-1,90
 165 222 165 222 164 205.5 c 128,-1,91
 163 189 163 189 168 183 c 1,92,93
 171 177 171 177 177 172.5 c 128,-1,94
 183 168 183 168 192 166 c 128,-1,95
 201 164 201 164 207.5 163 c 128,-1,96
 214 162 214 162 224.5 161 c 128,-1,97
 235 160 235 160 238 159 c 1,98,-1
 217 130 l 1,99,-1
 152 132 l 1,100,-1
 20 128 l 1,101,-1
 20 159 l 1,102,103
 21 159 21 159 29.5 159 c 128,-1,104
 38 159 38 159 40.5 159 c 128,-1,105
 43 159 43 159 51 159.5 c 128,-1,106
 59 160 59 160 62.5 160.5 c 128,-1,107
 66 161 66 161 72.5 162.5 c 128,-1,108
 79 164 79 164 83 165.5 c 128,-1,109
 87 167 87 167 92 170 c 128,-1,110
 97 173 97 173 101 177 c 0,111,112
 111 186 111 186 117.5 201.5 c 128,-1,113
 124 217 124 217 130 246.5 c 128,-1,114
 136 276 136 276 137 277 c 0,115,116
 184 452 184 452 197 534 c 0,117,118
 199 544 199 544 204.5 566.5 c 128,-1,119
 210 589 210 589 213.5 606 c 128,-1,120
 217 623 217 623 217 642.5 c 128,-1,121
 217 662 217 662 210 675 c 0,122,123
 193 705 193 705 94 706 c 1,124,-1
 94 734 l 1,3,4
EndSplineSet
EndChar

StartChar: N
Encoding: 78 78 49
Width: 646
Flags: W
LayerCount: 2
Fore
SplineSet
734 734 m 1,0,-1
 738 702 l 1,1,2
 710 702 710 702 690 693.5 c 128,-1,3
 670 685 670 685 657.5 665.5 c 128,-1,4
 645 646 645 646 638.5 629.5 c 128,-1,5
 632 613 632 613 623 581 c 0,6,7
 607 521 607 521 580 407.5 c 128,-1,8
 553 294 553 294 546 269 c 0,9,10
 541 248 541 248 524 152 c 0,11,12
 524 150 524 150 523 143.5 c 128,-1,13
 522 137 522 137 521.5 134 c 128,-1,14
 521 131 521 131 519 126 c 128,-1,15
 517 121 517 121 515 119 c 128,-1,16
 513 117 513 117 509 115 c 128,-1,17
 505 113 505 113 500 113.5 c 128,-1,18
 495 114 495 114 490.5 116.5 c 128,-1,19
 486 119 486 119 482.5 124 c 128,-1,20
 479 129 479 129 477 132.5 c 128,-1,21
 475 136 475 136 472 143 c 128,-1,22
 469 150 469 150 468 152 c 0,23,24
 429 229 429 229 406 269 c 1,25,-1
 343 390 l 2,26,27
 333 408 333 408 311 446 c 128,-1,28
 289 484 289 484 273.5 514.5 c 128,-1,29
 258 545 258 545 250 573 c 1,30,-1
 246 573 l 1,31,32
 240 545 240 545 212.5 440 c 128,-1,33
 185 335 185 335 178 276 c 0,34,35
 178 269 178 269 174 253.5 c 128,-1,36
 170 238 170 238 167.5 227 c 128,-1,37
 165 216 165 216 164 201 c 128,-1,38
 163 186 163 186 168 179 c 1,39,40
 170 174 170 174 173.5 170.5 c 128,-1,41
 177 167 177 167 182.5 165 c 128,-1,42
 188 163 188 163 191.5 161.5 c 128,-1,43
 195 160 195 160 203 158.5 c 128,-1,44
 211 157 211 157 213.5 157 c 128,-1,45
 216 157 216 157 225 156 c 128,-1,46
 234 155 234 155 234 155 c 1,47,-1
 230 128 l 1,48,-1
 4 128 l 1,49,-1
 8 155 l 1,50,51
 40 157 40 157 65 170 c 128,-1,52
 90 183 90 183 106.5 206 c 128,-1,53
 123 229 123 229 134.5 255 c 128,-1,54
 146 281 146 281 154 315.5 c 128,-1,55
 162 350 162 350 166.5 378 c 128,-1,56
 171 406 171 406 176.5 440.5 c 128,-1,57
 182 475 182 475 187 495 c 0,58,59
 189 503 189 503 199.5 537 c 128,-1,60
 210 571 210 571 214.5 596 c 128,-1,61
 219 621 219 621 214 637 c 0,62,63
 204 669 204 669 166 685.5 c 128,-1,64
 128 702 128 702 90 702 c 1,65,-1
 90 730 l 1,66,-1
 223 730 l 1,67,-1
 275 726 l 1,68,-1
 338 612 l 1,69,-1
 429 437 l 1,70,-1
 508 280 l 1,71,-1
 512 280 l 1,72,73
 518 329 518 329 550 431.5 c 128,-1,74
 582 534 582 534 587 589 c 0,75,76
 588 597 588 597 593.5 618 c 128,-1,77
 599 639 599 639 601 650.5 c 128,-1,78
 603 662 603 662 598 678 c 1,79,80
 593 685 593 685 584 690 c 128,-1,81
 575 695 575 695 567.5 696.5 c 128,-1,82
 560 698 560 698 547.5 700 c 128,-1,83
 535 702 535 702 531 702 c 1,84,-1
 535 730 l 1,85,86
 552 730 552 730 596.5 727 c 128,-1,87
 641 724 641 724 674.5 725 c 128,-1,88
 708 726 708 726 734 734 c 1,0,-1
EndSplineSet
EndChar

StartChar: O
Encoding: 79 79 50
Width: 667
Flags: W
LayerCount: 2
Fore
SplineSet
418 712 m 0,0,1
 370 705 370 705 331 676.5 c 128,-1,2
 292 648 292 648 267.5 608.5 c 128,-1,3
 243 569 243 569 227 519.5 c 128,-1,4
 211 470 211 470 205 423.5 c 128,-1,5
 199 377 199 377 199 331 c 0,6,7
 200 250 200 250 248 196 c 128,-1,8
 296 142 296 142 375 153 c 0,9,10
 423 159 423 159 462.5 189 c 128,-1,11
 502 219 502 219 526.5 261.5 c 128,-1,12
 551 304 551 304 566.5 355.5 c 128,-1,13
 582 407 582 407 587.5 456.5 c 128,-1,14
 593 506 593 506 589 550 c 1,15,16
 584 625 584 625 537 674.5 c 128,-1,17
 490 724 490 724 418 712 c 0,0,1
406 744 m 0,18,19
 468 752 468 752 524.5 732.5 c 128,-1,20
 581 713 581 713 621 674.5 c 128,-1,21
 661 636 661 636 683.5 580.5 c 128,-1,22
 706 525 706 525 703 464 c 0,23,24
 700 386 700 386 662 312 c 128,-1,25
 624 238 624 238 558 186.5 c 128,-1,26
 492 135 492 135 414 124 c 1,27,28
 340 115 340 115 281 127 c 0,29,30
 235 137 235 137 197.5 163 c 128,-1,31
 160 189 160 189 137.5 226 c 128,-1,32
 115 263 115 263 102.5 306 c 128,-1,33
 90 349 90 349 91 395 c 128,-1,34
 92 441 92 441 104 484 c 1,35,36
 136 589 136 589 217 659 c 128,-1,37
 298 729 298 729 406 744 c 0,18,19
EndSplineSet
EndChar

StartChar: P
Encoding: 80 80 51
Width: 521
Flags: W
LayerCount: 2
Fore
SplineSet
125 702 m 1,0,1
 132 719 132 719 152.5 726.5 c 128,-1,2
 173 734 173 734 191 734 c 128,-1,3
 209 734 209 734 239 732 c 128,-1,4
 269 730 269 730 277 730 c 0,5,6
 282 730 282 730 310 730 c 128,-1,7
 338 730 338 730 346.5 730 c 128,-1,8
 355 730 355 730 381 728.5 c 128,-1,9
 407 727 407 727 418.5 724.5 c 128,-1,10
 430 722 430 722 451 716.5 c 128,-1,11
 472 711 472 711 484.5 703.5 c 128,-1,12
 497 696 497 696 511.5 685 c 128,-1,13
 526 674 526 674 537 659 c 0,14,15
 558 630 558 630 564 598 c 128,-1,16
 570 566 570 566 562 538.5 c 128,-1,17
 554 511 554 511 536.5 486 c 128,-1,18
 519 461 519 461 492.5 443.5 c 128,-1,19
 466 426 466 426 437 416 c 128,-1,20
 408 406 408 406 375 407 c 128,-1,21
 342 408 342 408 312 421 c 1,22,-1
 316 448 l 1,23,24
 352 440 352 440 383.5 454 c 128,-1,25
 415 468 415 468 432 495.5 c 128,-1,26
 449 523 449 523 455.5 557.5 c 128,-1,27
 462 592 462 592 449 624 c 0,28,29
 438 652 438 652 408.5 677 c 128,-1,30
 379 702 379 702 352 694 c 0,31,32
 347 693 347 693 344 690 c 128,-1,33
 341 687 341 687 339 682 c 128,-1,34
 337 677 337 677 336.5 673.5 c 128,-1,35
 336 670 336 670 334.5 663.5 c 128,-1,36
 333 657 333 657 333 655 c 0,37,38
 329 636 329 636 303 534 c 0,39,40
 238 273 238 273 237 269 c 0,41,42
 236 263 236 263 231 248 c 128,-1,43
 226 233 226 233 223 222 c 128,-1,44
 220 211 220 211 217.5 196 c 128,-1,45
 215 181 215 181 220 177 c 1,46,47
 228 161 228 161 255 156.5 c 128,-1,48
 282 152 282 152 304.5 155 c 128,-1,49
 327 158 327 158 348 163 c 1,50,51
 347 149 347 149 342 140.5 c 128,-1,52
 337 132 337 132 325 129 c 128,-1,53
 313 126 313 126 304.5 125 c 128,-1,54
 296 124 296 124 280 124 c 0,55,56
 275 124 275 124 273 124 c 0,57,58
 246 124 246 124 197 126.5 c 128,-1,59
 148 129 148 129 108 129 c 128,-1,60
 68 129 68 129 31 124 c 1,61,-1
 31 152 l 1,62,63
 49 154 49 154 58.5 155.5 c 128,-1,64
 68 157 68 157 81.5 163 c 128,-1,65
 95 169 95 169 103 179 c 0,66,67
 112 190 112 190 119 205.5 c 128,-1,68
 126 221 126 221 129 232.5 c 128,-1,69
 132 244 132 244 136 264 c 128,-1,70
 140 284 140 284 142 292 c 2,71,-1
 201 538 l 2,72,73
 202 546 202 546 207.5 563 c 128,-1,74
 213 580 213 580 216.5 595 c 128,-1,75
 220 610 220 610 223.5 627 c 128,-1,76
 227 644 227 644 226 658.5 c 128,-1,77
 225 673 225 673 219 683 c 256,78,79
 213 693 213 693 200 698 c 128,-1,80
 187 703 187 703 177.5 703.5 c 128,-1,81
 168 704 168 704 148 703 c 128,-1,82
 128 702 128 702 125 702 c 1,0,1
EndSplineSet
EndChar

StartChar: Q
Encoding: 81 81 52
Width: 677
Flags: W
LayerCount: 2
Fore
SplineSet
363 120 m 1,0,1
 289 120 289 120 246 138 c 0,2,3
 180 164 180 164 141 214 c 128,-1,4
 102 264 102 264 93.5 321.5 c 128,-1,5
 85 379 85 379 97.5 442.5 c 128,-1,6
 110 506 110 506 141.5 561 c 128,-1,7
 173 616 173 616 221 660.5 c 128,-1,8
 269 705 269 705 324 726 c 1,9,10
 378 745 378 745 433.5 744.5 c 128,-1,11
 489 744 489 744 534.5 725 c 128,-1,12
 580 706 580 706 619 673 c 128,-1,13
 658 640 658 640 679 595 c 128,-1,14
 700 550 700 550 707 497.5 c 128,-1,15
 714 445 714 445 695 386 c 1,16,17
 683 345 683 345 662.5 307 c 128,-1,18
 642 269 642 269 620.5 239.5 c 128,-1,19
 599 210 599 210 565 179 c 128,-1,20
 531 148 531 148 505.5 127.5 c 128,-1,21
 480 107 480 107 436.5 79.5 c 128,-1,22
 393 52 393 52 368.5 37.5 c 128,-1,23
 344 23 344 23 296 -4 c 0,24,25
 286 -10 286 -10 281 -12 c 1,26,27
 288 -14 288 -14 302 -17 c 0,28,29
 357 -30 357 -30 386.5 -36 c 128,-1,30
 416 -42 416 -42 461.5 -47.5 c 128,-1,31
 507 -53 507 -53 547.5 -50 c 128,-1,32
 588 -47 588 -47 629 -36 c 0,33,34
 649 -30 649 -30 670 -21 c 128,-1,35
 691 -12 691 -12 715 0 c 128,-1,36
 739 12 739 12 754 19 c 1,37,-1
 766 3 l 1,38,-1
 766 -1 l 1,39,40
 687 -79 687 -79 584 -105 c 128,-1,41
 481 -131 481 -131 375 -98 c 0,42,43
 350 -90 350 -90 309.5 -66 c 128,-1,44
 269 -42 269 -42 251 -35 c 0,45,46
 242 -31 242 -31 222 -37.5 c 128,-1,47
 202 -44 202 -44 182.5 -52 c 128,-1,48
 163 -60 163 -60 144.5 -64 c 128,-1,49
 126 -68 126 -68 116.5 -58 c 128,-1,50
 107 -48 107 -48 111 -20 c 0,51,52
 114 1 114 1 124 11.5 c 128,-1,53
 134 22 134 22 149 21.5 c 128,-1,54
 164 21 164 21 179 18 c 128,-1,55
 194 15 194 15 211.5 10.5 c 128,-1,56
 229 6 229 6 240 7 c 0,57,58
 249 8 249 8 262 13.5 c 128,-1,59
 275 19 275 19 283.5 24 c 128,-1,60
 292 29 292 29 306 38 c 128,-1,61
 320 47 320 47 324 50 c 0,62,63
 446 126 446 126 520 244 c 128,-1,64
 594 362 594 362 594 499 c 0,65,66
 594 663 594 663 500 702 c 1,67,68
 440 728 440 728 379 700.5 c 128,-1,69
 318 673 318 673 277 616 c 0,70,71
 247 574 247 574 226 513 c 128,-1,72
 205 452 205 452 197 387.5 c 128,-1,73
 189 323 189 323 208.5 263.5 c 128,-1,74
 228 204 228 204 277 173 c 0,75,76
 304 156 304 156 371 148 c 1,77,-1
 363 120 l 1,0,1
EndSplineSet
EndChar

StartChar: R
Encoding: 82 82 53
Width: 573
Flags: W
LayerCount: 2
Fore
SplineSet
336 698 m 1,0,-1
 281 445 l 1,1,2
 333 445 333 445 369 473.5 c 128,-1,3
 405 502 405 502 416 554 c 1,4,5
 422 588 422 588 420 619.5 c 128,-1,6
 418 651 418 651 396 674 c 128,-1,7
 374 697 374 697 336 698 c 1,0,-1
137 702 m 1,8,-1
 141 698 l 1,9,-1
 137 702 l 1,8,-1
141 702 m 1,10,11
 143 716 143 716 152.5 724.5 c 128,-1,12
 162 733 162 733 177.5 735 c 128,-1,13
 193 737 193 737 206.5 737 c 128,-1,14
 220 737 220 737 239 735.5 c 128,-1,15
 258 734 258 734 266 734 c 0,16,17
 412 734 412 734 477 688 c 1,18,19
 513 661 513 661 523 619 c 128,-1,20
 533 577 533 577 517 536.5 c 128,-1,21
 501 496 501 496 465 472 c 1,22,23
 424 443 424 443 371 437 c 1,24,25
 391 401 391 401 423.5 327 c 128,-1,26
 456 253 456 253 476 218 c 256,27,28
 496 183 496 183 518.5 162 c 128,-1,29
 541 141 541 141 574 140 c 1,30,-1
 574 112 l 1,31,32
 565 112 565 112 539.5 111.5 c 128,-1,33
 514 111 514 111 499.5 111 c 128,-1,34
 485 111 485 111 464.5 114.5 c 128,-1,35
 444 118 444 118 430 126 c 0,36,37
 419 132 419 132 410 142 c 128,-1,38
 401 152 401 152 397 158.5 c 128,-1,39
 393 165 393 165 384.5 182 c 128,-1,40
 376 199 376 199 374 202 c 0,41,42
 332 279 332 279 277 421 c 1,43,-1
 273 421 l 1,44,45
 271 387 271 387 254 324 c 128,-1,46
 237 261 237 261 233 234 c 0,47,48
 233 230 233 230 230 218 c 128,-1,49
 227 206 227 206 225.5 198 c 128,-1,50
 224 190 224 190 225.5 180.5 c 128,-1,51
 227 171 227 171 232 165 c 0,52,53
 238 159 238 159 249.5 156.5 c 128,-1,54
 261 154 261 154 270 154 c 128,-1,55
 279 154 279 154 293.5 154.5 c 128,-1,56
 308 155 308 155 312 155 c 1,57,-1
 312 128 l 1,58,-1
 20 128 l 1,59,-1
 20 155 l 1,60,61
 41 155 41 155 51 155.5 c 128,-1,62
 61 156 61 156 78 161 c 128,-1,63
 95 166 95 166 105 176 c 0,64,65
 114 185 114 185 121 200.5 c 128,-1,66
 128 216 128 216 131 228 c 128,-1,67
 134 240 134 240 138 260.5 c 128,-1,68
 142 281 142 281 144 288 c 0,69,70
 145 291 145 291 205 530 c 0,71,72
 207 539 207 539 212.5 557.5 c 128,-1,73
 218 576 218 576 222 589.5 c 128,-1,74
 226 603 226 603 230.5 623 c 128,-1,75
 235 643 235 643 234 655 c 128,-1,76
 233 667 233 667 229 682 c 0,77,78
 226 691 226 691 218 695.5 c 128,-1,79
 210 700 210 700 199 701.5 c 128,-1,80
 188 703 188 703 179 703.5 c 128,-1,81
 170 704 170 704 157.5 703 c 128,-1,82
 145 702 145 702 141 702 c 1,10,11
EndSplineSet
EndChar

StartChar: S
Encoding: 83 83 54
Width: 417
Flags: W
LayerCount: 2
Fore
SplineSet
414 597 m 1,0,1
 407 669 407 669 352 698 c 0,2,3
 310 721 310 721 271 698 c 128,-1,4
 232 675 232 675 227 628 c 0,5,6
 224 597 224 597 235 566 c 128,-1,7
 246 535 246 535 265 510 c 128,-1,8
 284 485 284 485 307 457.5 c 128,-1,9
 330 430 330 430 350.5 406 c 128,-1,10
 371 382 371 382 385 352 c 128,-1,11
 399 322 399 322 400.5 293 c 128,-1,12
 402 264 402 264 385 226 c 0,13,14
 356 161 356 161 280 132.5 c 128,-1,15
 204 104 204 104 129 115 c 1,16,17
 46 129 46 129 39 155 c 0,18,19
 35 171 35 171 44.5 196.5 c 128,-1,20
 54 222 54 222 70 218 c 0,21,22
 86 215 86 215 112 188.5 c 128,-1,23
 138 162 138 162 148 157 c 0,24,25
 193 132 193 132 237.5 161.5 c 128,-1,26
 282 191 282 191 291 241 c 0,27,28
 297 274 297 274 287.5 305.5 c 128,-1,29
 278 337 278 337 259.5 362 c 128,-1,30
 241 387 241 387 218 414.5 c 128,-1,31
 195 442 195 442 174 466 c 128,-1,32
 153 490 153 490 138.5 520 c 128,-1,33
 124 550 124 550 122.5 579.5 c 128,-1,34
 121 609 121 609 138 648 c 1,35,36
 165 706 165 706 232.5 728.5 c 128,-1,37
 300 751 300 751 367 737 c 0,38,39
 432 723 432 723 450 691 c 1,40,41
 455 674 455 674 453.5 662 c 128,-1,42
 452 650 452 650 447 627.5 c 128,-1,43
 442 605 442 605 441 597 c 1,44,-1
 414 597 l 1,0,1
EndSplineSet
EndChar

StartChar: T
Encoding: 84 84 55
Width: 563
Flags: W
LayerCount: 2
Fore
SplineSet
230 132 m 1,0,-1
 230 128 l 1,1,-1
 285 128 l 1,2,-1
 230 132 l 1,0,-1
109 636 m 1,3,4
 116 713 116 713 132 726 c 0,5,6
 135 728 135 728 140.5 729.5 c 128,-1,7
 146 731 146 731 150.5 730.5 c 128,-1,8
 155 730 155 730 162 730 c 128,-1,9
 169 730 169 730 172 730 c 2,10,-1
 273 730 l 1,11,-1
 664 730 l 1,12,-1
 641 632 l 1,13,-1
 617 632 l 1,14,15
 617 651 617 651 611 664.5 c 128,-1,16
 605 678 605 678 597.5 684.5 c 128,-1,17
 590 691 590 691 574 694.5 c 128,-1,18
 558 698 558 698 547.5 698.5 c 128,-1,19
 537 699 537 699 516 698 c 0,20,21
 511 698 511 698 508 698 c 0,22,23
 504 698 504 698 493.5 699 c 128,-1,24
 483 700 483 700 476 700 c 128,-1,25
 469 700 469 700 460.5 698 c 128,-1,26
 452 696 452 696 448 692 c 0,27,28
 439 683 439 683 433.5 664 c 128,-1,29
 428 645 428 645 423.5 618.5 c 128,-1,30
 419 592 419 592 417 585 c 0,31,32
 411 558 411 558 394 496 c 128,-1,33
 377 434 377 434 365.5 386.5 c 128,-1,34
 354 339 354 339 348 296 c 0,35,36
 347 291 347 291 342.5 270 c 128,-1,37
 338 249 338 249 336 235.5 c 128,-1,38
 334 222 334 222 335 205 c 128,-1,39
 336 188 336 188 343 180 c 0,40,41
 354 165 354 165 375.5 160 c 128,-1,42
 397 155 397 155 414 157 c 128,-1,43
 431 159 431 159 460.5 164.5 c 128,-1,44
 490 170 490 170 496 171 c 1,45,-1
 504 152 l 1,46,47
 484 140 484 140 461.5 134 c 128,-1,48
 439 128 439 128 410.5 127 c 128,-1,49
 382 126 382 126 364 126 c 128,-1,50
 346 126 346 126 311.5 128.5 c 128,-1,51
 277 131 277 131 266 132 c 0,52,53
 235 133 235 133 178.5 130.5 c 128,-1,54
 122 128 122 128 102 128 c 1,55,-1
 109 155 l 1,56,57
 114 155 114 155 127 155 c 128,-1,58
 140 155 140 155 147.5 155 c 128,-1,59
 155 155 155 155 165.5 156.5 c 128,-1,60
 176 158 176 158 184 162 c 0,61,62
 199 169 199 169 211 183 c 128,-1,63
 223 197 223 197 229.5 216.5 c 128,-1,64
 236 236 236 236 240 253 c 128,-1,65
 244 270 244 270 248.5 293.5 c 128,-1,66
 253 317 253 317 255 327 c 0,67,68
 311 552 311 552 320 593 c 0,69,70
 324 607 324 607 328.5 643.5 c 128,-1,71
 333 680 333 680 340 698 c 1,72,73
 329 698 329 698 292 700.5 c 128,-1,74
 255 703 255 703 229.5 701.5 c 128,-1,75
 204 700 204 700 184 692 c 0,76,77
 169 687 169 687 149 662 c 128,-1,78
 129 637 129 637 109 636 c 1,3,4
EndSplineSet
EndChar

StartChar: U
Encoding: 85 85 56
Width: 667
Flags: W
LayerCount: 2
Fore
SplineSet
137 706 m 1,0,1
 139 717 139 717 143.5 723 c 128,-1,2
 148 729 148 729 156.5 731.5 c 128,-1,3
 165 734 165 734 170.5 734.5 c 128,-1,4
 176 735 176 735 189.5 734.5 c 128,-1,5
 203 734 203 734 207 734 c 2,6,-1
 410 734 l 1,7,8
 404 719 404 719 394 712.5 c 128,-1,9
 384 706 384 706 374 705.5 c 128,-1,10
 364 705 364 705 350.5 701.5 c 128,-1,11
 337 698 337 698 328 690 c 0,12,13
 315 677 315 677 307 657 c 128,-1,14
 299 637 299 637 292.5 601.5 c 128,-1,15
 286 566 286 566 285 562 c 0,16,17
 266 479 266 479 250 378 c 0,18,19
 245 348 245 348 243 329.5 c 128,-1,20
 241 311 241 311 243 284.5 c 128,-1,21
 245 258 245 258 253 238 c 0,22,23
 270 199 270 199 306.5 175 c 128,-1,24
 343 151 343 151 383.5 151 c 128,-1,25
 424 151 424 151 461 177 c 1,26,27
 489 199 489 199 510 232.5 c 128,-1,28
 531 266 531 266 544.5 308.5 c 128,-1,29
 558 351 558 351 566 387.5 c 128,-1,30
 574 424 574 424 583.5 472.5 c 128,-1,31
 593 521 593 521 599 546 c 0,32,33
 601 553 601 553 606 570 c 128,-1,34
 611 587 611 587 614.5 599 c 128,-1,35
 618 611 618 611 622 629.5 c 128,-1,36
 626 648 626 648 625.5 658.5 c 128,-1,37
 625 669 625 669 622 683 c 0,38,39
 621 687 621 687 617 691 c 128,-1,40
 613 695 613 695 607.5 697 c 128,-1,41
 602 699 602 699 597 700.5 c 128,-1,42
 592 702 592 702 584.5 702 c 128,-1,43
 577 702 577 702 572.5 702.5 c 128,-1,44
 568 703 568 703 560.5 702.5 c 128,-1,45
 553 702 553 702 551 702 c 1,46,-1
 564 731 l 1,47,-1
 621 734 l 1,48,-1
 754 734 l 1,49,-1
 754 702 l 1,50,51
 729 702 729 702 710 692.5 c 128,-1,52
 691 683 691 683 679.5 670 c 128,-1,53
 668 657 668 657 659 634 c 128,-1,54
 650 611 650 611 646 594 c 128,-1,55
 642 577 642 577 636.5 548.5 c 128,-1,56
 631 520 631 520 627 507 c 1,57,58
 622 484 622 484 612.5 438.5 c 128,-1,59
 603 393 603 393 596.5 361 c 128,-1,60
 590 329 590 329 575.5 286 c 128,-1,61
 561 243 561 243 544.5 214.5 c 128,-1,62
 528 186 528 186 500.5 160 c 128,-1,63
 473 134 473 134 438 123 c 0,64,65
 402 111 402 111 340 112 c 1,66,67
 302 114 302 114 262 127 c 0,68,69
 236 135 236 135 216 148.5 c 128,-1,70
 196 162 196 162 183 176.5 c 128,-1,71
 170 191 170 191 161.5 211.5 c 128,-1,72
 153 232 153 232 148.5 249.5 c 128,-1,73
 144 267 144 267 143.5 293 c 128,-1,74
 143 319 143 319 144 337 c 128,-1,75
 145 355 145 355 149.5 383.5 c 128,-1,76
 154 412 154 412 157.5 428.5 c 128,-1,77
 161 445 161 445 167 473.5 c 128,-1,78
 173 502 173 502 176 515 c 0,79,80
 177 522 177 522 187.5 570 c 128,-1,81
 198 618 198 618 202 644 c 0,82,83
 202 646 202 646 203.5 653 c 128,-1,84
 205 660 205 660 205.5 664 c 128,-1,85
 206 668 206 668 206 674 c 128,-1,86
 206 680 206 680 204.5 684.5 c 128,-1,87
 203 689 203 689 200 693 c 256,88,89
 197 697 197 697 191.5 699.5 c 128,-1,90
 186 702 186 702 177.5 703.5 c 128,-1,91
 169 705 169 705 164 705.5 c 128,-1,92
 159 706 159 706 148.5 706 c 128,-1,93
 138 706 138 706 137 706 c 1,0,1
EndSplineSet
EndChar

StartChar: V
Encoding: 86 86 57
Width: 573
Flags: W
LayerCount: 2
Fore
SplineSet
504 734 m 1,0,-1
 504 730 l 1,1,-1
 629 730 l 1,2,-1
 504 734 l 1,0,-1
121 734 m 1,3,-1
 387 734 l 1,4,-1
 387 702 l 1,5,6
 385 702 385 702 377 702 c 128,-1,7
 369 702 369 702 366 702 c 128,-1,8
 363 702 363 702 356 702 c 128,-1,9
 349 702 349 702 345.5 701 c 128,-1,10
 342 700 342 700 336 698.5 c 128,-1,11
 330 697 330 697 326.5 695 c 128,-1,12
 323 693 323 693 318.5 690 c 128,-1,13
 314 687 314 687 311 682 c 0,14,15
 302 671 302 671 297.5 652.5 c 128,-1,16
 293 634 293 634 292.5 624 c 128,-1,17
 292 614 292 614 292.5 586.5 c 128,-1,18
 293 559 293 559 293 558 c 0,19,20
 293 512 293 512 291 419.5 c 128,-1,21
 289 327 289 327 289 280 c 1,22,-1
 293 280 l 1,23,24
 300 298 300 298 312 315.5 c 128,-1,25
 324 333 324 333 343 357.5 c 128,-1,26
 362 382 362 382 367 390 c 2,27,-1
 493 566 l 2,28,29
 495 568 495 568 506.5 583 c 128,-1,30
 518 598 518 598 525.5 609 c 128,-1,31
 533 620 533 620 542 635 c 128,-1,32
 551 650 551 650 555.5 662 c 128,-1,33
 560 674 560 674 559 682 c 0,34,35
 558 687 558 687 555 690 c 128,-1,36
 552 693 552 693 546.5 695.5 c 128,-1,37
 541 698 541 698 536 699 c 128,-1,38
 531 700 531 700 523.5 701 c 128,-1,39
 516 702 516 702 511.5 702 c 128,-1,40
 507 702 507 702 500.5 702 c 128,-1,41
 494 702 494 702 492 702 c 1,42,-1
 492 734 l 1,43,-1
 684 734 l 1,44,45
 684 714 684 714 675.5 706 c 128,-1,46
 667 698 667 698 649 692.5 c 128,-1,47
 631 687 631 687 621 680 c 0,48,49
 599 664 599 664 565 616 c 2,50,-1
 294 234 l 2,51,52
 289 226 289 226 277.5 206.5 c 128,-1,53
 266 187 266 187 257 173.5 c 128,-1,54
 248 160 248 160 235 144.5 c 128,-1,55
 222 129 222 129 208 120.5 c 128,-1,56
 194 112 194 112 180 112 c 1,57,-1
 199 605 l 1,58,-1
 191 698 l 1,59,-1
 121 702 l 1,60,-1
 121 734 l 1,3,-1
EndSplineSet
EndChar

StartChar: W
Encoding: 87 87 58
Width: 781
Flags: W
LayerCount: 2
Fore
SplineSet
121 734 m 1,0,-1
 367 734 l 1,1,-1
 367 706 l 1,2,3
 349 706 349 706 336 700.5 c 128,-1,4
 323 695 323 695 315.5 687.5 c 128,-1,5
 308 680 308 680 303 665 c 128,-1,6
 298 650 298 650 296 639.5 c 128,-1,7
 294 629 294 629 292 609 c 0,8,9
 281 520 281 520 281 312 c 1,10,11
 293 323 293 323 303 338.5 c 128,-1,12
 313 354 313 354 326.5 381.5 c 128,-1,13
 340 409 340 409 343 413 c 2,14,-1
 441 589 l 1,15,16
 488 670 488 670 482 688 c 0,17,18
 480 693 480 693 476 697 c 128,-1,19
 472 701 472 701 467.5 702.5 c 128,-1,20
 463 704 463 704 455.5 705 c 128,-1,21
 448 706 448 706 444 706.5 c 128,-1,22
 440 707 440 707 431.5 706.5 c 128,-1,23
 423 706 423 706 422 706 c 1,24,-1
 422 734 l 1,25,-1
 641 734 l 1,26,27
 640 719 640 719 632.5 710 c 128,-1,28
 625 701 625 701 615 697 c 128,-1,29
 605 693 605 693 595.5 683.5 c 128,-1,30
 586 674 586 674 583 659 c 0,31,32
 576 619 576 619 572.5 568.5 c 128,-1,33
 569 518 569 518 568.5 483 c 128,-1,34
 568 448 568 448 569 386.5 c 128,-1,35
 570 325 570 325 570 300 c 1,36,-1
 574 300 l 1,37,38
 591 345 591 345 619 394 c 128,-1,39
 647 443 647 443 688 504.5 c 128,-1,40
 729 566 729 566 745 593 c 0,41,42
 746 596 746 596 750 601 c 1,43,44
 759 617 759 617 764 625.5 c 128,-1,45
 769 634 769 634 775.5 648.5 c 128,-1,46
 782 663 782 663 781.5 671.5 c 128,-1,47
 781 680 781 680 778 689 c 128,-1,48
 775 698 775 698 762.5 702 c 128,-1,49
 750 706 750 706 730 706 c 1,50,-1
 738 734 l 1,51,-1
 902 734 l 1,52,-1
 902 706 l 1,53,54
 889 705 889 705 877.5 701.5 c 128,-1,55
 866 698 866 698 857.5 694 c 128,-1,56
 849 690 849 690 839.5 681.5 c 128,-1,57
 830 673 830 673 825 668 c 128,-1,58
 820 663 820 663 811.5 650.5 c 128,-1,59
 803 638 803 638 799.5 633 c 128,-1,60
 796 628 796 628 787.5 613 c 128,-1,61
 779 598 779 598 776 593 c 2,62,-1
 583 257 l 2,63,64
 577 247 577 247 565.5 223.5 c 128,-1,65
 554 200 554 200 545 184 c 128,-1,66
 536 168 536 168 523 150 c 128,-1,67
 510 132 510 132 494.5 122 c 128,-1,68
 479 112 479 112 461 112 c 1,69,-1
 480 593 l 1,70,-1
 477 593 l 1,71,72
 453 536 453 536 419 474 c 128,-1,73
 385 412 385 412 339.5 336.5 c 128,-1,74
 294 261 294 261 273 222 c 0,75,76
 268 213 268 213 259.5 194.5 c 128,-1,77
 251 176 251 176 244.5 164 c 128,-1,78
 238 152 238 152 228 139 c 128,-1,79
 218 126 218 126 205 119 c 128,-1,80
 192 112 192 112 176 112 c 1,81,82
 181 181 181 181 183.5 306.5 c 128,-1,83
 186 432 186 432 188 468 c 0,84,85
 188 485 188 485 190.5 518 c 128,-1,86
 193 551 193 551 194.5 572.5 c 128,-1,87
 196 594 196 594 195 623 c 128,-1,88
 194 652 194 652 191 675 c 1,89,90
 188 690 188 690 176.5 695.5 c 128,-1,91
 165 701 165 701 153 701 c 128,-1,92
 141 701 141 701 131 708.5 c 128,-1,93
 121 716 121 716 121 734 c 1,0,-1
EndSplineSet
EndChar

StartChar: X
Encoding: 88 88 59
Width: 698
Flags: W
LayerCount: 2
Fore
SplineSet
148 730 m 1,0,-1
 414 734 l 1,1,-1
 414 706 l 1,2,-1
 352 706 l 1,3,-1
 426 542 l 1,4,-1
 430 542 l 1,5,-1
 507 652 l 1,6,-1
 524 697 l 1,7,-1
 480 706 l 1,8,-1
 484 734 l 1,9,-1
 699 730 l 1,10,-1
 699 706 l 1,11,12
 650 706 650 706 612 689.5 c 128,-1,13
 574 673 574 673 548.5 648 c 128,-1,14
 523 623 523 623 491 577 c 0,15,16
 487 573 487 573 474.5 558.5 c 128,-1,17
 462 544 462 544 454.5 532.5 c 128,-1,18
 447 521 447 521 447 511 c 1,19,20
 446 504 446 504 449 495.5 c 128,-1,21
 452 487 452 487 459.5 474.5 c 128,-1,22
 467 462 467 462 468 460 c 2,23,-1
 526 343 l 2,24,25
 578 238 578 238 589 218 c 0,26,27
 590 215 590 215 594.5 206 c 128,-1,28
 599 197 599 197 602 192 c 128,-1,29
 605 187 605 187 610 181 c 128,-1,30
 615 175 615 175 621 172 c 0,31,32
 648 159 648 159 711 175 c 1,33,34
 711 163 711 163 706.5 155 c 128,-1,35
 702 147 702 147 696.5 142.5 c 128,-1,36
 691 138 691 138 679.5 135 c 128,-1,37
 668 132 668 132 661.5 131 c 128,-1,38
 655 130 655 130 641 129 c 0,39,40
 608 126 608 126 570 125.5 c 128,-1,41
 532 125 532 125 485 126.5 c 128,-1,42
 438 128 438 128 414 128 c 1,43,-1
 418 163 l 1,44,45
 429 163 429 163 435.5 163.5 c 128,-1,46
 442 164 442 164 452 166.5 c 128,-1,47
 462 169 462 169 467.5 175 c 128,-1,48
 473 181 473 181 474 191 c 0,49,50
 475 198 475 198 473 207.5 c 128,-1,51
 471 217 471 217 468 224 c 128,-1,52
 465 231 465 231 460 242 c 128,-1,53
 455 253 455 253 453 257 c 0,54,55
 415 346 415 346 371 421 c 1,56,57
 352 384 352 384 302 322 c 128,-1,58
 252 260 252 260 237 238 c 0,59,60
 236 235 236 235 230 227 c 128,-1,61
 224 219 224 219 219.5 213 c 128,-1,62
 215 207 215 207 210 198 c 128,-1,63
 205 189 205 189 204.5 183.5 c 128,-1,64
 204 178 204 178 207 171 c 1,65,66
 215 160 215 160 232 158 c 128,-1,67
 249 156 249 156 274.5 159.5 c 128,-1,68
 300 163 300 163 305 163 c 1,69,-1
 305 132 l 1,70,71
 212 115 212 115 43 128 c 1,72,-1
 35 163 l 1,73,74
 41 163 41 163 52.5 162.5 c 128,-1,75
 64 162 64 162 71 162 c 128,-1,76
 78 162 78 162 88 163 c 128,-1,77
 98 164 98 164 105 167 c 0,78,79
 132 177 132 177 160.5 202 c 128,-1,80
 189 227 189 227 206 248.5 c 128,-1,81
 223 270 223 270 250 308.5 c 128,-1,82
 277 347 277 347 287 359 c 0,83,84
 291 364 291 364 309.5 384 c 128,-1,85
 328 404 328 404 340 420.5 c 128,-1,86
 352 437 352 437 354 450 c 0,87,88
 355 461 355 461 348.5 476.5 c 128,-1,89
 342 492 342 492 331.5 510 c 128,-1,90
 321 528 321 528 318 534 c 0,91,92
 315 542 315 542 305 566.5 c 128,-1,93
 295 591 295 591 288 606 c 128,-1,94
 281 621 281 621 270 641.5 c 128,-1,95
 259 662 259 662 246 675.5 c 128,-1,96
 233 689 233 689 219 696 c 0,97,98
 214 698 214 698 209.5 699.5 c 128,-1,99
 205 701 205 701 199 701.5 c 128,-1,100
 193 702 193 702 189.5 702.5 c 128,-1,101
 186 703 186 703 178.5 702 c 128,-1,102
 171 701 171 701 168.5 701 c 128,-1,103
 166 701 166 701 158 700 c 128,-1,104
 150 699 150 699 148 698 c 1,105,-1
 148 730 l 1,0,-1
EndSplineSet
EndChar

StartChar: Y
Encoding: 89 89 60
Width: 552
Flags: W
LayerCount: 2
Fore
SplineSet
199 734 m 1,0,-1
 199 730 l 1,1,-1
 305 730 l 1,2,-1
 199 734 l 1,0,-1
90 128 m 1,3,-1
 90 124 l 1,4,-1
 102 124 l 1,5,-1
 90 128 l 1,3,-1
117 706 m 1,6,7
 122 721 122 721 131.5 727.5 c 128,-1,8
 141 734 141 734 153 734 c 128,-1,9
 165 734 165 734 180 734 c 1,10,11
 182 732 182 732 275.5 733 c 128,-1,12
 369 734 369 734 371 734 c 1,13,-1
 363 702 l 1,14,15
 318 702 318 702 309 689 c 0,16,17
 306 685 306 685 304.5 679.5 c 128,-1,18
 303 674 303 674 303.5 667 c 128,-1,19
 304 660 304 660 304.5 655 c 128,-1,20
 305 650 305 650 306.5 642 c 128,-1,21
 308 634 308 634 309 632 c 0,22,23
 327 529 327 529 355 476 c 1,24,25
 372 507 372 507 420.5 559 c 128,-1,26
 469 611 469 611 482 628 c 0,27,28
 483 630 483 630 491.5 640 c 128,-1,29
 500 650 500 650 505 657 c 128,-1,30
 510 664 510 664 514 673.5 c 128,-1,31
 518 683 518 683 515 689 c 0,32,33
 512 694 512 694 504.5 696.5 c 128,-1,34
 497 699 497 699 490.5 699.5 c 128,-1,35
 484 700 484 700 473.5 699 c 128,-1,36
 463 698 463 698 461 698 c 1,37,-1
 465 730 l 1,38,-1
 664 734 l 1,39,-1
 664 698 l 1,40,41
 643 698 643 698 623.5 692.5 c 128,-1,42
 604 687 604 687 592 680.5 c 128,-1,43
 580 674 580 674 562.5 657.5 c 128,-1,44
 545 641 545 641 538 632.5 c 128,-1,45
 531 624 531 624 511 601 c 0,46,47
 475 557 475 557 462.5 540.5 c 128,-1,48
 450 524 450 524 424.5 488 c 128,-1,49
 399 452 399 452 385.5 421 c 128,-1,50
 372 390 372 390 363 355 c 0,51,52
 348 298 348 298 334 226 c 0,53,54
 334 224 334 224 332.5 216 c 128,-1,55
 331 208 331 208 330.5 204.5 c 128,-1,56
 330 201 330 201 330 195 c 128,-1,57
 330 189 330 189 331.5 184.5 c 128,-1,58
 333 180 333 180 337 176 c 0,59,60
 345 168 345 168 358.5 164.5 c 128,-1,61
 372 161 372 161 382 161.5 c 128,-1,62
 392 162 392 162 410.5 164.5 c 128,-1,63
 429 167 429 167 434 167 c 1,64,-1
 430 136 l 1,65,-1
 227 128 l 1,66,-1
 90 128 l 1,67,68
 95 145 95 145 109 151.5 c 128,-1,69
 123 158 123 158 138 158.5 c 128,-1,70
 153 159 153 159 169 166 c 128,-1,71
 185 173 185 173 193 191 c 0,72,73
 199 205 199 205 204.5 219.5 c 128,-1,74
 210 234 210 234 215 252.5 c 128,-1,75
 220 271 220 271 222.5 282 c 128,-1,76
 225 293 225 293 230 316.5 c 128,-1,77
 235 340 235 340 237 347 c 0,78,79
 239 355 239 355 243.5 372 c 128,-1,80
 248 389 248 389 250.5 403 c 128,-1,81
 253 417 253 417 253 429 c 0,82,83
 252 450 252 450 245 475 c 128,-1,84
 238 500 238 500 226 533 c 128,-1,85
 214 566 214 566 211 577 c 256,86,87
 208 588 208 588 202 612.5 c 128,-1,88
 196 637 196 637 191.5 648.5 c 128,-1,89
 187 660 187 660 178 675.5 c 128,-1,90
 169 691 169 691 154 698 c 128,-1,91
 139 705 139 705 117 706 c 1,6,7
EndSplineSet
EndChar

StartChar: Z
Encoding: 90 90 61
Width: 531
Flags: W
LayerCount: 2
Fore
SplineSet
117 636 m 1,0,1
 125 660 125 660 141 690 c 128,-1,2
 157 720 157 720 173 730 c 0,3,4
 183 736 183 736 202 737 c 128,-1,5
 221 738 221 738 246 736 c 128,-1,6
 271 734 271 734 277 734 c 2,7,-1
 496 734 l 2,8,9
 503 734 503 734 526 735.5 c 128,-1,10
 549 737 549 737 565 736 c 128,-1,11
 581 735 581 735 594 730 c 1,12,-1
 462 558 l 1,13,-1
 172 167 l 1,14,-1
 473 172 l 1,15,-1
 578 218 l 1,16,17
 577 215 577 215 571.5 202.5 c 128,-1,18
 566 190 566 190 561.5 180.5 c 128,-1,19
 557 171 557 171 551 159.5 c 128,-1,20
 545 148 545 148 538.5 140.5 c 128,-1,21
 532 133 532 133 526 130 c 0,22,23
 510 123 510 123 483.5 122.5 c 128,-1,24
 457 122 457 122 423.5 125 c 128,-1,25
 390 128 390 128 379 128 c 2,26,-1
 16 128 l 1,27,28
 30 156 30 156 51 185 c 128,-1,29
 72 214 72 214 103 251.5 c 128,-1,30
 134 289 134 289 146 304 c 0,31,32
 161 323 161 323 218 396.5 c 128,-1,33
 275 470 275 470 300 503 c 128,-1,34
 325 536 325 536 365 594.5 c 128,-1,35
 405 653 405 653 434 702 c 1,36,37
 413 702 413 702 366 705.5 c 128,-1,38
 319 709 319 709 281.5 708.5 c 128,-1,39
 244 708 244 708 215 701 c 0,40,41
 201 698 201 698 188.5 686.5 c 128,-1,42
 176 675 176 675 168 664.5 c 128,-1,43
 160 654 160 654 146.5 645 c 128,-1,44
 133 636 133 636 117 636 c 1,0,1
EndSplineSet
EndChar

StartChar: bracketleft
Encoding: 91 91 62
Width: 354
Flags: W
LayerCount: 2
Fore
SplineSet
39 -145 m 1,0,-1
 195 546 l 1,1,-1
 236 726 l 1,2,-1
 256 792 l 1,3,-1
 309 796 l 1,4,-1
 449 796 l 1,5,-1
 441 757 l 1,6,-1
 273 757 l 1,7,-1
 223 511 l 1,8,-1
 94 -106 l 1,9,-1
 258 -106 l 1,10,-1
 247 -141 l 1,11,-1
 191 -145 l 1,12,-1
 39 -145 l 1,0,-1
EndSplineSet
EndChar

StartChar: backslash
Encoding: 92 92 63
Width: 566
Flags: W
LayerCount: 2
Fore
SplineSet
62 792 m 1,0,-1
 127 788 l 1,1,-1
 161 730 l 1,2,-1
 233 581 l 1,3,-1
 478 81 l 1,4,-1
 590 -153 l 1,5,6
 585 -152 585 -152 559.5 -151.5 c 128,-1,7
 534 -151 534 -151 525 -145 c 0,8,9
 518 -141 518 -141 512 -129.5 c 128,-1,10
 506 -118 506 -118 499.5 -102.5 c 128,-1,11
 493 -87 493 -87 491 -83 c 2,12,-1
 407 89 l 2,13,14
 375 153 375 153 296.5 305 c 128,-1,15
 218 457 218 457 162.5 571 c 128,-1,16
 107 685 107 685 62 792 c 1,0,-1
EndSplineSet
EndChar

StartChar: bracketright
Encoding: 93 93 64
Width: 354
Flags: W
LayerCount: 2
Fore
SplineSet
145 757 m 1,0,-1
 155 792 l 1,1,-1
 211 796 l 1,2,-1
 363 796 l 1,3,-1
 203 97 l 1,4,-1
 165 -75 l 1,5,-1
 146 -141 l 1,6,-1
 94 -145 l 1,7,-1
 -47 -145 l 1,8,-1
 -37 -110 l 1,9,-1
 12 -106 l 1,10,-1
 129 -106 l 1,11,12
 131 -61 131 -61 141.5 -8 c 128,-1,13
 152 45 152 45 168.5 109 c 128,-1,14
 185 173 185 173 192 206 c 0,15,16
 202 256 202 256 225 377.5 c 128,-1,17
 248 499 248 499 267 587.5 c 128,-1,18
 286 676 286 676 309 757 c 1,19,-1
 145 757 l 1,0,-1
EndSplineSet
EndChar

StartChar: asciicircum
Encoding: 94 94 65
Width: 573
Flags: W
LayerCount: 2
Fore
SplineSet
141 429 m 1,0,1
 160 470 160 470 184.5 512.5 c 128,-1,2
 209 555 209 555 246 614 c 128,-1,3
 283 673 283 673 295 695 c 0,4,5
 298 699 298 699 309 722.5 c 128,-1,6
 320 746 320 746 330.5 761 c 128,-1,7
 341 776 341 776 352 779 c 128,-1,8
 363 782 363 782 372.5 779 c 128,-1,9
 382 776 382 776 390 766.5 c 128,-1,10
 398 757 398 757 402.5 749 c 128,-1,11
 407 741 407 741 414 727.5 c 128,-1,12
 421 714 421 714 423 710 c 2,13,-1
 531 523 l 2,14,15
 535 515 535 515 548 495 c 128,-1,16
 561 475 561 475 568 459.5 c 128,-1,17
 575 444 575 444 578 429 c 1,18,-1
 501 433 l 1,19,-1
 459 499 l 1,20,-1
 359 671 l 1,21,-1
 352 671 l 1,22,-1
 257 499 l 1,23,-1
 214 433 l 1,24,-1
 141 429 l 1,0,1
EndSplineSet
EndChar

StartChar: underscore
Encoding: 95 95 66
Width: 500
Flags: W
LayerCount: 2
Fore
SplineSet
0 54 m 1,0,-1
 500 54 l 1,1,-1
 500 3 l 1,2,-1
 0 3 l 1,3,-1
 0 54 l 1,0,-1
EndSplineSet
EndChar

StartChar: grave
Encoding: 96 96 67
Width: 333
Flags: W
LayerCount: 2
Fore
SplineSet
109 702 m 1,0,-1
 209 700 l 1,1,-1
 230 663 l 1,2,-1
 277 550 l 1,3,4
 256 550 256 550 231 566.5 c 128,-1,5
 206 583 206 583 182 609 c 128,-1,6
 158 635 158 635 141 657.5 c 128,-1,7
 124 680 124 680 109 702 c 1,0,-1
EndSplineSet
EndChar

StartChar: a
Encoding: 97 97 68
Width: 375
Flags: W
LayerCount: 2
Fore
SplineSet
270 425 m 1,0,1
 199 424 199 424 166 389 c 128,-1,2
 133 354 133 354 120 280 c 1,3,4
 120 280 120 280 117 266.5 c 128,-1,5
 114 253 114 253 113 246.5 c 128,-1,6
 112 240 112 240 111.5 228.5 c 128,-1,7
 111 217 111 217 113 209 c 128,-1,8
 115 201 115 201 120 197 c 0,9,10
 123 194 123 194 128 193.5 c 128,-1,11
 133 193 133 193 138.5 195.5 c 128,-1,12
 144 198 144 198 149 201 c 128,-1,13
 154 204 154 204 159.5 209.5 c 128,-1,14
 165 215 165 215 169 218.5 c 128,-1,15
 173 222 173 222 177.5 227 c 128,-1,16
 182 232 182 232 184 234 c 0,17,18
 222 272 222 272 241.5 318 c 128,-1,19
 261 364 261 364 270 425 c 1,0,1
230 241 m 1,20,21
 225 236 225 236 203 208.5 c 128,-1,22
 181 181 181 181 167.5 166 c 128,-1,23
 154 151 154 151 132 136 c 128,-1,24
 110 121 110 121 90 120 c 1,25,26
 62 120 62 120 48.5 142.5 c 128,-1,27
 35 165 35 165 35 195 c 0,28,29
 35 246 35 246 56 299.5 c 128,-1,30
 77 353 77 353 111 394 c 0,31,32
 134 422 134 422 163.5 441 c 128,-1,33
 193 460 193 460 231 471.5 c 128,-1,34
 269 483 269 483 297.5 488 c 128,-1,35
 326 493 326 493 371 499 c 1,36,37
 364 481 364 481 357.5 459.5 c 128,-1,38
 351 438 351 438 347 423 c 128,-1,39
 343 408 343 408 338 380 c 128,-1,40
 333 352 333 352 331 342.5 c 128,-1,41
 329 333 329 333 323.5 299.5 c 128,-1,42
 318 266 318 266 317 261 c 0,43,44
 317 258 317 258 313.5 244.5 c 128,-1,45
 310 231 310 231 307.5 220 c 128,-1,46
 305 209 305 209 304 196.5 c 128,-1,47
 303 184 303 184 307 182 c 1,48,49
 313 181 313 181 317.5 181 c 128,-1,50
 322 181 322 181 330.5 187.5 c 128,-1,51
 339 194 339 194 343.5 198.5 c 128,-1,52
 348 203 348 203 355 210 c 128,-1,53
 362 217 362 217 363 218 c 1,54,-1
 367 218 l 1,55,56
 377 202 377 202 363 179.5 c 128,-1,57
 349 157 349 157 324 141 c 128,-1,58
 299 125 299 125 273 118.5 c 128,-1,59
 247 112 247 112 232 129 c 0,60,61
 222 141 222 141 221 160.5 c 128,-1,62
 220 180 220 180 225 206.5 c 128,-1,63
 230 233 230 233 230 241 c 1,20,21
EndSplineSet
EndChar

StartChar: b
Encoding: 98 98 69
Width: 354
Flags: W
LayerCount: 2
Fore
SplineSet
242 411 m 0,0,1
 214 405 214 405 194 390 c 128,-1,2
 174 375 174 375 162.5 351 c 128,-1,3
 151 327 151 327 145.5 305 c 128,-1,4
 140 283 140 283 136 253 c 0,5,6
 134 235 134 235 134 215 c 128,-1,7
 134 195 134 195 145.5 180 c 128,-1,8
 157 165 157 165 180 169 c 1,9,10
 211 173 211 173 235 203 c 128,-1,11
 259 233 259 233 269.5 268.5 c 128,-1,12
 280 304 280 304 281 335 c 0,13,14
 281 337 281 337 281 341 c 0,15,16
 281 354 281 354 281 361 c 128,-1,17
 281 368 281 368 279 380.5 c 128,-1,18
 277 393 277 393 273.5 399 c 128,-1,19
 270 405 270 405 262 409.5 c 128,-1,20
 254 414 254 414 242 411 c 0,0,1
94 780 m 1,21,-1
 246 800 l 1,22,23
 246 724 246 724 208.5 585.5 c 128,-1,24
 171 447 171 447 164 398 c 1,25,26
 174 404 174 404 214 440 c 128,-1,27
 254 476 254 476 281 487 c 0,28,29
 301 495 301 495 317 486 c 128,-1,30
 333 477 333 477 342 457.5 c 128,-1,31
 351 438 351 438 355 418.5 c 128,-1,32
 359 399 359 399 359 382 c 0,33,34
 359 318 359 318 321 255 c 128,-1,35
 283 192 283 192 227 151 c 0,36,37
 155 98 155 98 102 128 c 0,38,39
 92 133 92 133 84.5 140.5 c 128,-1,40
 77 148 77 148 71.5 154.5 c 128,-1,41
 66 161 66 161 63 171.5 c 128,-1,42
 60 182 60 182 58 188.5 c 128,-1,43
 56 195 56 195 56 208 c 128,-1,44
 56 221 56 221 56 226.5 c 128,-1,45
 56 232 56 232 58 247 c 128,-1,46
 60 262 60 262 60.5 266 c 128,-1,47
 61 270 61 270 64 286 c 128,-1,48
 67 302 67 302 68 304 c 0,49,50
 93 437 93 437 123 573 c 0,51,52
 126 588 126 588 133 617.5 c 128,-1,53
 140 647 140 647 144.5 665.5 c 128,-1,54
 149 684 149 684 152.5 710 c 128,-1,55
 156 736 156 736 156 757 c 1,56,-1
 90 757 l 1,57,-1
 94 780 l 1,21,-1
EndSplineSet
EndChar

StartChar: c
Encoding: 99 99 70
Width: 271
Flags: W
LayerCount: 2
Fore
SplineSet
242 191 m 1,0,1
 228 183 228 183 197.5 162 c 128,-1,2
 167 141 167 141 142 130 c 128,-1,3
 117 119 117 119 90 120 c 1,4,5
 60 123 60 123 45.5 143.5 c 128,-1,6
 31 164 31 164 32.5 190 c 128,-1,7
 34 216 34 216 39 241 c 0,8,9
 47 278 47 278 61 315 c 128,-1,10
 75 352 75 352 96 391.5 c 128,-1,11
 117 431 117 431 148.5 458 c 128,-1,12
 180 485 180 485 215 490 c 0,13,14
 235 493 235 493 258 484 c 128,-1,15
 281 475 281 475 287.5 459.5 c 128,-1,16
 294 444 294 444 269 423 c 1,17,18
 256 416 256 416 239.5 417 c 128,-1,19
 223 418 223 418 208 424 c 128,-1,20
 193 430 193 430 177.5 425.5 c 128,-1,21
 162 421 162 421 151 402 c 0,22,23
 147 394 147 394 143.5 386 c 128,-1,24
 140 378 140 378 137.5 368.5 c 128,-1,25
 135 359 135 359 133 351.5 c 128,-1,26
 131 344 131 344 129 332.5 c 128,-1,27
 127 321 127 321 126 314.5 c 128,-1,28
 125 308 125 308 123.5 294.5 c 128,-1,29
 122 281 122 281 121.5 277 c 128,-1,30
 121 273 121 273 119.5 258.5 c 128,-1,31
 118 244 118 244 118 241 c 0,32,33
 114 196 114 196 141 186 c 0,34,35
 153 181 153 181 167.5 185.5 c 128,-1,36
 182 190 182 190 201.5 201 c 128,-1,37
 221 212 221 212 227 214 c 1,38,-1
 242 191 l 1,0,1
EndSplineSet
EndChar

StartChar: d
Encoding: 100 100 71
Width: 396
Flags: W
LayerCount: 2
Fore
SplineSet
289 437 m 1,0,1
 215 437 215 437 180.5 400.5 c 128,-1,2
 146 364 146 364 136 288 c 1,3,4
 136 288 136 288 134.5 278 c 128,-1,5
 133 268 133 268 132.5 263.5 c 128,-1,6
 132 259 132 259 131 248.5 c 128,-1,7
 130 238 130 238 130.5 232 c 128,-1,8
 131 226 131 226 132 218.5 c 128,-1,9
 133 211 133 211 135.5 205.5 c 128,-1,10
 138 200 138 200 142 197 c 0,11,12
 146 195 146 195 150 194 c 128,-1,13
 154 193 154 193 158.5 194 c 128,-1,14
 163 195 163 195 167 196.5 c 128,-1,15
 171 198 171 198 176 201.5 c 128,-1,16
 181 205 181 205 184.5 207.5 c 128,-1,17
 188 210 188 210 192.5 214.5 c 128,-1,18
 197 219 197 219 199.5 221.5 c 128,-1,19
 202 224 202 224 206 228.5 c 128,-1,20
 210 233 210 233 211 234 c 0,21,22
 247 271 247 271 263.5 320 c 128,-1,23
 280 369 280 369 289 437 c 1,0,1
270 749 m 1,24,25
 271 759 271 759 278 767 c 128,-1,26
 285 775 285 775 297.5 779.5 c 128,-1,27
 310 784 310 784 321.5 787 c 128,-1,28
 333 790 333 790 351.5 791 c 128,-1,29
 370 792 370 792 380 792.5 c 128,-1,30
 390 793 390 793 408 792.5 c 128,-1,31
 426 792 426 792 430 792 c 1,32,33
 429 768 429 768 424 740.5 c 128,-1,34
 419 713 419 713 411 678.5 c 128,-1,35
 403 644 403 644 400 628 c 2,36,-1
 346 351 l 1,37,-1
 324 238 l 2,38,39
 324 235 324 235 322 227.5 c 128,-1,40
 320 220 320 220 318.5 214.5 c 128,-1,41
 317 209 317 209 317.5 202.5 c 128,-1,42
 318 196 318 196 320.5 192 c 128,-1,43
 323 188 323 188 327 187 c 128,-1,44
 331 186 331 186 336 188 c 128,-1,45
 341 190 341 190 345.5 193 c 128,-1,46
 350 196 350 196 356 201 c 128,-1,47
 362 206 362 206 365.5 209 c 128,-1,48
 369 212 369 212 373.5 216.5 c 128,-1,49
 378 221 378 221 379 222 c 1,50,-1
 383 222 l 1,51,-1
 398 206 l 1,52,-1
 398 202 l 1,53,54
 318 122 318 122 280 120 c 0,55,56
 250 118 250 118 240 155 c 0,57,58
 238 166 238 166 238 187 c 1,59,60
 239 194 239 194 246 230 c 1,61,62
 240 224 240 224 226 209.5 c 128,-1,63
 212 195 212 195 204.5 187.5 c 128,-1,64
 197 180 197 180 184.5 169 c 128,-1,65
 172 158 172 158 160.5 149.5 c 128,-1,66
 149 141 149 141 137 134 c 0,67,68
 101 114 101 114 86 120 c 0,69,70
 73 126 73 126 65.5 136 c 128,-1,71
 58 146 58 146 56 161.5 c 128,-1,72
 54 177 54 177 53.5 189 c 128,-1,73
 53 201 53 201 57 221 c 128,-1,74
 61 241 61 241 63 248 c 128,-1,75
 65 255 65 255 69 273 c 0,76,77
 118 456 118 456 230 488 c 1,78,79
 246 491 246 491 254 491 c 128,-1,80
 262 491 262 491 277.5 489.5 c 128,-1,81
 293 488 293 488 301 488 c 1,82,83
 302 525 302 525 318 598.5 c 128,-1,84
 334 672 334 672 335 679 c 0,85,86
 336 682 336 682 338.5 694 c 128,-1,87
 341 706 341 706 342.5 714 c 128,-1,88
 344 722 344 722 343 732 c 128,-1,89
 342 742 342 742 337 747 c 128,-1,90
 332 752 332 752 322 753.5 c 128,-1,91
 312 755 312 755 305.5 754.5 c 128,-1,92
 299 754 299 754 285 751.5 c 128,-1,93
 271 749 271 749 270 749 c 1,24,25
EndSplineSet
EndChar

StartChar: e
Encoding: 101 101 72
Width: 281
Flags: W
LayerCount: 2
Fore
SplineSet
137 327 m 1,0,1
 153 333 153 333 177 350 c 128,-1,2
 201 367 201 367 218 391 c 128,-1,3
 235 415 235 415 220 431 c 0,4,5
 208 443 208 443 190.5 440 c 128,-1,6
 173 437 173 437 162 425 c 1,7,8
 137 394 137 394 137 327 c 1,0,1
262 195 m 1,9,10
 256 191 256 191 212.5 162 c 128,-1,11
 169 133 169 133 139.5 122.5 c 128,-1,12
 110 112 110 112 82 118 c 0,13,14
 21 133 21 133 39 241 c 0,15,16
 46 279 46 279 58 316.5 c 128,-1,17
 70 354 70 354 90 392.5 c 128,-1,18
 110 431 110 431 140.5 458.5 c 128,-1,19
 171 486 171 486 207 494 c 0,20,21
 254 504 254 504 283.5 474 c 128,-1,22
 313 444 313 444 287 402 c 0,23,24
 260 357 260 357 184 313 c 0,25,26
 178 310 178 310 166.5 305 c 128,-1,27
 155 300 155 300 146 294.5 c 128,-1,28
 137 289 137 289 131 283 c 1,29,30
 122 271 122 271 117.5 248 c 128,-1,31
 113 225 113 225 119.5 204 c 128,-1,32
 126 183 126 183 145 181 c 0,33,34
 159 179 159 179 177.5 184.5 c 128,-1,35
 196 190 196 190 220 202.5 c 128,-1,36
 244 215 244 215 250 218 c 1,37,-1
 262 195 l 1,9,10
EndSplineSet
EndChar

StartChar: f
Encoding: 102 102 73
Width: 271
Flags: W
LayerCount: 2
Fore
SplineSet
59 464 m 1,0,1
 61 464 61 464 75 464 c 128,-1,2
 89 464 89 464 97 464.5 c 128,-1,3
 105 465 105 465 115.5 467.5 c 128,-1,4
 126 470 126 470 131 474 c 0,5,6
 139 481 139 481 145 496.5 c 128,-1,7
 151 512 151 512 155.5 531 c 128,-1,8
 160 550 160 550 164 558 c 0,9,10
 185 607 185 607 219 646 c 128,-1,11
 253 685 253 685 297 701 c 0,12,13
 360 725 360 725 402 708 c 0,14,15
 422 700 422 700 427.5 680.5 c 128,-1,16
 433 661 433 661 419 645 c 1,17,18
 405 627 405 627 380.5 627 c 128,-1,19
 356 627 356 627 326 634 c 128,-1,20
 296 641 296 641 281 639 c 0,21,22
 261 636 261 636 246.5 616.5 c 128,-1,23
 232 597 232 597 225.5 568.5 c 128,-1,24
 219 540 219 540 217 517 c 128,-1,25
 215 494 215 494 215 472 c 1,26,-1
 324 472 l 1,27,-1
 320 437 l 1,28,29
 318 437 318 437 296.5 437.5 c 128,-1,30
 275 438 275 438 261.5 438 c 128,-1,31
 248 438 248 438 231.5 435 c 128,-1,32
 215 432 215 432 209 427 c 1,33,34
 200 417 200 417 195 395.5 c 128,-1,35
 190 374 190 374 187 340 c 128,-1,36
 184 306 184 306 183 304 c 0,37,38
 180 286 180 286 172.5 233 c 128,-1,39
 165 180 165 180 160 153 c 128,-1,40
 155 126 155 126 142 85.5 c 128,-1,41
 129 45 129 45 112 15 c 0,42,43
 79 -41 79 -41 27 -81 c 128,-1,44
 -25 -121 -25 -121 -86 -133 c 0,45,46
 -102 -136 -102 -136 -122 -136 c 128,-1,47
 -142 -136 -142 -136 -163.5 -133 c 128,-1,48
 -185 -130 -185 -130 -195 -116 c 128,-1,49
 -205 -102 -205 -102 -196 -79 c 0,50,51
 -183 -45 -183 -45 -121 -55 c 0,52,53
 -116 -55 -116 -55 -96 -59 c 128,-1,54
 -76 -63 -76 -63 -69 -64 c 128,-1,55
 -62 -65 -62 -65 -45.5 -65.5 c 128,-1,56
 -29 -66 -29 -66 -20 -63 c 128,-1,57
 -11 -60 -11 -60 1 -53.5 c 128,-1,58
 13 -47 13 -47 23 -36 c 0,59,60
 31 -27 31 -27 38 -14.5 c 128,-1,61
 45 -2 45 -2 49 7 c 128,-1,62
 53 16 53 16 57.5 33 c 128,-1,63
 62 50 62 50 63.5 57 c 128,-1,64
 65 64 65 64 68.5 84.5 c 128,-1,65
 72 105 72 105 73 109 c 0,66,67
 107 294 107 294 125 433 c 1,68,-1
 51 433 l 1,69,-1
 59 464 l 1,0,1
EndSplineSet
EndChar

StartChar: g
Encoding: 103 103 74
Width: 302
Flags: W
LayerCount: 2
Fore
SplineSet
164 438 m 1,0,1
 138 427 138 427 129 369.5 c 128,-1,2
 120 312 120 312 129 280 c 1,3,4
 133 262 133 262 144.5 247 c 128,-1,5
 156 232 156 232 172 239 c 0,6,7
 209 253 209 253 224 297.5 c 128,-1,8
 239 342 239 342 238 390 c 0,9,10
 237 420 237 420 215 434.5 c 128,-1,11
 193 449 193 449 164 438 c 1,0,1
43 49 m 0,12,13
 13 49 13 49 -2 19.5 c 128,-1,14
 -17 -10 -17 -10 -4 -36 c 0,15,16
 10 -64 10 -64 39 -79.5 c 128,-1,17
 68 -95 68 -95 102 -95 c 0,18,19
 118 -95 118 -95 138 -91 c 128,-1,20
 158 -87 158 -87 179 -78 c 128,-1,21
 200 -69 200 -69 206 -54 c 128,-1,22
 212 -39 212 -39 199 -17 c 0,23,24
 190 -2 190 -2 170 5.5 c 128,-1,25
 150 13 150 13 123.5 18 c 128,-1,26
 97 23 97 23 86 27 c 0,27,28
 83 29 83 29 67 39 c 128,-1,29
 51 49 51 49 43 49 c 0,12,13
117 206 m 1,30,31
 75 218 75 218 57.5 245.5 c 128,-1,32
 40 273 40 273 45.5 305.5 c 128,-1,33
 51 338 51 338 69 371 c 128,-1,34
 87 404 87 404 113 431 c 128,-1,35
 139 458 139 458 164 471 c 0,36,37
 167 472 167 472 174 476 c 128,-1,38
 181 480 181 480 184 481.5 c 128,-1,39
 187 483 187 483 194.5 486.5 c 128,-1,40
 202 490 202 490 205.5 490.5 c 128,-1,41
 209 491 209 491 216 493.5 c 128,-1,42
 223 496 223 496 227 495 c 128,-1,43
 231 494 231 494 238 494 c 1,44,45
 280 485 280 485 296.5 451.5 c 128,-1,46
 313 418 313 418 306.5 377.5 c 128,-1,47
 300 337 300 337 283 298.5 c 128,-1,48
 266 260 266 260 245 238 c 0,49,50
 235 228 235 228 223 221 c 128,-1,51
 211 214 211 214 193 205.5 c 128,-1,52
 175 197 175 197 168 193 c 0,53,54
 167 193 167 193 164 191 c 0,55,56
 97 155 97 155 97 128 c 0,57,58
 97 123 97 123 99 118 c 128,-1,59
 101 113 101 113 105.5 110 c 128,-1,60
 110 107 110 107 114 104 c 128,-1,61
 118 101 118 101 125 99 c 128,-1,62
 132 97 132 97 136 96 c 128,-1,63
 140 95 140 95 147 93.5 c 128,-1,64
 154 92 154 92 156 91 c 0,65,66
 229 73 229 73 257 42 c 0,67,68
 283 13 283 13 277.5 -30.5 c 128,-1,69
 272 -74 272 -74 238 -93 c 0,70,71
 183 -125 183 -125 107 -133.5 c 128,-1,72
 31 -142 31 -142 -27 -116 c 1,73,74
 -71 -95 -71 -95 -80 -49 c 128,-1,75
 -89 -3 -89 -3 -57 34 c 0,76,77
 -35 60 -35 60 27 81 c 1,78,79
 18 122 18 122 45.5 153.5 c 128,-1,80
 73 185 73 185 117 198 c 1,81,-1
 117 206 l 1,30,31
EndSplineSet
EndChar

StartChar: h
Encoding: 104 104 75
Width: 344
Flags: W
LayerCount: 2
Fore
SplineSet
94 745 m 1,0,1
 95 752 95 752 99.5 758 c 128,-1,2
 104 764 104 764 112.5 767.5 c 128,-1,3
 121 771 121 771 128.5 774.5 c 128,-1,4
 136 778 136 778 148.5 779.5 c 128,-1,5
 161 781 161 781 169 782 c 128,-1,6
 177 783 177 783 191.5 783.5 c 128,-1,7
 206 784 206 784 211.5 784 c 128,-1,8
 217 784 217 784 231 784 c 128,-1,9
 245 784 245 784 246 784 c 2,10,-1
 227 663 l 1,11,-1
 168 386 l 1,12,-1
 172 386 l 1,13,14
 181 415 181 415 207.5 445.5 c 128,-1,15
 234 476 234 476 265.5 487 c 128,-1,16
 297 498 297 498 323 464 c 1,17,18
 349 428 349 428 346 374.5 c 128,-1,19
 343 321 343 321 327.5 272.5 c 128,-1,20
 312 224 312 224 289 187 c 0,21,22
 262 143 262 143 230 128 c 1,23,24
 207 115 207 115 185.5 123 c 128,-1,25
 164 131 164 131 169 159 c 0,26,27
 171 171 171 171 178.5 179.5 c 128,-1,28
 186 188 186 188 193.5 192 c 128,-1,29
 201 196 201 196 214.5 201 c 128,-1,30
 228 206 228 206 234 209 c 0,31,32
 272 228 272 228 281 273 c 256,33,34
 290 318 290 318 275 370 c 0,35,36
 256 434 256 434 216 397 c 0,37,38
 210 391 210 391 203 382 c 0,39,40
 178 349 178 349 160 304 c 128,-1,41
 142 259 142 259 134.5 228 c 128,-1,42
 127 197 127 197 116 140 c 0,43,44
 114 129 114 129 113 124 c 1,45,-1
 35 124 l 1,46,47
 44 191 44 191 65.5 278 c 128,-1,48
 87 365 87 365 107.5 432.5 c 128,-1,49
 128 500 128 500 144 585 c 128,-1,50
 160 670 160 670 160 741 c 1,51,-1
 94 745 l 1,0,1
EndSplineSet
EndChar

StartChar: i
Encoding: 105 105 76
Width: 240
Flags: W
LayerCount: 2
Fore
SplineSet
51 402 m 1,0,1
 63 428 63 428 97 451.5 c 128,-1,2
 131 475 131 475 164 486 c 1,3,4
 211 500 211 500 216 472 c 0,5,6
 218 463 218 463 216.5 453 c 128,-1,7
 215 443 215 443 211 428 c 128,-1,8
 207 413 207 413 206 409 c 0,9,10
 202 389 202 389 184.5 339.5 c 128,-1,11
 167 290 167 290 158.5 249.5 c 128,-1,12
 150 209 150 209 156 179 c 1,13,-1
 211 226 l 1,14,-1
 234 210 l 1,15,16
 187 143 187 143 137 124 c 1,17,18
 115 117 115 117 97 126.5 c 128,-1,19
 79 136 79 136 75 159 c 0,20,21
 69 196 69 196 78.5 243 c 128,-1,22
 88 290 88 290 106 347 c 128,-1,23
 124 404 124 404 129 429 c 1,24,-1
 66 386 l 1,25,-1
 51 402 l 1,0,1
199 669 m 1,26,27
 226 677 226 677 242 657 c 128,-1,28
 258 637 258 637 253 610.5 c 128,-1,29
 248 584 248 584 223 576 c 0,30,31
 196 567 196 567 180 587 c 128,-1,32
 164 607 164 607 169 633.5 c 128,-1,33
 174 660 174 660 199 669 c 1,26,27
EndSplineSet
EndChar

StartChar: j
Encoding: 106 106 77
Width: 240
Flags: W
LayerCount: 2
Fore
SplineSet
47 374 m 1,0,1
 61 408 61 408 96 439 c 128,-1,2
 131 470 131 470 168 483 c 0,3,4
 219 502 219 502 228 479 c 1,5,6
 234 471 234 471 230 447 c 128,-1,7
 226 423 226 423 221 405.5 c 128,-1,8
 216 388 216 388 208.5 364 c 128,-1,9
 201 340 201 340 199 331 c 0,10,11
 191 299 191 299 177 231.5 c 128,-1,12
 163 164 163 164 153.5 122.5 c 128,-1,13
 144 81 144 81 122.5 27 c 128,-1,14
 101 -27 101 -27 71 -67 c 0,15,16
 18 -138 18 -138 -35 -133 c 0,17,18
 -63 -130 -63 -130 -73 -108 c 128,-1,19
 -83 -86 -83 -86 -75.5 -60.5 c 128,-1,20
 -68 -35 -68 -35 -51 -20 c 1,21,22
 -46 -35 -46 -35 -40 -44 c 0,23,24
 -24 -67 -24 -67 -8 -68.5 c 128,-1,25
 8 -70 8 -70 20 -54.5 c 128,-1,26
 32 -39 32 -39 40.5 -22 c 128,-1,27
 49 -5 49 -5 55 15 c 0,28,29
 73 75 73 75 87 140.5 c 128,-1,30
 101 206 101 206 117.5 300.5 c 128,-1,31
 134 395 134 395 141 429 c 1,32,33
 130 422 130 422 112.5 406.5 c 128,-1,34
 95 391 95 391 80 382.5 c 128,-1,35
 65 374 65 374 47 374 c 1,0,1
43 374 m 1,36,-1
 47 370 l 1,37,-1
 43 374 l 1,36,-1
215 669 m 1,38,39
 242 677 242 677 258 657 c 128,-1,40
 274 637 274 637 268.5 610.5 c 128,-1,41
 263 584 263 584 238 576 c 0,42,43
 211 567 211 567 195 587 c 128,-1,44
 179 607 179 607 184.5 633.5 c 128,-1,45
 190 660 190 660 215 669 c 1,38,39
EndSplineSet
EndChar

StartChar: k
Encoding: 107 107 78
Width: 365
Flags: W
LayerCount: 2
Fore
SplineSet
180 343 m 1,0,1
 227 334 227 334 256 357 c 128,-1,2
 285 380 285 380 273 429 c 1,3,4
 246 423 246 423 217.5 396 c 128,-1,5
 189 369 189 369 180 343 c 1,0,1
353 122 m 1,6,-1
 354 119 l 1,7,-1
 353 122 l 1,6,-1
113 749 m 1,8,-1
 117 745 l 1,9,-1
 113 749 l 1,8,-1
117 773 m 1,10,11
 122 773 122 773 159 779.5 c 128,-1,12
 196 786 196 786 215 791 c 0,13,14
 247 799 247 799 255 792 c 0,15,16
 259 789 259 789 259.5 779.5 c 128,-1,17
 260 770 260 770 257.5 757.5 c 128,-1,18
 255 745 255 745 251.5 733 c 128,-1,19
 248 721 248 721 244.5 709.5 c 128,-1,20
 241 698 241 698 241 695 c 0,21,22
 234 666 234 666 208.5 559 c 128,-1,23
 183 452 183 452 172 394 c 1,24,25
 181 400 181 400 211.5 429.5 c 128,-1,26
 242 459 242 459 268.5 474 c 128,-1,27
 295 489 295 489 320 482 c 0,28,29
 334 478 334 478 339.5 461 c 128,-1,30
 345 444 345 444 344.5 428.5 c 128,-1,31
 344 413 344 413 341 398 c 0,32,33
 334 355 334 355 303 334.5 c 128,-1,34
 272 314 272 314 227 312 c 1,35,36
 240 291 240 291 266 242.5 c 128,-1,37
 292 194 292 194 308 171 c 0,38,39
 313 165 313 165 331.5 153.5 c 128,-1,40
 350 142 350 142 353 134 c 256,41,42
 356 126 356 126 350 121.5 c 128,-1,43
 344 117 344 117 336 118 c 0,44,45
 334 118 334 118 315.5 118 c 128,-1,46
 297 118 297 118 287.5 118.5 c 128,-1,47
 278 119 278 119 264.5 122 c 128,-1,48
 251 125 251 125 245 130 c 0,49,50
 221 152 221 152 198 215.5 c 128,-1,51
 175 279 175 279 156 300 c 1,52,-1
 121 124 l 1,53,-1
 43 124 l 1,54,-1
 93 347 l 1,55,-1
 168 667 l 1,56,57
 161 676 161 676 162 690 c 128,-1,58
 163 704 163 704 168 717 c 128,-1,59
 173 730 173 730 167 739.5 c 128,-1,60
 161 749 161 749 141 749 c 0,61,62
 133 749 133 749 117 749 c 1,63,-1
 117 773 l 1,10,11
EndSplineSet
EndChar

StartChar: l
Encoding: 108 108 79
Width: 229
Flags: W
LayerCount: 2
Fore
SplineSet
102 753 m 1,0,-1
 105 749 l 1,1,-1
 102 753 l 1,0,-1
254 796 m 1,2,-1
 258 792 l 1,3,-1
 254 796 l 1,2,-1
105 777 m 1,4,5
 123 778 123 778 215 792 c 1,6,7
 247 798 247 798 254 790 c 0,8,9
 259 783 259 783 259.5 770 c 128,-1,10
 260 757 260 757 256.5 741 c 128,-1,11
 253 725 253 725 249 710.5 c 128,-1,12
 245 696 245 696 240.5 680.5 c 128,-1,13
 236 665 236 665 235 659 c 2,14,-1
 157 304 l 2,15,16
 156 300 156 300 150 279 c 128,-1,17
 144 258 144 258 140 242 c 128,-1,18
 136 226 136 226 136 209 c 128,-1,19
 136 192 136 192 143 186 c 0,20,21
 151 179 151 179 168 187 c 128,-1,22
 185 195 185 195 205.5 209.5 c 128,-1,23
 226 224 226 224 230 226 c 1,24,25
 230 193 230 193 195 165.5 c 128,-1,26
 160 138 160 138 121 126 c 1,27,28
 104 118 104 118 83.5 123 c 128,-1,29
 63 128 63 128 57 148 c 0,30,31
 53 158 53 158 53 171.5 c 128,-1,32
 53 185 53 185 55.5 200 c 128,-1,33
 58 215 58 215 61 228 c 128,-1,34
 64 241 64 241 68.5 256.5 c 128,-1,35
 73 272 73 272 74 280 c 0,36,37
 86 338 86 338 110.5 444.5 c 128,-1,38
 135 551 135 551 145 597 c 0,39,40
 148 609 148 609 156.5 647 c 128,-1,41
 165 685 165 685 170 706 c 0,42,43
 170 707 170 707 172 715.5 c 128,-1,44
 174 724 174 724 174.5 727.5 c 128,-1,45
 175 731 175 731 174 737 c 128,-1,46
 173 743 173 743 169 746 c 1,47,48
 164 752 164 752 153.5 754 c 128,-1,49
 143 756 143 756 124.5 754.5 c 128,-1,50
 106 753 106 753 105 753 c 1,51,-1
 105 777 l 1,4,5
EndSplineSet
EndChar

StartChar: m
Encoding: 109 109 80
Width: 594
Flags: W
LayerCount: 2
Fore
SplineSet
47 366 m 1,0,1
 26 392 26 392 73 437.5 c 128,-1,2
 120 483 120 483 156 493 c 0,3,4
 181 500 181 500 193 482.5 c 128,-1,5
 205 465 205 465 201 441 c 0,6,7
 200 430 200 430 191 386 c 1,8,9
 266 446 266 446 328 477 c 0,10,11
 329 477 329 477 335 480 c 128,-1,12
 341 483 341 483 343.5 484 c 128,-1,13
 346 485 346 485 351.5 487 c 128,-1,14
 357 489 357 489 360.5 489.5 c 128,-1,15
 364 490 364 490 368.5 490 c 128,-1,16
 373 490 373 490 376.5 488 c 128,-1,17
 380 486 380 486 383 482 c 0,18,19
 389 475 389 475 390 461.5 c 128,-1,20
 391 448 391 448 388.5 436 c 128,-1,21
 386 424 386 424 383 408 c 128,-1,22
 380 392 380 392 379 386 c 1,23,24
 408 411 408 411 449 439 c 1,25,26
 478 457 478 457 496 467 c 0,27,28
 497 468 497 468 507 473.5 c 128,-1,29
 517 479 517 479 521.5 481 c 128,-1,30
 526 483 526 483 534.5 486.5 c 128,-1,31
 543 490 543 490 550 489.5 c 128,-1,32
 557 489 557 489 562 485 c 0,33,34
 574 476 574 476 574 455 c 128,-1,35
 574 434 574 434 570 421 c 1,36,37
 556 352 556 352 533 249 c 0,38,39
 532 247 532 247 528.5 234 c 128,-1,40
 525 221 525 221 524 214.5 c 128,-1,41
 523 208 523 208 521.5 195 c 128,-1,42
 520 182 520 182 524 181 c 1,43,44
 528 177 528 177 532 176 c 128,-1,45
 536 175 536 175 542 179.5 c 128,-1,46
 548 184 548 184 553 188.5 c 128,-1,47
 558 193 558 193 564 200 c 128,-1,48
 570 207 570 207 573 211 c 128,-1,49
 576 215 576 215 578 218 c 1,50,51
 590 211 590 211 590.5 201.5 c 128,-1,52
 591 192 591 192 586 185 c 128,-1,53
 581 178 581 178 570 167 c 0,54,55
 516 114 516 114 473 121 c 0,56,57
 433 128 433 128 444 198 c 0,58,59
 448 221 448 221 460.5 267 c 128,-1,60
 473 313 473 313 479 351 c 128,-1,61
 485 389 485 389 480 421 c 1,62,63
 445 411 445 411 418 387 c 128,-1,64
 391 363 391 363 375 334.5 c 128,-1,65
 359 306 359 306 348 267.5 c 128,-1,66
 337 229 337 229 332 197.5 c 128,-1,67
 327 166 327 166 324 128 c 1,68,-1
 242 128 l 1,69,70
 248 158 248 158 263.5 219 c 128,-1,71
 279 280 279 280 288 329 c 128,-1,72
 297 378 297 378 297 421 c 1,73,74
 261 410 261 410 223 379 c 128,-1,75
 185 348 185 348 174 316 c 0,76,77
 168 297 168 297 163 275 c 128,-1,78
 158 253 158 253 153.5 224 c 128,-1,79
 149 195 149 195 146 183 c 0,80,81
 145 180 145 180 144 171 c 128,-1,82
 143 162 143 162 142 155.5 c 128,-1,83
 141 149 141 149 138 142 c 128,-1,84
 135 135 135 135 131 132 c 0,85,86
 124 127 124 127 112 126 c 128,-1,87
 100 125 100 125 83 126.5 c 128,-1,88
 66 128 66 128 62 128 c 1,89,-1
 121 429 l 1,90,-1
 51 366 l 1,91,-1
 47 366 l 1,0,1
EndSplineSet
EndChar

StartChar: n
Encoding: 110 110 81
Width: 417
Flags: W
LayerCount: 2
Fore
SplineSet
39 405 m 1,0,1
 51 431 51 431 82 453.5 c 128,-1,2
 113 476 113 476 145 486 c 0,3,4
 182 498 182 498 194 479 c 0,5,6
 200 468 200 468 200.5 451 c 128,-1,7
 201 434 201 434 197.5 419.5 c 128,-1,8
 194 405 194 405 189.5 386.5 c 128,-1,9
 185 368 185 368 184 359 c 1,10,11
 212 392 212 392 246 421 c 1,12,13
 272 445 272 445 293 459 c 0,14,15
 366 510 366 510 384 475 c 0,16,17
 389 467 389 467 389 454 c 128,-1,18
 389 441 389 441 387.5 432 c 128,-1,19
 386 423 386 423 382 406.5 c 128,-1,20
 378 390 378 390 377 386 c 0,21,22
 373 364 373 364 362.5 319 c 128,-1,23
 352 274 352 274 345 238.5 c 128,-1,24
 338 203 338 203 336 171 c 1,25,-1
 391 218 l 1,26,-1
 395 218 l 1,27,-1
 410 206 l 1,28,29
 389 174 389 174 363 153 c 0,30,31
 348 140 348 140 332 132 c 1,32,33
 306 116 306 116 282 123.5 c 128,-1,34
 258 131 258 131 258 163 c 1,35,36
 257 188 257 188 261.5 215 c 128,-1,37
 266 242 266 242 275 280.5 c 128,-1,38
 284 319 284 319 287 331 c 0,39,40
 287 335 287 335 290.5 346.5 c 128,-1,41
 294 358 294 358 296 368 c 128,-1,42
 298 378 298 378 298 388.5 c 128,-1,43
 298 399 298 399 294 403 c 0,44,45
 291 405 291 405 287.5 405.5 c 128,-1,46
 284 406 284 406 279.5 404.5 c 128,-1,47
 275 403 275 403 270.5 400.5 c 128,-1,48
 266 398 266 398 260.5 394 c 128,-1,49
 255 390 255 390 251 386.5 c 128,-1,50
 247 383 247 383 242 378 c 128,-1,51
 237 373 237 373 234 370 c 128,-1,52
 231 367 231 367 227.5 363.5 c 128,-1,53
 224 360 224 360 223 359 c 0,54,55
 207 343 207 343 195 324 c 128,-1,56
 183 305 183 305 175.5 291.5 c 128,-1,57
 168 278 168 278 160 250 c 128,-1,58
 152 222 152 222 150 213 c 128,-1,59
 148 204 148 204 141 169 c 128,-1,60
 134 134 134 134 133 128 c 1,61,-1
 55 128 l 1,62,-1
 121 433 l 1,63,64
 111 431 111 431 99.5 423.5 c 128,-1,65
 88 416 88 416 80.5 410 c 128,-1,66
 73 404 73 404 61 401 c 128,-1,67
 49 398 49 398 39 405 c 1,0,1
EndSplineSet
EndChar

StartChar: o
Encoding: 111 111 82
Width: 323
Flags: W
LayerCount: 2
Fore
SplineSet
164 422 m 0,0,1
 137 412 137 412 126.5 372 c 128,-1,2
 116 332 116 332 119.5 291.5 c 128,-1,3
 123 251 123 251 134 226 c 256,4,5
 145 201 145 201 164.5 187 c 128,-1,6
 184 173 184 173 207 183 c 0,7,8
 234 194 234 194 248.5 232.5 c 128,-1,9
 263 271 263 271 262 312.5 c 128,-1,10
 261 354 261 354 247 378 c 1,11,12
 235 401 235 401 211 416 c 128,-1,13
 187 431 187 431 164 422 c 0,0,1
199 490 m 1,14,15
 245 498 245 498 282.5 465.5 c 128,-1,16
 320 433 320 433 327 386 c 0,17,18
 341 290 341 290 251 175 c 0,19,20
 238 158 238 158 231.5 150 c 128,-1,21
 225 142 225 142 211.5 131.5 c 128,-1,22
 198 121 198 121 184 118 c 0,23,24
 129 107 129 107 91.5 145.5 c 128,-1,25
 54 184 54 184 45 241 c 0,26,27
 38 285 38 285 57.5 340 c 128,-1,28
 77 395 77 395 116 438 c 128,-1,29
 155 481 155 481 199 490 c 1,14,15
EndSplineSet
EndChar

StartChar: p
Encoding: 112 112 83
Width: 385
Flags: W
LayerCount: 2
Fore
SplineSet
164 198 m 1,0,1
 168 195 168 195 178 184 c 128,-1,2
 188 173 188 173 196.5 167 c 128,-1,3
 205 161 205 161 215 160 c 0,4,5
 233 158 233 158 249 169.5 c 128,-1,6
 265 181 265 181 275 198 c 0,7,8
 295 235 295 235 304.5 290.5 c 128,-1,9
 314 346 314 346 302 386 c 1,10,11
 292 413 292 413 269 415 c 128,-1,12
 246 417 246 417 226.5 400.5 c 128,-1,13
 207 384 207 384 202 362 c 0,14,15
 190 313 190 313 187 296 c 1,16,17
 183 281 183 281 175.5 248.5 c 128,-1,18
 168 216 168 216 164 198 c 1,0,1
-8 -130 m 1,19,-1
 -8 -134 l 1,20,-1
 82 -134 l 1,21,-1
 -8 -130 l 1,19,-1
35 374 m 1,22,23
 73 454 73 454 156 496 c 0,24,25
 157 497 157 497 160 498 c 0,26,27
 210 521 210 521 221 502 c 0,28,29
 225 496 225 496 225 485.5 c 128,-1,30
 225 475 225 475 223 466 c 128,-1,31
 221 457 221 457 218.5 445.5 c 128,-1,32
 216 434 216 434 215 429 c 1,33,34
 222 433 222 433 241 449 c 128,-1,35
 260 465 260 465 275.5 474.5 c 128,-1,36
 291 484 291 484 305 486 c 0,37,38
 337 490 337 490 359 455 c 128,-1,39
 381 420 381 420 383 386 c 0,40,41
 385 345 385 345 368 291 c 128,-1,42
 351 237 351 237 320 191.5 c 128,-1,43
 289 146 289 146 246 127 c 128,-1,44
 203 108 203 108 152 136 c 1,45,46
 150 106 150 106 136 50.5 c 128,-1,47
 122 -5 122 -5 119 -28 c 0,48,49
 119 -31 119 -31 116.5 -43 c 128,-1,50
 114 -55 114 -55 113.5 -60.5 c 128,-1,51
 113 -66 113 -66 115 -75 c 128,-1,52
 117 -84 117 -84 122 -90 c 0,53,54
 130 -99 130 -99 142.5 -102.5 c 128,-1,55
 155 -106 155 -106 171.5 -107 c 128,-1,56
 188 -108 188 -108 195 -110 c 1,57,-1
 191 -134 l 1,58,-1
 -35 -134 l 1,59,-1
 -35 -110 l 1,60,61
 -17 -107 -17 -107 -3 -98.5 c 128,-1,62
 11 -90 11 -90 18.5 -81 c 128,-1,63
 26 -72 26 -72 32 -56.5 c 128,-1,64
 38 -41 38 -41 40.5 -29.5 c 128,-1,65
 43 -18 43 -18 47 2.5 c 128,-1,66
 51 23 51 23 54 34 c 0,67,68
 58 51 58 51 89 206.5 c 128,-1,69
 120 362 120 362 148 437 c 1,70,-1
 35 374 l 1,22,23
EndSplineSet
EndChar

StartChar: q
Encoding: 113 113 84
Width: 354
Flags: W
LayerCount: 2
Fore
SplineSet
344 488 m 1,0,-1
 344 484 l 1,1,-1
 359 480 l 1,2,-1
 344 488 l 1,0,-1
273 429 m 1,3,4
 203 428 203 428 170 388 c 128,-1,5
 137 348 137 348 125 273 c 0,6,7
 124 271 124 271 121 255 c 128,-1,8
 118 239 118 239 116.5 230.5 c 128,-1,9
 115 222 115 222 116 210 c 128,-1,10
 117 198 117 198 121 192 c 0,11,12
 123 189 123 189 125.5 187.5 c 128,-1,13
 128 186 128 186 131 186 c 128,-1,14
 134 186 134 186 137 186 c 128,-1,15
 140 186 140 186 143.5 188 c 128,-1,16
 147 190 147 190 150 191 c 128,-1,17
 153 192 153 192 156.5 194.5 c 128,-1,18
 160 197 160 197 162 198.5 c 128,-1,19
 164 200 164 200 167.5 202.5 c 128,-1,20
 171 205 171 205 172 205 c 0,21,22
 206 229 206 229 221.5 251 c 128,-1,23
 237 273 237 273 246 312 c 0,24,25
 249 323 249 323 258 364.5 c 128,-1,26
 267 406 267 406 273 429 c 1,3,4
223 214 m 1,27,-1
 227 210 l 1,28,-1
 223 214 l 1,27,-1
113 -130 m 1,29,-1
 113 -134 l 1,30,-1
 230 -134 l 1,31,-1
 113 -130 l 1,29,-1
223 210 m 1,32,33
 218 207 218 207 183.5 175.5 c 128,-1,34
 149 144 149 144 124 130.5 c 128,-1,35
 99 117 99 117 74 121 c 0,36,37
 39 127 39 127 39 187 c 0,38,39
 39 277 39 277 100 366 c 0,40,41
 132 414 132 414 179.5 446 c 128,-1,42
 227 478 227 478 281 486 c 0,43,44
 343 495 343 495 355 478 c 0,45,46
 358 473 358 473 358.5 466.5 c 128,-1,47
 359 460 359 460 358 455.5 c 128,-1,48
 357 451 357 451 355 443 c 128,-1,49
 353 435 353 435 352 433 c 0,50,51
 337 363 337 363 324 312 c 1,52,53
 302 214 302 214 290 159 c 0,54,55
 287 144 287 144 278 96.5 c 128,-1,56
 269 49 269 49 261 17 c 128,-1,57
 253 -15 253 -15 242 -44 c 1,58,59
 247 -48 247 -48 248 -54.5 c 128,-1,60
 249 -61 249 -61 247.5 -66.5 c 128,-1,61
 246 -72 246 -72 248 -79 c 0,62,63
 254 -103 254 -103 293 -106 c 1,64,-1
 281 -132 l 1,65,-1
 211 -130 l 1,66,-1
 82 -134 l 1,67,-1
 82 -102 l 1,68,69
 134 -102 134 -102 151 -85 c 0,70,71
 157 -79 157 -79 162.5 -67.5 c 128,-1,72
 168 -56 168 -56 170 -48.5 c 128,-1,73
 172 -41 172 -41 175.5 -24.5 c 128,-1,74
 179 -8 179 -8 179 -5 c 0,75,76
 183 11 183 11 191.5 46.5 c 128,-1,77
 200 82 200 82 205 103.5 c 128,-1,78
 210 125 210 125 215.5 155 c 128,-1,79
 221 185 221 185 223 210 c 1,32,33
EndSplineSet
EndChar

StartChar: r
Encoding: 114 114 85
Width: 344
Flags: W
LayerCount: 2
Fore
SplineSet
208 340 m 1,0,-1
 210 338 l 1,1,-1
 208 340 l 1,0,-1
43 355 m 1,2,3
 105 431 105 431 156 468 c 0,4,5
 170 478 170 478 179 482 c 128,-1,6
 188 486 188 486 199 484 c 128,-1,7
 210 482 210 482 218 468 c 1,8,9
 229 443 229 443 227 427 c 128,-1,10
 225 411 225 411 219 384.5 c 128,-1,11
 213 358 213 358 215 343 c 1,12,13
 225 379 225 379 251 420.5 c 128,-1,14
 277 462 277 462 305 481 c 1,15,16
 328 498 328 498 353 486 c 128,-1,17
 378 474 378 474 374 445 c 1,18,19
 373 428 373 428 366 420 c 128,-1,20
 359 412 359 412 350 411.5 c 128,-1,21
 341 411 341 411 330 411 c 128,-1,22
 319 411 319 411 309 409 c 0,23,24
 292 406 292 406 273 382 c 1,25,26
 223 323 223 323 193 226 c 0,27,28
 191 218 191 218 187 196 c 128,-1,29
 183 174 183 174 178 156 c 128,-1,30
 173 138 173 138 165 130 c 0,31,32
 159 124 159 124 143.5 122.5 c 128,-1,33
 128 121 128 121 114 123 c 128,-1,34
 100 125 100 125 90 128 c 1,35,36
 96 159 96 159 112 216 c 128,-1,37
 128 273 128 273 138 320.5 c 128,-1,38
 148 368 148 368 148 409 c 1,39,40
 140 405 140 405 128 394.5 c 128,-1,41
 116 384 116 384 106.5 374 c 128,-1,42
 97 364 97 364 85 355 c 128,-1,43
 73 346 73 346 64 345 c 128,-1,44
 55 344 55 344 43 351 c 1,45,-1
 43 355 l 1,2,3
EndSplineSet
EndChar

StartChar: s
Encoding: 115 115 86
Width: 281
Flags: W
LayerCount: 2
Fore
SplineSet
78 238 m 1,0,1
 81 214 81 214 97.5 192 c 128,-1,2
 114 170 114 170 135 166 c 128,-1,3
 156 162 156 162 177 191 c 1,4,5
 194 218 194 218 156 261 c 0,6,7
 150 267 150 267 135 282.5 c 128,-1,8
 120 298 120 298 113 307 c 128,-1,9
 106 316 106 316 96 330.5 c 128,-1,10
 86 345 86 345 83.5 359.5 c 128,-1,11
 81 374 81 374 83 390 c 0,12,13
 88 419 88 419 113 440.5 c 128,-1,14
 138 462 138 462 164.5 472 c 128,-1,15
 191 482 191 482 223 488 c 0,16,17
 284 500 284 500 292 472 c 1,18,19
 299 443 299 443 289.5 432 c 128,-1,20
 280 421 280 421 259.5 424 c 128,-1,21
 239 427 239 427 217 431.5 c 128,-1,22
 195 436 195 436 176 433 c 128,-1,23
 157 430 157 430 152 413 c 0,24,25
 149 403 149 403 154.5 391 c 128,-1,26
 160 379 160 379 167.5 370.5 c 128,-1,27
 175 362 175 362 187 350.5 c 128,-1,28
 199 339 199 339 202 335 c 0,29,30
 229 306 229 306 240.5 276 c 128,-1,31
 252 246 252 246 245 214 c 128,-1,32
 238 182 238 182 207 157 c 0,33,34
 183 137 183 137 156 128 c 0,35,36
 142 123 142 123 121 122 c 128,-1,37
 100 121 100 121 79 124.5 c 128,-1,38
 58 128 58 128 44 141 c 128,-1,39
 30 154 30 154 33 175 c 1,40,41
 35 197 35 197 78 238 c 1,0,1
EndSplineSet
EndChar

StartChar: t
Encoding: 116 116 87
Width: 250
Flags: W
LayerCount: 2
Fore
SplineSet
230 585 m 1,0,-1
 234 581 l 1,1,-1
 230 585 l 1,0,-1
82 472 m 1,2,3
 106 474 106 474 119 484 c 128,-1,4
 132 494 132 494 135 506.5 c 128,-1,5
 138 519 138 519 144.5 537 c 128,-1,6
 151 555 151 555 160 567 c 0,7,8
 163 571 163 571 168.5 573.5 c 128,-1,9
 174 576 174 576 179.5 577 c 128,-1,10
 185 578 185 578 193.5 579 c 128,-1,11
 202 580 202 580 207 580.5 c 128,-1,12
 212 581 212 581 220.5 581 c 128,-1,13
 229 581 229 581 230 581 c 2,14,-1
 211 476 l 1,15,-1
 281 476 l 1,16,-1
 270 437 l 1,17,-1
 199 437 l 1,18,-1
 148 183 l 1,19,-1
 207 238 l 1,20,-1
 230 222 l 1,21,22
 212 193 212 193 184.5 166.5 c 128,-1,23
 157 140 157 140 129 126 c 1,24,25
 111 115 111 115 93.5 120 c 128,-1,26
 76 125 76 125 72 148 c 0,27,28
 70 157 70 157 69.5 167 c 128,-1,29
 69 177 69 177 71 188.5 c 128,-1,30
 73 200 73 200 74.5 208.5 c 128,-1,31
 76 217 76 217 79 230 c 128,-1,32
 82 243 82 243 83 249 c 0,33,34
 87 269 87 269 100.5 335 c 128,-1,35
 114 401 114 401 121 437 c 1,36,-1
 74 437 l 1,37,-1
 82 472 l 1,2,3
EndSplineSet
EndChar

StartChar: u
Encoding: 117 117 88
Width: 427
Flags: W
LayerCount: 2
Fore
SplineSet
27 359 m 1,0,1
 38 389 38 389 70.5 422.5 c 128,-1,2
 103 456 103 456 137 478 c 0,3,4
 148 485 148 485 159.5 488.5 c 128,-1,5
 171 492 171 492 183 488.5 c 128,-1,6
 195 485 195 485 200 472 c 0,7,8
 204 464 204 464 204 452 c 128,-1,9
 204 440 204 440 202.5 431.5 c 128,-1,10
 201 423 201 423 198 408.5 c 128,-1,11
 195 394 195 394 194 390 c 0,12,13
 192 374 192 374 184 333 c 128,-1,14
 176 292 176 292 171 263 c 128,-1,15
 166 234 166 234 164 206 c 1,16,17
 186 215 186 215 206 234 c 128,-1,18
 226 253 226 253 244 282.5 c 128,-1,19
 262 312 262 312 272.5 331 c 128,-1,20
 283 350 283 350 298 382 c 0,21,22
 302 390 302 390 304 394 c 0,23,24
 307 400 307 400 314.5 417 c 128,-1,25
 322 434 322 434 325 439.5 c 128,-1,26
 328 445 328 445 336 456.5 c 128,-1,27
 344 468 344 468 351.5 472 c 128,-1,28
 359 476 359 476 371 481 c 128,-1,29
 383 486 383 486 398 488 c 1,30,-1
 359 277 l 1,31,-1
 348 179 l 1,32,33
 357 183 357 183 369 193.5 c 128,-1,34
 381 204 381 204 389.5 211 c 128,-1,35
 398 218 398 218 410.5 222.5 c 128,-1,36
 423 227 423 227 434 218 c 1,37,-1
 434 214 l 1,38,39
 432 212 432 212 424 203 c 128,-1,40
 416 194 416 194 413.5 191 c 128,-1,41
 411 188 411 188 403 179.5 c 128,-1,42
 395 171 395 171 391.5 167.5 c 128,-1,43
 388 164 388 164 380.5 157 c 128,-1,44
 373 150 373 150 368 146.5 c 128,-1,45
 363 143 363 143 356 138 c 128,-1,46
 349 133 349 133 342 130 c 128,-1,47
 335 127 335 127 328 124 c 0,48,49
 310 118 310 118 290.5 127.5 c 128,-1,50
 271 137 271 137 267 155 c 0,51,52
 260 184 260 184 278 249 c 128,-1,53
 296 314 296 314 297 323 c 1,54,-1
 293 323 l 1,55,56
 284 294 284 294 238 230 c 0,57,58
 214 197 214 197 186 169 c 0,59,60
 166 149 166 149 152 139 c 0,61,62
 142 132 142 132 130 127.5 c 128,-1,63
 118 123 118 123 106 121.5 c 128,-1,64
 94 120 94 120 85.5 127.5 c 128,-1,65
 77 135 77 135 77 152 c 1,66,67
 75 179 75 179 80 209 c 128,-1,68
 85 239 85 239 96 282.5 c 128,-1,69
 107 326 107 326 110 339 c 0,70,71
 111 342 111 342 113.5 351 c 128,-1,72
 116 360 116 360 118.5 368.5 c 128,-1,73
 121 377 121 377 122.5 387 c 128,-1,74
 124 397 124 397 123 404 c 128,-1,75
 122 411 122 411 119 413 c 1,76,77
 115 414 115 414 112 414.5 c 128,-1,78
 109 415 109 415 103.5 411 c 128,-1,79
 98 407 98 407 94 404 c 128,-1,80
 90 401 90 401 84.5 394.5 c 128,-1,81
 79 388 79 388 75 383.5 c 128,-1,82
 71 379 71 379 65.5 372.5 c 128,-1,83
 60 366 60 366 57.5 362 c 128,-1,84
 55 358 55 358 51.5 353 c 128,-1,85
 48 348 48 348 47 347 c 1,86,-1
 27 359 l 1,0,1
EndSplineSet
EndChar

StartChar: v
Encoding: 118 118 89
Width: 365
Flags: W
LayerCount: 2
Fore
SplineSet
27 394 m 1,0,1
 39 415 39 415 62 445 c 0,2,3
 71 456 71 456 81.5 466.5 c 128,-1,4
 92 477 92 477 106.5 487 c 128,-1,5
 121 497 121 497 135.5 496.5 c 128,-1,6
 150 496 150 496 162 483 c 0,7,8
 168 476 168 476 172 464.5 c 128,-1,9
 176 453 176 453 178 444.5 c 128,-1,10
 180 436 180 436 182.5 421 c 128,-1,11
 185 406 185 406 186 402 c 0,12,13
 187 395 187 395 193.5 362.5 c 128,-1,14
 200 330 200 330 202.5 317.5 c 128,-1,15
 205 305 205 305 209.5 279.5 c 128,-1,16
 214 254 214 254 216 234 c 128,-1,17
 218 214 218 214 219 195 c 1,18,19
 243 219 243 219 258.5 237 c 128,-1,20
 274 255 274 255 289.5 283.5 c 128,-1,21
 305 312 305 312 308 339 c 0,22,23
 309 352 309 352 302.5 370.5 c 128,-1,24
 296 389 296 389 289 405 c 128,-1,25
 282 421 282 421 278 437.5 c 128,-1,26
 274 454 274 454 281 467 c 128,-1,27
 288 480 288 480 309 488 c 0,28,29
 332 496 332 496 344.5 479.5 c 128,-1,30
 357 463 357 463 358 434 c 128,-1,31
 359 405 359 405 356 379 c 128,-1,32
 353 353 353 353 349 339 c 0,33,34
 322 251 322 251 227 155 c 0,35,36
 226 155 226 155 224 153 c 0,37,38
 175 104 175 104 157 127 c 0,39,40
 150 135 150 135 147 150.5 c 128,-1,41
 144 166 144 166 142.5 187 c 128,-1,42
 141 208 141 208 140 214 c 0,43,44
 136 238 136 238 129.5 284.5 c 128,-1,45
 123 331 123 331 117 367.5 c 128,-1,46
 111 404 111 404 102 437 c 1,47,-1
 51 382 l 1,48,-1
 27 394 l 1,0,1
EndSplineSet
EndChar

StartChar: w
Encoding: 119 119 90
Width: 583
Flags: W
LayerCount: 2
Fore
SplineSet
55 362 m 1,0,1
 39 388 39 388 54.5 419 c 128,-1,2
 70 450 70 450 98 475 c 1,3,4
 106 484 106 484 116 489 c 128,-1,5
 126 494 126 494 138 494 c 128,-1,6
 150 494 150 494 159 486 c 0,7,8
 166 479 166 479 171.5 466.5 c 128,-1,9
 177 454 177 454 179.5 445 c 128,-1,10
 182 436 182 436 185 419 c 128,-1,11
 188 402 188 402 189 398 c 0,12,13
 192 383 192 383 200.5 337 c 128,-1,14
 209 291 209 291 217.5 259.5 c 128,-1,15
 226 228 226 228 238 202 c 1,16,-1
 331 341 l 1,17,-1
 316 433 l 1,18,-1
 371 495 l 1,19,-1
 375 495 l 1,20,21
 384 462 384 462 393.5 400.5 c 128,-1,22
 403 339 403 339 414.5 287.5 c 128,-1,23
 426 236 426 236 445 198 c 1,24,25
 452 212 452 212 472 238 c 128,-1,26
 492 264 492 264 507.5 287 c 128,-1,27
 523 310 523 310 535 335.5 c 128,-1,28
 547 361 547 361 541 383.5 c 128,-1,29
 535 406 535 406 508 421 c 1,30,-1
 551 495 l 1,31,32
 570 483 570 483 581.5 467 c 128,-1,33
 593 451 593 451 598 435.5 c 128,-1,34
 603 420 603 420 600 399.5 c 128,-1,35
 597 379 597 379 593 363 c 128,-1,36
 589 347 589 347 577 324 c 128,-1,37
 565 301 565 301 557.5 288 c 128,-1,38
 550 275 550 275 534 252.5 c 128,-1,39
 518 230 518 230 511.5 221.5 c 128,-1,40
 505 213 505 213 491 195 c 0,41,42
 490 193 490 193 482 182.5 c 128,-1,43
 474 172 474 172 469 166.5 c 128,-1,44
 464 161 464 161 455 150 c 128,-1,45
 446 139 446 139 438.5 134 c 128,-1,46
 431 129 431 129 422 123.5 c 128,-1,47
 413 118 413 118 404.5 118.5 c 128,-1,48
 396 119 396 119 389 124 c 0,49,50
 384 128 384 128 381 136 c 128,-1,51
 378 144 378 144 376 156.5 c 128,-1,52
 374 169 374 169 374 171 c 0,53,54
 371 183 371 183 363.5 210 c 128,-1,55
 356 237 356 237 351 257 c 128,-1,56
 346 277 346 277 344 296 c 1,57,-1
 340 296 l 1,58,-1
 255 171 l 1,59,-1
 214 124 l 1,60,-1
 176 120 l 1,61,-1
 143 273 l 1,62,-1
 105 429 l 1,63,-1
 59 362 l 1,64,-1
 55 362 l 1,0,1
EndSplineSet
EndChar

StartChar: x
Encoding: 120 120 91
Width: 490
Flags: W
LayerCount: 2
Fore
SplineSet
86 394 m 1,0,1
 100 421 100 421 132.5 456 c 128,-1,2
 165 491 165 491 188 490 c 0,3,4
 191 490 191 490 195 488.5 c 128,-1,5
 199 487 199 487 203.5 483.5 c 128,-1,6
 208 480 208 480 210.5 477.5 c 128,-1,7
 213 475 213 475 217 470 c 128,-1,8
 221 465 221 465 223 464 c 0,9,10
 277 408 277 408 297 355 c 1,11,12
 316 369 316 369 339 399.5 c 128,-1,13
 362 430 362 430 385 453 c 128,-1,14
 408 476 408 476 438 484 c 1,15,16
 466 493 466 493 481.5 475.5 c 128,-1,17
 497 458 497 458 491 433.5 c 128,-1,18
 485 409 485 409 461 398 c 1,19,20
 455 415 455 415 445.5 422 c 128,-1,21
 436 429 436 429 425 426 c 128,-1,22
 414 423 414 423 403.5 416.5 c 128,-1,23
 393 410 393 410 381 398 c 128,-1,24
 369 386 369 386 361.5 377.5 c 128,-1,25
 354 369 354 369 346 359 c 0,26,27
 345 357 345 357 339.5 350 c 128,-1,28
 334 343 334 343 331.5 340 c 128,-1,29
 329 337 329 337 326.5 331 c 128,-1,30
 324 325 324 325 324 320 c 0,31,32
 325 311 325 311 343 284 c 0,33,34
 345 280 345 280 356 261 c 128,-1,35
 367 242 367 242 373.5 231.5 c 128,-1,36
 380 221 380 221 391.5 208.5 c 128,-1,37
 403 196 403 196 414 192 c 0,38,39
 424 189 424 189 433 191 c 128,-1,40
 442 193 442 193 448.5 197 c 128,-1,41
 455 201 455 201 463.5 199 c 128,-1,42
 472 197 472 197 480 187 c 1,43,44
 471 181 471 181 452 164.5 c 128,-1,45
 433 148 433 148 415.5 136.5 c 128,-1,46
 398 125 398 125 383 124 c 0,47,48
 366 122 366 122 348 136 c 128,-1,49
 330 150 330 150 313.5 176.5 c 128,-1,50
 297 203 297 203 288.5 219 c 128,-1,51
 280 235 280 235 270 257 c 1,52,53
 259 245 259 245 233.5 211 c 128,-1,54
 208 177 208 177 185.5 155 c 128,-1,55
 163 133 163 133 137 125 c 0,56,57
 114 117 114 117 93.5 123.5 c 128,-1,58
 73 130 73 130 58.5 142 c 128,-1,59
 44 154 44 154 44 174 c 128,-1,60
 44 194 44 194 62 214 c 1,61,62
 85 183 85 183 113 179.5 c 128,-1,63
 141 176 141 176 164 192 c 128,-1,64
 187 208 187 208 211 238 c 0,65,66
 213 240 213 240 222.5 250.5 c 128,-1,67
 232 261 232 261 237.5 269 c 128,-1,68
 243 277 243 277 245 284 c 0,69,70
 247 294 247 294 239.5 311 c 128,-1,71
 232 328 232 328 222.5 340.5 c 128,-1,72
 213 353 213 353 198.5 372 c 128,-1,73
 184 391 184 391 182 394 c 0,74,75
 181 394 181 394 177 400 c 128,-1,76
 173 406 173 406 171 408.5 c 128,-1,77
 169 411 169 411 164.5 413.5 c 128,-1,78
 160 416 160 416 156 417 c 1,79,80
 147 417 147 417 137.5 410 c 128,-1,81
 128 403 128 403 117 392 c 128,-1,82
 106 381 106 381 102 378 c 1,83,-1
 86 394 l 1,0,1
EndSplineSet
EndChar

StartChar: y
Encoding: 121 121 92
Width: 375
Flags: W
LayerCount: 2
Fore
SplineSet
31 355 m 1,0,1
 37 381 37 381 60 421 c 0,2,3
 67 433 67 433 74.5 444.5 c 128,-1,4
 82 456 82 456 93.5 469.5 c 128,-1,5
 105 483 105 483 118.5 489.5 c 128,-1,6
 132 496 132 496 145 492 c 0,7,8
 156 488 156 488 166 475.5 c 128,-1,9
 176 463 176 463 180.5 454 c 128,-1,10
 185 445 185 445 191 429 c 0,11,12
 210 385 210 385 224 298.5 c 128,-1,13
 238 212 238 212 250 175 c 1,14,15
 257 203 257 203 283 264.5 c 128,-1,16
 309 326 309 326 315 362 c 0,17,18
 316 373 316 373 316 384 c 128,-1,19
 316 395 316 395 313 406.5 c 128,-1,20
 310 418 310 418 302.5 419.5 c 128,-1,21
 295 421 295 421 281 413 c 1,22,-1
 277 413 l 1,23,24
 260 438 260 438 292 471 c 0,25,26
 321 500 321 500 344 493 c 0,27,28
 352 491 352 491 357 483 c 0,29,30
 383 438 383 438 351 320 c 0,31,32
 322 213 322 213 256.5 111 c 128,-1,33
 191 9 191 9 105 -71 c 0,34,35
 26 -144 26 -144 -31 -137 c 0,36,37
 -47 -135 -47 -135 -64 -125.5 c 128,-1,38
 -81 -116 -81 -116 -85 -102 c 1,39,40
 -87 -91 -87 -91 -71 -71.5 c 128,-1,41
 -55 -52 -55 -52 -43 -49 c 0,42,43
 -34 -47 -34 -47 -16 -56 c 128,-1,44
 2 -65 2 -65 8 -66 c 0,45,46
 33 -69 33 -69 78 -38 c 0,47,48
 211 56 211 56 172 230 c 0,49,50
 154 312 154 312 131 366 c 0,51,52
 131 367 131 367 128 374.5 c 128,-1,53
 125 382 125 382 123 385.5 c 128,-1,54
 121 389 121 389 117.5 394.5 c 128,-1,55
 114 400 114 400 110 403 c 128,-1,56
 106 406 106 406 101.5 406.5 c 128,-1,57
 97 407 97 407 92.5 405 c 128,-1,58
 88 403 88 403 83.5 398 c 128,-1,59
 79 393 79 393 75.5 388 c 128,-1,60
 72 383 72 383 68.5 375.5 c 128,-1,61
 65 368 65 368 63 363.5 c 128,-1,62
 61 359 61 359 58 351.5 c 128,-1,63
 55 344 55 344 55 343 c 2,64,-1
 31 355 l 1,0,1
EndSplineSet
EndChar

StartChar: z
Encoding: 122 122 93
Width: 365
Flags: W
LayerCount: 2
Fore
SplineSet
-9 119 m 1,0,-1
 -7 118 l 1,1,-1
 -9 119 l 1,0,-1
375 495 m 1,2,3
 383 486 383 486 383.5 476 c 128,-1,4
 384 466 384 466 377.5 456.5 c 128,-1,5
 371 447 371 447 365 440.5 c 128,-1,6
 359 434 359 434 347.5 423.5 c 128,-1,7
 336 413 336 413 332 409 c 2,8,-1
 121 198 l 1,9,10
 147 205 147 205 177 202.5 c 128,-1,11
 207 200 207 200 231 194 c 128,-1,12
 255 188 255 188 282.5 194.5 c 128,-1,13
 310 201 310 201 332 226 c 1,14,-1
 336 226 l 1,15,-1
 355 210 l 1,16,-1
 355 206 l 1,17,18
 331 179 331 179 313 162 c 128,-1,19
 295 145 295 145 265.5 130 c 128,-1,20
 236 115 236 115 207 116 c 1,21,22
 189 118 189 118 152 129 c 128,-1,23
 115 140 115 140 94 140 c 0,24,25
 76 140 76 140 44.5 130 c 128,-1,26
 13 120 13 120 -4 120 c 1,27,28
 29 168 29 168 77.5 216 c 128,-1,29
 126 264 126 264 188.5 319.5 c 128,-1,30
 251 375 251 375 281 405 c 1,31,32
 265 405 265 405 240.5 408.5 c 128,-1,33
 216 412 216 412 200.5 413 c 128,-1,34
 185 414 185 414 167.5 411 c 128,-1,35
 150 408 150 408 136.5 394 c 128,-1,36
 123 380 123 380 113 355 c 1,37,38
 97 361 97 361 94.5 374 c 128,-1,39
 92 387 92 387 101.5 402.5 c 128,-1,40
 111 418 111 418 121 430 c 128,-1,41
 131 442 131 442 141 452 c 0,42,43
 161 471 161 471 186 476.5 c 128,-1,44
 211 482 211 482 235 479 c 128,-1,45
 259 476 259 476 282.5 472.5 c 128,-1,46
 306 469 306 469 331 473.5 c 128,-1,47
 356 478 356 478 375 495 c 1,2,3
EndSplineSet
EndChar

StartChar: braceleft
Encoding: 123 123 94
Width: 480
Flags: W
LayerCount: 2
Fore
SplineSet
145 331 m 1,0,1
 178 338 178 338 195 348 c 0,2,3
 233 369 233 369 246 401.5 c 128,-1,4
 259 434 259 434 253.5 463.5 c 128,-1,5
 248 493 248 493 240 535.5 c 128,-1,6
 232 578 232 578 235 605 c 0,7,8
 242 674 242 674 294 718.5 c 128,-1,9
 346 763 346 763 418 777 c 1,10,-1
 418 757 l 1,11,12
 394 753 394 753 371 740 c 0,13,14
 334 719 334 719 321 687 c 128,-1,15
 308 655 308 655 312.5 627 c 128,-1,16
 317 599 317 599 325 556.5 c 128,-1,17
 333 514 333 514 332 488 c 0,18,19
 330 429 330 429 286.5 384.5 c 128,-1,20
 243 340 243 340 184 323 c 1,21,-1
 184 320 l 1,22,23
 241 309 241 309 287 259 c 128,-1,24
 333 209 333 209 332 152 c 0,25,26
 332 130 332 130 325.5 97.5 c 128,-1,27
 319 65 319 65 315 40.5 c 128,-1,28
 311 16 311 16 312 -10.5 c 128,-1,29
 313 -37 313 -37 327.5 -59 c 128,-1,30
 342 -81 342 -81 371 -97 c 0,31,32
 395 -110 395 -110 418 -114 c 1,33,-1
 418 -134 l 1,34,35
 346 -124 346 -124 291.5 -74 c 128,-1,36
 237 -24 237 -24 234 46 c 0,37,38
 233 68 233 68 239 100 c 128,-1,39
 245 132 245 132 249.5 157 c 128,-1,40
 254 182 254 182 254 208.5 c 128,-1,41
 254 235 254 235 239.5 257.5 c 128,-1,42
 225 280 225 280 195 295 c 0,43,44
 177 305 177 305 145 312 c 1,45,-1
 145 331 l 1,0,1
EndSplineSet
EndChar

StartChar: bar
Encoding: 124 124 95
Width: 531
Flags: W
LayerCount: 2
Fore
SplineSet
277 878 m 1,0,-1
 344 878 l 1,1,-1
 344 -122 l 1,2,-1
 277 -122 l 1,3,-1
 277 878 l 1,0,-1
EndSplineSet
EndChar

StartChar: braceright
Encoding: 125 125 96
Width: 480
Flags: W
LayerCount: 2
Fore
SplineSet
133 777 m 1,0,1
 207 762 207 762 259 715.5 c 128,-1,2
 311 669 311 669 316 597 c 0,3,4
 318 571 318 571 310 530 c 128,-1,5
 302 489 302 489 297 460.5 c 128,-1,6
 292 432 292 432 304 400.5 c 128,-1,7
 316 369 316 369 352 348 c 0,8,9
 369 338 369 338 402 331 c 1,10,11
 401 319 401 319 394 312.5 c 128,-1,12
 387 306 387 306 372 301.5 c 128,-1,13
 357 297 357 297 352 293 c 1,14,15
 310 270 310 270 298 230 c 0,16,17
 288 200 288 200 301.5 137.5 c 128,-1,18
 315 75 315 75 316 66 c 0,19,20
 321 -10 321 -10 265.5 -66.5 c 128,-1,21
 210 -123 210 -123 133 -134 c 1,22,-1
 133 -114 l 1,23,24
 154 -111 154 -111 180 -97 c 0,25,26
 217 -76 217 -76 230 -43.5 c 128,-1,27
 243 -11 243 -11 238 18 c 128,-1,28
 233 47 233 47 225 90 c 128,-1,29
 217 133 217 133 219 159 c 0,30,31
 223 217 223 217 263.5 258.5 c 128,-1,32
 304 300 304 300 363 320 c 1,33,34
 303 347 303 347 265.5 382.5 c 128,-1,35
 228 418 228 418 220 472 c 0,36,37
 216 501 216 501 223.5 543.5 c 128,-1,38
 231 586 231 586 237.5 616 c 128,-1,39
 244 646 244 646 232.5 680 c 128,-1,40
 221 714 221 714 184 737 c 0,41,42
 163 750 163 750 133 757 c 1,43,-1
 133 777 l 1,0,1
EndSplineSet
EndChar

StartChar: asciitilde
Encoding: 126 126 97
Width: 667
Flags: W
LayerCount: 2
Fore
SplineSet
113 320 m 1,0,1
 113 359 113 359 127 390 c 1,2,3
 139 421 139 421 158.5 439.5 c 128,-1,4
 178 458 178 458 203 462.5 c 128,-1,5
 228 467 228 467 253 465.5 c 128,-1,6
 278 464 278 464 309 454 c 128,-1,7
 340 444 340 444 364 434.5 c 128,-1,8
 388 425 388 425 418.5 411.5 c 128,-1,9
 449 398 449 398 465 393 c 1,10,11
 520 370 520 370 562.5 389 c 128,-1,12
 605 408 605 408 617 468 c 1,13,-1
 641 468 l 1,14,15
 640 433 640 433 629 402 c 1,16,17
 618 374 618 374 601.5 356.5 c 128,-1,18
 585 339 585 339 567.5 331 c 128,-1,19
 550 323 550 323 525.5 322 c 128,-1,20
 501 321 501 321 481 324.5 c 128,-1,21
 461 328 461 328 432.5 337 c 128,-1,22
 404 346 404 346 386 353.5 c 128,-1,23
 368 361 368 361 340.5 372.5 c 128,-1,24
 313 384 313 384 301 389 c 0,25,26
 249 409 249 409 223 409 c 0,27,28
 178 408 178 408 153 366 c 0,29,30
 149 360 149 360 144.5 346 c 128,-1,31
 140 332 140 332 133.5 326 c 128,-1,32
 127 320 127 320 113 320 c 1,0,1
EndSplineSet
EndChar

StartChar: uni00A0
Encoding: 160 160 98
Width: 250
Flags: W
LayerCount: 2
Fore
SplineSet
0 132 m 1,0,-1
 4 128 l 1,1,-1
 0 132 l 1,0,-1
EndSplineSet
EndChar

StartChar: exclamdown
Encoding: 161 161 99
Width: 177
Flags: W
LayerCount: 2
Fore
SplineSet
-27 -130 m 1,0,-1
 -23 -134 l 1,1,-1
 -27 -130 l 1,0,-1
125 292 m 1,2,3
 115 239 115 239 96 120 c 0,4,5
 95 113 95 113 79 3 c 0,6,7
 78 -2 78 -2 76.5 -32.5 c 128,-1,8
 75 -63 75 -63 70.5 -84.5 c 128,-1,9
 66 -106 66 -106 56 -115 c 0,10,11
 46 -125 46 -125 12.5 -131 c 128,-1,12
 -21 -137 -21 -137 -25 -122 c 1,13,14
 -27 -108 -27 -108 -22 -89.5 c 128,-1,15
 -17 -71 -17 -71 -7 -47 c 128,-1,16
 3 -23 3 -23 5 -16 c 0,17,18
 20 27 20 27 71 210 c 0,19,20
 73 216 73 216 76 231 c 128,-1,21
 79 246 79 246 81.5 256 c 128,-1,22
 84 266 84 266 89 276.5 c 128,-1,23
 94 287 94 287 103 291 c 128,-1,24
 112 295 112 295 125 292 c 1,2,3
133 501 m 0,25,26
 167 510 167 510 173 476 c 0,27,28
 179 443 179 443 156 417 c 0,29,30
 146 405 146 405 133 402 c 256,31,32
 120 399 120 399 110.5 410.5 c 128,-1,33
 101 422 101 422 97 437 c 0,34,35
 91 457 91 457 101.5 476 c 128,-1,36
 112 495 112 495 133 501 c 0,25,26
EndSplineSet
EndChar

StartChar: cent
Encoding: 162 162 100
Width: 271
Flags: W
LayerCount: 2
Fore
SplineSet
262 577 m 1,0,-1
 262 573 l 1,1,-1
 285 570 l 1,2,-1
 262 577 l 1,0,-1
121 198 m 1,3,-1
 125 198 l 1,4,-1
 207 429 l 2,5,6
 206 429 206 429 199.5 429 c 128,-1,7
 193 429 193 429 191 429 c 128,-1,8
 189 429 189 429 183.5 428.5 c 128,-1,9
 178 428 178 428 175 427 c 128,-1,10
 172 426 172 426 168.5 424 c 128,-1,11
 165 422 165 422 162 419 c 0,12,13
 149 408 149 408 137 362 c 0,14,15
 130 334 130 334 127.5 321 c 128,-1,16
 125 308 125 308 120.5 282.5 c 128,-1,17
 116 257 116 257 116.5 236.5 c 128,-1,18
 117 216 117 216 121 198 c 1,3,-1
258 577 m 1,19,-1
 285 570 l 1,20,-1
 258 488 l 1,21,22
 279 482 279 482 284 465 c 128,-1,23
 289 448 289 448 276 429 c 0,24,25
 270 421 270 421 253.5 419 c 128,-1,26
 237 417 237 417 231 409 c 1,27,28
 225 399 225 399 220 387 c 128,-1,29
 215 375 215 375 209.5 358.5 c 128,-1,30
 204 342 204 342 202 335 c 0,31,32
 197 323 197 323 187 298.5 c 128,-1,33
 177 274 177 274 171 259 c 128,-1,34
 165 244 165 244 157 222.5 c 128,-1,35
 149 201 149 201 145 183 c 1,36,-1
 227 214 l 1,37,-1
 238 191 l 1,38,39
 228 183 228 183 184.5 159.5 c 128,-1,40
 141 136 141 136 127 119 c 0,41,42
 114 104 114 104 104 80 c 128,-1,43
 94 56 94 56 83 17 c 128,-1,44
 72 -22 72 -22 70 -28 c 1,45,-1
 43 -20 l 1,46,-1
 94 120 l 1,47,48
 61 123 61 123 45.5 144.5 c 128,-1,49
 30 166 30 166 32.5 193.5 c 128,-1,50
 35 221 35 221 41 249 c 1,51,52
 49 280 49 280 59 308.5 c 128,-1,53
 69 337 69 337 86.5 371 c 128,-1,54
 104 405 104 405 123.5 430 c 128,-1,55
 143 455 143 455 171 472.5 c 128,-1,56
 199 490 199 490 230 491 c 1,57,-1
 258 577 l 1,19,-1
EndSplineSet
EndChar

StartChar: sterling
Encoding: 163 163 101
Width: 479
Flags: W
LayerCount: 2
Fore
SplineSet
82 464 m 1,0,1
 88 464 88 464 113 460 c 128,-1,2
 138 456 138 456 156.5 456.5 c 128,-1,3
 175 457 175 457 186 464 c 0,4,5
 194 470 194 470 198.5 486.5 c 128,-1,6
 203 503 203 503 205.5 526 c 128,-1,7
 208 549 208 549 210 554 c 0,8,9
 222 607 222 607 242.5 644.5 c 128,-1,10
 263 682 263 682 301 706 c 0,11,12
 372 750 372 750 438 740 c 0,13,14
 450 738 450 738 464 732 c 128,-1,15
 478 726 478 726 486 722 c 128,-1,16
 494 718 494 718 508 716.5 c 128,-1,17
 522 715 522 715 535 722 c 1,18,19
 547 697 547 697 522 673.5 c 128,-1,20
 497 650 497 650 465 636 c 1,21,22
 453 656 453 656 437 671 c 1,23,24
 409 700 409 700 379.5 697 c 128,-1,25
 350 694 350 694 332 655 c 0,26,27
 327 646 327 646 323.5 636.5 c 128,-1,28
 320 627 320 627 316.5 615.5 c 128,-1,29
 313 604 313 604 310.5 595.5 c 128,-1,30
 308 587 308 587 305.5 572.5 c 128,-1,31
 303 558 303 558 301.5 551 c 128,-1,32
 300 544 300 544 297.5 527.5 c 128,-1,33
 295 511 295 511 294.5 506.5 c 128,-1,34
 294 502 294 502 291.5 484 c 128,-1,35
 289 466 289 466 289 464 c 1,36,-1
 492 476 l 1,37,38
 492 469 492 469 491.5 463 c 128,-1,39
 491 457 491 457 488.5 453 c 128,-1,40
 486 449 486 449 484.5 446 c 128,-1,41
 483 443 483 443 478 441.5 c 128,-1,42
 473 440 473 440 471 439 c 128,-1,43
 469 438 469 438 462 437.5 c 128,-1,44
 455 437 455 437 452.5 437 c 128,-1,45
 450 437 450 437 441.5 437 c 128,-1,46
 433 437 433 437 430 437 c 0,47,48
 425 437 425 437 405 437.5 c 128,-1,49
 385 438 385 438 371.5 437.5 c 128,-1,50
 358 437 358 437 340 436 c 128,-1,51
 322 435 322 435 308.5 431 c 128,-1,52
 295 427 295 427 286 421 c 0,53,54
 278 415 278 415 273.5 398 c 128,-1,55
 269 381 269 381 266.5 359.5 c 128,-1,56
 264 338 264 338 262 331 c 0,57,58
 238 237 238 237 164 198 c 1,59,-1
 164 195 l 1,60,61
 180 197 180 197 197 198 c 128,-1,62
 214 199 214 199 234 198.5 c 128,-1,63
 254 198 254 198 266 197.5 c 128,-1,64
 278 197 278 197 303 196 c 128,-1,65
 328 195 328 195 336 194 c 0,66,67
 339 194 339 194 363 190.5 c 128,-1,68
 387 187 387 187 398 190 c 0,69,70
 411 193 411 193 426 204.5 c 128,-1,71
 441 216 441 216 450.5 226 c 128,-1,72
 460 236 460 236 475 241.5 c 128,-1,73
 490 247 490 247 504 238 c 1,74,75
 434 129 434 129 387 118 c 1,76,77
 368 116 368 116 360.5 116.5 c 128,-1,78
 353 117 353 117 334 121 c 128,-1,79
 315 125 315 125 309 126 c 0,80,81
 130 152 130 152 78 105 c 1,82,-1
 74 105 l 1,83,-1
 55 120 l 1,84,85
 65 134 65 134 92.5 161 c 128,-1,86
 120 188 120 188 131 206 c 0,87,88
 140 221 140 221 147.5 240 c 128,-1,89
 155 259 155 259 159.5 272.5 c 128,-1,90
 164 286 164 286 168.5 311.5 c 128,-1,91
 173 337 173 337 174.5 346.5 c 128,-1,92
 176 356 176 356 179.5 386.5 c 128,-1,93
 183 417 183 417 184 421 c 1,94,-1
 62 425 l 1,95,-1
 82 464 l 1,0,1
EndSplineSet
EndChar

StartChar: currency
Encoding: 164 164 102
Width: 688
Flags: W
LayerCount: 2
Fore
SplineSet
363 607 m 0,0,1
 321 599 321 599 291.5 576.5 c 128,-1,2
 262 554 262 554 249.5 523.5 c 128,-1,3
 237 493 237 493 234.5 458.5 c 128,-1,4
 232 424 232 424 245.5 392 c 128,-1,5
 259 360 259 360 280 335.5 c 128,-1,6
 301 311 301 311 336.5 299 c 128,-1,7
 372 287 372 287 414 294 c 128,-1,8
 456 301 456 301 486 323.5 c 128,-1,9
 516 346 516 346 528 376.5 c 128,-1,10
 540 407 540 407 542.5 442 c 128,-1,11
 545 477 545 477 531.5 509 c 128,-1,12
 518 541 518 541 496.5 566 c 128,-1,13
 475 591 475 591 440 602.5 c 128,-1,14
 405 614 405 614 363 607 c 0,0,1
191 691 m 1,15,16
 196 688 196 688 220 662.5 c 128,-1,17
 244 637 244 637 258 635 c 0,18,19
 268 634 268 634 289 646 c 128,-1,20
 310 658 310 658 312 659 c 0,21,22
 350 673 350 673 406 671 c 0,23,24
 441 669 441 669 477 654 c 1,25,26
 479 652 479 652 488.5 646 c 128,-1,27
 498 640 498 640 505.5 637 c 128,-1,28
 513 634 513 634 520 635 c 0,29,30
 542 639 542 639 578 691 c 1,31,32
 606 671 606 671 610.5 652.5 c 128,-1,33
 615 634 615 634 603 619.5 c 128,-1,34
 591 605 591 605 562 585 c 1,35,-1
 562 581 l 1,36,37
 597 549 597 549 607 491.5 c 128,-1,38
 617 434 617 434 601 390 c 0,39,40
 598 379 598 379 587 358.5 c 128,-1,41
 576 338 576 338 574 327 c 0,42,43
 571 314 571 314 585 301 c 128,-1,44
 599 288 599 288 611.5 275 c 128,-1,45
 624 262 624 262 618 249 c 0,46,47
 615 243 615 243 605 234 c 1,48,49
 591 218 591 218 578.5 221.5 c 128,-1,50
 566 225 566 225 559 235 c 128,-1,51
 552 245 552 245 540.5 255.5 c 128,-1,52
 529 266 529 266 516 266 c 1,53,54
 499 264 499 264 464.5 247.5 c 128,-1,55
 430 231 430 231 410 230 c 0,56,57
 352 226 352 226 312 241 c 0,58,59
 307 243 307 243 296 250 c 128,-1,60
 285 257 285 257 275 261.5 c 128,-1,61
 265 266 265 266 258 265 c 0,62,63
 250 264 250 264 240.5 257.5 c 128,-1,64
 231 251 231 251 224.5 244.5 c 128,-1,65
 218 238 218 238 208 227.5 c 128,-1,66
 198 217 198 217 195 214 c 1,67,-1
 191 214 l 1,68,-1
 148 253 l 1,69,-1
 215 316 l 1,70,-1
 215 320 l 1,71,72
 191 340 191 340 178 376 c 128,-1,73
 165 412 165 412 166.5 447 c 128,-1,74
 168 482 168 482 176 515 c 0,75,76
 177 519 177 519 192 546 c 128,-1,77
 207 573 207 573 204 583 c 0,78,79
 199 604 199 604 148 640 c 1,80,-1
 191 691 l 1,15,16
EndSplineSet
EndChar

StartChar: yen
Encoding: 165 165 103
Width: 552
Flags: W
LayerCount: 2
Fore
SplineSet
117 710 m 1,0,1
 118 720 118 720 121.5 726.5 c 128,-1,2
 125 733 125 733 132.5 735.5 c 128,-1,3
 140 738 140 738 145.5 738.5 c 128,-1,4
 151 739 151 739 163.5 738.5 c 128,-1,5
 176 738 176 738 180 738 c 0,6,7
 212 738 212 738 275.5 736 c 128,-1,8
 339 734 339 734 371 734 c 1,9,10
 371 733 371 733 369.5 726.5 c 128,-1,11
 368 720 368 720 367 717 c 128,-1,12
 366 714 366 714 363.5 710 c 128,-1,13
 361 706 361 706 358 705 c 0,14,15
 355 703 355 703 332 699.5 c 128,-1,16
 309 696 309 696 305 682 c 0,17,18
 303 676 303 676 303 668 c 128,-1,19
 303 660 303 660 304 654 c 128,-1,20
 305 648 305 648 307.5 637.5 c 128,-1,21
 310 627 310 627 310 624 c 0,22,23
 315 598 315 598 330.5 549.5 c 128,-1,24
 346 501 346 501 352 476 c 1,25,26
 413 539 413 539 483 632 c 0,27,28
 485 634 485 634 491 641.5 c 128,-1,29
 497 649 497 649 500.5 654 c 128,-1,30
 504 659 504 659 509.5 668 c 128,-1,31
 515 677 515 677 515 681.5 c 128,-1,32
 515 686 515 686 515 693 c 1,33,34
 512 698 512 698 504.5 700.5 c 128,-1,35
 497 703 497 703 490.5 703 c 128,-1,36
 484 703 484 703 473.5 702.5 c 128,-1,37
 463 702 463 702 461 702 c 1,38,-1
 465 734 l 1,39,-1
 664 738 l 1,40,-1
 664 706 l 1,41,42
 630 705 630 705 598.5 688.5 c 128,-1,43
 567 672 567 672 539 642.5 c 128,-1,44
 511 613 511 613 490.5 586 c 128,-1,45
 470 559 470 559 443.5 520.5 c 128,-1,46
 417 482 417 482 402 464 c 1,47,-1
 562 464 l 1,48,49
 562 437 562 437 542.5 427.5 c 128,-1,50
 523 418 523 418 495.5 422 c 128,-1,51
 468 426 468 426 438.5 427 c 128,-1,52
 409 428 409 428 391 423 c 1,53,54
 384 420 384 420 379 413 c 128,-1,55
 374 406 374 406 370.5 394.5 c 128,-1,56
 367 383 367 383 365.5 376 c 128,-1,57
 364 369 364 369 362 354.5 c 128,-1,58
 360 340 360 340 359 339 c 1,59,-1
 551 339 l 1,60,-1
 547 300 l 1,61,-1
 348 300 l 1,62,63
 347 289 347 289 343 269.5 c 128,-1,64
 339 250 339 250 336 236 c 128,-1,65
 333 222 333 222 333 206.5 c 128,-1,66
 333 191 333 191 338 181.5 c 128,-1,67
 343 172 343 172 357 167 c 128,-1,68
 371 162 371 162 395 164 c 1,69,70
 417 167 417 167 434 171 c 1,71,-1
 430 140 l 1,72,73
 392 132 392 132 344.5 129 c 128,-1,74
 297 126 297 126 263 126 c 128,-1,75
 229 126 229 126 172 127 c 128,-1,76
 115 128 115 128 90 128 c 1,77,78
 94 143 94 143 104.5 149.5 c 128,-1,79
 115 156 115 156 126 155.5 c 128,-1,80
 137 155 137 155 151 157.5 c 128,-1,81
 165 160 165 160 175 169 c 0,82,83
 183 175 183 175 190 185.5 c 128,-1,84
 197 196 197 196 201 205.5 c 128,-1,85
 205 215 205 215 209.5 230.5 c 128,-1,86
 214 246 214 246 216 254 c 128,-1,87
 218 262 218 262 222 279 c 128,-1,88
 226 296 226 296 227 300 c 1,89,-1
 74 300 l 1,90,-1
 78 339 l 1,91,-1
 188 339 l 1,92,-1
 232 345 l 1,93,-1
 254 421 l 1,94,-1
 86 421 l 1,95,-1
 90 460 l 1,96,-1
 246 460 l 1,97,98
 244 469 244 469 239 497 c 128,-1,99
 234 525 234 525 230 543 c 128,-1,100
 226 561 226 561 219 589 c 128,-1,101
 212 617 212 617 203 635.5 c 128,-1,102
 194 654 194 654 182 672.5 c 128,-1,103
 170 691 170 691 153.5 700.5 c 128,-1,104
 137 710 137 710 117 710 c 1,0,1
EndSplineSet
EndChar

StartChar: brokenbar
Encoding: 166 166 104
Width: 531
Flags: W
LayerCount: 2
Fore
SplineSet
277 304 m 1,0,-1
 344 304 l 1,1,-1
 344 -48 l 1,2,-1
 277 -48 l 1,3,-1
 277 304 l 1,0,-1
277 804 m 1,4,-1
 344 804 l 1,5,-1
 344 452 l 1,6,-1
 277 452 l 1,7,-1
 277 804 l 1,4,-1
EndSplineSet
EndChar

StartChar: section
Encoding: 167 167 105
Width: 438
Flags: W
LayerCount: 2
Fore
SplineSet
191 515 m 1,0,1
 135 467 135 467 161 374 c 0,2,3
 174 329 174 329 215.5 249.5 c 128,-1,4
 257 170 257 170 270 132 c 1,5,6
 292 145 292 145 304 163 c 128,-1,7
 316 181 316 181 317.5 202 c 128,-1,8
 319 223 319 223 315.5 244 c 128,-1,9
 312 265 312 265 302 290 c 128,-1,10
 292 315 292 315 283 334 c 128,-1,11
 274 353 274 353 261.5 377 c 128,-1,12
 249 401 249 401 244 413 c 0,13,14
 242 418 242 418 235.5 433 c 128,-1,15
 229 448 229 448 225.5 456 c 128,-1,16
 222 464 222 464 216 476 c 128,-1,17
 210 488 210 488 204 497.5 c 128,-1,18
 198 507 198 507 191 515 c 1,0,1
184 542 m 1,19,20
 168 584 168 584 167 626 c 128,-1,21
 166 668 166 668 185.5 708.5 c 128,-1,22
 205 749 205 749 242 771 c 0,23,24
 265 785 265 785 303 793 c 128,-1,25
 341 801 341 801 380 794 c 128,-1,26
 419 787 419 787 433 760 c 1,27,28
 443 743 443 743 426 721 c 128,-1,29
 409 699 409 699 391 702 c 0,30,31
 375 705 375 705 356.5 718.5 c 128,-1,32
 338 732 338 732 325 743.5 c 128,-1,33
 312 755 312 755 294.5 754.5 c 128,-1,34
 277 754 277 754 259 733 c 0,35,36
 249 722 249 722 244 706 c 0,37,38
 227 651 227 651 267 554 c 0,39,40
 279 526 279 526 312.5 463.5 c 128,-1,41
 346 401 346 401 366 350 c 128,-1,42
 386 299 386 299 387 253 c 1,43,44
 387 189 387 189 335 136 c 0,45,46
 332 132 332 132 314.5 120.5 c 128,-1,47
 297 109 297 109 293 100 c 0,48,49
 287 89 287 89 294 50.5 c 128,-1,50
 301 12 301 12 301 7 c 0,51,52
 299 -51 299 -51 258.5 -96 c 128,-1,53
 218 -141 218 -141 160 -151 c 0,54,55
 131 -156 131 -156 99 -150 c 128,-1,56
 67 -144 67 -144 43 -128 c 1,57,58
 21 -110 21 -110 29.5 -89.5 c 128,-1,59
 38 -69 38 -69 62 -57 c 1,60,61
 78 -51 78 -51 96 -59.5 c 128,-1,62
 114 -68 114 -68 128.5 -81.5 c 128,-1,63
 143 -95 143 -95 162 -102.5 c 128,-1,64
 181 -110 181 -110 199 -101 c 0,65,66
 216 -92 216 -92 225.5 -79.5 c 128,-1,67
 235 -67 235 -67 236.5 -49.5 c 128,-1,68
 238 -32 238 -32 237 -17 c 128,-1,69
 236 -2 236 -2 229 19 c 128,-1,70
 222 40 222 40 217.5 51.5 c 128,-1,71
 213 63 213 63 205 83 c 0,72,73
 202 90 202 90 200 93 c 0,74,75
 191 115 191 115 169 155.5 c 128,-1,76
 147 196 147 196 129 228.5 c 128,-1,77
 111 261 111 261 95 303.5 c 128,-1,78
 79 346 79 346 75 380.5 c 128,-1,79
 71 415 71 415 83.5 450 c 128,-1,80
 96 485 96 485 129 511 c 0,81,82
 153 529 153 529 184 542 c 1,19,20
EndSplineSet
EndChar

StartChar: dieresis
Encoding: 168 168 106
Width: 333
Flags: W
LayerCount: 2
Fore
SplineSet
320 649 m 256,0,1
 348 657 348 657 366.5 637.5 c 128,-1,2
 385 618 385 618 380.5 591.5 c 128,-1,3
 376 565 376 565 347.5 556.5 c 128,-1,4
 319 548 319 548 300.5 568 c 128,-1,5
 282 588 282 588 287 614.5 c 128,-1,6
 292 641 292 641 320 649 c 256,0,1
156 649 m 256,7,8
 184 657 184 657 202.5 637.5 c 128,-1,9
 221 618 221 618 216.5 591.5 c 128,-1,10
 212 565 212 565 183.5 556.5 c 128,-1,11
 155 548 155 548 136.5 568 c 128,-1,12
 118 588 118 588 123 614.5 c 128,-1,13
 128 641 128 641 156 649 c 256,7,8
EndSplineSet
EndChar

StartChar: copyright
Encoding: 169 169 107
Width: 750
Flags: W
LayerCount: 2
Fore
SplineSet
582 351 m 1,0,1
 582 322 582 322 563.5 301 c 128,-1,2
 545 280 545 280 516.5 270.5 c 128,-1,3
 488 261 488 261 458.5 258 c 128,-1,4
 429 255 429 255 402 258 c 0,5,6
 315 266 315 266 263.5 331 c 128,-1,7
 212 396 212 396 224 484 c 0,8,9
 234 560 234 560 289.5 612 c 128,-1,10
 345 664 345 664 422 667 c 0,11,12
 433 668 433 668 460 662.5 c 128,-1,13
 487 657 487 657 509.5 652 c 128,-1,14
 532 647 532 647 552.5 650 c 128,-1,15
 573 653 573 653 578 667 c 1,16,-1
 598 667 l 1,17,-1
 598 538 l 1,18,19
 585 539 585 539 577 548.5 c 128,-1,20
 569 558 569 558 562.5 574 c 128,-1,21
 556 590 556 590 552 597 c 1,22,23
 533 622 533 622 503 634.5 c 128,-1,24
 473 647 473 647 441 643 c 0,25,26
 370 632 370 632 341 548 c 0,27,28
 313 466 313 466 341 382 c 0,29,30
 369 300 369 300 433 286 c 0,31,32
 457 281 457 281 484 288 c 0,33,34
 499 291 499 291 513.5 299 c 128,-1,35
 528 307 528 307 536 312.5 c 128,-1,36
 544 318 544 318 560 332 c 128,-1,37
 576 346 576 346 582 351 c 1,0,1
402 759 m 0,38,39
 319 748 319 748 258 705 c 0,40,41
 199 663 199 663 168 601.5 c 128,-1,42
 137 540 137 540 135.5 476.5 c 128,-1,43
 134 413 134 413 157 350.5 c 128,-1,44
 180 288 180 288 222.5 241 c 128,-1,45
 265 194 265 194 328.5 169 c 128,-1,46
 392 144 392 144 465 153 c 0,47,48
 541 162 541 162 602 201 c 1,49,50
 654 236 654 236 687 286 c 128,-1,51
 720 336 720 336 730.5 390.5 c 128,-1,52
 741 445 741 445 731.5 502 c 128,-1,53
 722 559 722 559 695 607.5 c 128,-1,54
 668 656 668 656 621.5 694.5 c 128,-1,55
 575 733 575 733 516 750 c 0,56,57
 459 767 459 767 402 759 c 0,38,39
398 798 m 0,58,59
 466 807 466 807 531 787 c 0,60,61
 597 767 597 767 648.5 724 c 128,-1,62
 700 681 700 681 731 627 c 128,-1,63
 762 573 762 573 773 509.5 c 128,-1,64
 784 446 784 446 774 386 c 128,-1,65
 764 326 764 326 728 269 c 128,-1,66
 692 212 692 212 633 172 c 1,67,68
 560 124 560 124 469 114 c 1,69,70
 417 107 417 107 352 122 c 0,71,72
 282 138 282 138 227.5 178.5 c 128,-1,73
 173 219 173 219 142 273 c 128,-1,74
 111 327 111 327 99.5 391.5 c 128,-1,75
 88 456 88 456 98.5 518 c 128,-1,76
 109 580 109 580 144 638 c 128,-1,77
 179 696 179 696 234 737 c 1,78,79
 301 785 301 785 398 798 c 0,58,59
EndSplineSet
EndChar

StartChar: ordfeminine
Encoding: 170 170 108
Width: 240
Flags: W
LayerCount: 2
Fore
SplineSet
137 566 m 1,0,1
 175 579 175 579 196 614 c 128,-1,2
 217 649 217 649 223 695 c 1,3,4
 137 688 137 688 137 566 c 1,0,1
199 573 m 1,5,6
 191 568 191 568 176.5 552.5 c 128,-1,7
 162 537 162 537 149 527 c 128,-1,8
 136 517 136 517 121 516 c 0,9,10
 102 514 102 514 90.5 528 c 128,-1,11
 79 542 79 542 78 562 c 1,12,13
 78 590 78 590 90 621 c 128,-1,14
 102 652 102 652 122 675 c 0,15,16
 138 694 138 694 158 707 c 128,-1,17
 178 720 178 720 205 727.5 c 128,-1,18
 232 735 232 735 250 738 c 128,-1,19
 268 741 268 741 301 745 c 1,20,-1
 258 558 l 1,21,-1
 297 585 l 1,22,-1
 309 562 l 1,23,24
 256 525 256 525 237 519 c 0,25,26
 196 505 196 505 195 550 c 0,27,28
 195 560 195 560 199 573 c 1,5,6
EndSplineSet
EndChar

StartChar: guillemotleft
Encoding: 171 171 109
Width: 406
Flags: W
LayerCount: 2
Fore
SplineSet
359 128 m 1,0,1
 341 128 341 128 322 143.5 c 128,-1,2
 303 159 303 159 290.5 177 c 128,-1,3
 278 195 278 195 261.5 221.5 c 128,-1,4
 245 248 245 248 238 257 c 0,5,6
 237 259 237 259 227.5 270.5 c 128,-1,7
 218 282 218 282 213 291 c 128,-1,8
 208 300 208 300 208 308 c 0,9,10
 209 317 209 317 217 326.5 c 128,-1,11
 225 336 225 336 240.5 348.5 c 128,-1,12
 256 361 256 361 258 362 c 0,13,14
 268 371 268 371 295 399.5 c 128,-1,15
 322 428 322 428 341.5 446.5 c 128,-1,16
 361 465 361 465 388.5 482 c 128,-1,17
 416 499 416 499 438 499 c 1,18,-1
 349 370 l 1,19,-1
 312 312 l 1,20,-1
 324 253 l 1,21,-1
 359 128 l 1,0,1
199 128 m 1,22,23
 182 128 182 128 162.5 144.5 c 128,-1,24
 143 161 143 161 131 178.5 c 128,-1,25
 119 196 119 196 101.5 225 c 128,-1,26
 84 254 84 254 79 261 c 0,27,28
 77 264 77 264 71 272 c 128,-1,29
 65 280 65 280 61 285.5 c 128,-1,30
 57 291 57 291 53.5 298.5 c 128,-1,31
 50 306 50 306 51 312 c 256,32,33
 52 318 52 318 58.5 326.5 c 128,-1,34
 65 335 65 335 71.5 340.5 c 128,-1,35
 78 346 78 346 88.5 354 c 128,-1,36
 99 362 99 362 102 365 c 0,37,38
 111 373 111 373 149 413 c 128,-1,39
 187 453 187 453 218.5 476 c 128,-1,40
 250 499 250 499 277 499 c 1,41,-1
 190 370 l 1,42,-1
 153 314 l 1,43,-1
 164 261 l 1,44,-1
 199 128 l 1,22,23
EndSplineSet
EndChar

StartChar: logicalnot
Encoding: 172 172 110
Width: 667
Flags: W
LayerCount: 2
Fore
SplineSet
109 538 m 1,0,-1
 641 538 l 1,1,-1
 641 253 l 1,2,-1
 578 253 l 1,3,-1
 578 476 l 1,4,-1
 109 476 l 1,5,-1
 109 538 l 1,0,-1
EndSplineSet
EndChar

StartChar: uni00AD
Encoding: 173 173 111
Width: 344
Flags: W
LayerCount: 2
Fore
SplineSet
340 370 m 1,0,-1
 340 366 l 1,1,-1
 352 366 l 1,2,-1
 340 370 l 1,0,-1
47 249 m 1,3,-1
 51 245 l 1,4,-1
 47 249 l 1,3,-1
352 366 m 1,5,6
 349 362 349 362 338 336.5 c 128,-1,7
 327 311 327 311 317 295.5 c 128,-1,8
 307 280 307 280 295 273 c 0,9,10
 290 269 290 269 282 268 c 128,-1,11
 274 267 274 267 260.5 268 c 128,-1,12
 247 269 247 269 246 269 c 0,13,14
 225 269 225 269 183.5 271 c 128,-1,15
 142 273 142 273 121 273 c 0,16,17
 115 273 115 273 98.5 266 c 128,-1,18
 82 259 82 259 67.5 254 c 128,-1,19
 53 249 53 249 51 252 c 0,20,21
 42 263 42 263 66.5 297 c 128,-1,22
 91 331 91 331 105 339 c 1,23,24
 126 349 126 349 160.5 348.5 c 128,-1,25
 195 348 195 348 223 344 c 128,-1,26
 251 340 251 340 281 344 c 0,27,28
 291 346 291 346 312.5 357.5 c 128,-1,29
 334 369 334 369 352 366 c 1,5,6
EndSplineSet
EndChar

StartChar: registered
Encoding: 174 174 112
Width: 750
Flags: W
LayerCount: 2
Fore
SplineSet
391 640 m 1,0,-1
 391 468 l 1,1,2
 392 468 392 468 395 468 c 0,3,4
 441 468 441 468 461 482 c 0,5,6
 490 504 490 504 493 551 c 128,-1,7
 496 598 496 598 468 622 c 0,8,9
 447 640 447 640 391 640 c 1,0,-1
250 659 m 1,10,-1
 430 659 l 2,11,12
 457 659 457 659 470 659 c 128,-1,13
 483 659 483 659 505.5 654.5 c 128,-1,14
 528 650 528 650 543 642 c 0,15,16
 583 619 583 619 593.5 576 c 128,-1,17
 604 533 604 533 581.5 496 c 128,-1,18
 559 459 559 459 512 452 c 1,19,-1
 586 316 l 1,20,-1
 629 265 l 1,21,22
 626 265 626 265 593 262.5 c 128,-1,23
 560 260 560 260 538 262 c 128,-1,24
 516 264 516 264 507 274 c 0,25,26
 494 288 494 288 482 309 c 128,-1,27
 470 330 470 330 457.5 357.5 c 128,-1,28
 445 385 445 385 438 398 c 0,29,30
 437 400 437 400 432.5 408.5 c 128,-1,31
 428 417 428 417 426.5 419.5 c 128,-1,32
 425 422 425 422 420.5 428 c 128,-1,33
 416 434 416 434 412.5 436.5 c 128,-1,34
 409 439 409 439 403 441.5 c 128,-1,35
 397 444 397 444 391 445 c 1,36,37
 391 434 391 434 389.5 412.5 c 128,-1,38
 388 391 388 391 387.5 376.5 c 128,-1,39
 387 362 387 362 389.5 343 c 128,-1,40
 392 324 392 324 398 312 c 128,-1,41
 404 300 404 300 417 291 c 128,-1,42
 430 282 430 282 449 280 c 1,43,-1
 449 265 l 1,44,-1
 242 265 l 1,45,-1
 242 280 l 1,46,47
 287 282 287 282 292 327 c 0,48,49
 296 362 296 362 296.5 401.5 c 128,-1,50
 297 441 297 441 295 490.5 c 128,-1,51
 293 540 293 540 293 566 c 0,52,53
 293 583 293 583 292 593 c 128,-1,54
 291 603 291 603 287 614.5 c 128,-1,55
 283 626 283 626 274 633 c 128,-1,56
 265 640 265 640 250 644 c 1,57,-1
 250 659 l 1,10,-1
402 759 m 0,58,59
 319 748 319 748 258 705 c 0,60,61
 199 663 199 663 168 601.5 c 128,-1,62
 137 540 137 540 135.5 476.5 c 128,-1,63
 134 413 134 413 157 350.5 c 128,-1,64
 180 288 180 288 222.5 241 c 128,-1,65
 265 194 265 194 328.5 169 c 128,-1,66
 392 144 392 144 465 153 c 0,67,68
 541 162 541 162 602 201 c 1,69,70
 654 236 654 236 687 286 c 128,-1,71
 720 336 720 336 730.5 390.5 c 128,-1,72
 741 445 741 445 731.5 502 c 128,-1,73
 722 559 722 559 695 607.5 c 128,-1,74
 668 656 668 656 621.5 694.5 c 128,-1,75
 575 733 575 733 516 750 c 0,76,77
 459 767 459 767 402 759 c 0,58,59
398 798 m 0,78,79
 466 807 466 807 531 787 c 0,80,81
 597 767 597 767 648.5 724 c 128,-1,82
 700 681 700 681 731 627 c 128,-1,83
 762 573 762 573 773 509.5 c 128,-1,84
 784 446 784 446 774 386 c 128,-1,85
 764 326 764 326 728 269 c 128,-1,86
 692 212 692 212 633 172 c 1,87,88
 560 124 560 124 469 114 c 1,89,90
 417 107 417 107 352 122 c 0,91,92
 282 138 282 138 227.5 178.5 c 128,-1,93
 173 219 173 219 142 273 c 128,-1,94
 111 327 111 327 99.5 391.5 c 128,-1,95
 88 456 88 456 98.5 518 c 128,-1,96
 109 580 109 580 144 638 c 128,-1,97
 179 696 179 696 234 737 c 1,98,99
 301 785 301 785 398 798 c 0,78,79
EndSplineSet
EndChar

StartChar: macron
Encoding: 175 175 113
Width: 333
Flags: W
LayerCount: 2
Fore
SplineSet
121 628 m 1,0,-1
 363 628 l 1,1,-1
 348 546 l 1,2,-1
 105 546 l 1,3,-1
 121 628 l 1,0,-1
EndSplineSet
EndChar

StartChar: degree
Encoding: 176 176 114
Width: 396
Flags: W
LayerCount: 2
Fore
SplineSet
242 677 m 0,0,1
 215 672 215 672 195.5 656.5 c 128,-1,2
 176 641 176 641 168 620.5 c 128,-1,3
 160 600 160 600 159 577 c 128,-1,4
 158 554 158 554 167.5 533 c 128,-1,5
 177 512 177 512 191.5 495.5 c 128,-1,6
 206 479 206 479 230 472 c 128,-1,7
 254 465 254 465 281.5 470 c 128,-1,8
 309 475 309 475 328.5 490.5 c 128,-1,9
 348 506 348 506 355.5 526.5 c 128,-1,10
 363 547 363 547 364 570 c 128,-1,11
 365 593 365 593 355.5 614 c 128,-1,12
 346 635 346 635 331.5 651.5 c 128,-1,13
 317 668 317 668 293.5 675 c 128,-1,14
 270 682 270 682 242 677 c 0,0,1
234 740 m 0,15,16
 278 747 278 747 315.5 735 c 128,-1,17
 353 723 353 723 376 696.5 c 128,-1,18
 399 670 399 670 413 636.5 c 128,-1,19
 427 603 427 603 424.5 566 c 128,-1,20
 422 529 422 529 409 496.5 c 128,-1,21
 396 464 396 464 364.5 439.5 c 128,-1,22
 333 415 333 415 289 407 c 256,23,24
 245 399 245 399 207.5 411.5 c 128,-1,25
 170 424 170 424 147.5 450 c 128,-1,26
 125 476 125 476 110.5 510 c 128,-1,27
 96 544 96 544 98.5 581 c 128,-1,28
 101 618 101 618 114 650.5 c 128,-1,29
 127 683 127 683 158.5 707.5 c 128,-1,30
 190 732 190 732 234 740 c 0,15,16
EndSplineSet
EndChar

StartChar: plusminus
Encoding: 177 177 115
Width: 667
Flags: W
LayerCount: 2
Fore
SplineSet
113 191 m 1,0,-1
 645 191 l 1,1,-1
 645 128 l 1,2,-1
 113 128 l 1,3,-1
 113 191 l 1,0,-1
348 796 m 1,4,-1
 410 796 l 1,5,-1
 410 573 l 1,6,-1
 645 573 l 1,7,-1
 645 511 l 1,8,-1
 410 511 l 1,9,-1
 410 288 l 1,10,-1
 348 288 l 1,11,-1
 348 511 l 1,12,-1
 113 511 l 1,13,-1
 113 573 l 1,14,-1
 348 573 l 1,15,-1
 348 796 l 1,4,-1
EndSplineSet
EndChar

StartChar: two.superior
Encoding: 178 178 116
Width: 302
Flags: W
LayerCount: 2
Fore
SplineSet
145 761 m 1,0,1
 164 820 164 820 215 839 c 1,2,3
 243 848 243 848 273.5 846.5 c 128,-1,4
 304 845 304 845 329.5 826 c 128,-1,5
 355 807 355 807 359 777 c 0,6,7
 362 752 362 752 352.5 728 c 128,-1,8
 343 704 343 704 321 680 c 128,-1,9
 299 656 299 656 282 641 c 128,-1,10
 265 626 265 626 234 603 c 128,-1,11
 203 580 203 580 195 573 c 1,12,-1
 367 589 l 1,13,-1
 327 530 l 1,14,-1
 258 527 l 1,15,-1
 98 519 l 1,16,17
 101 533 101 533 111.5 544.5 c 128,-1,18
 122 556 122 556 142.5 570 c 128,-1,19
 163 584 163 584 168 588 c 0,20,21
 261 665 261 665 283 730 c 0,22,23
 300 780 300 780 266 801 c 0,24,25
 236 820 236 820 205 797 c 0,26,27
 184 782 184 782 176 753 c 1,28,-1
 145 761 l 1,0,1
EndSplineSet
EndChar

StartChar: three.superior
Encoding: 179 179 117
Width: 302
Flags: W
LayerCount: 2
Fore
SplineSet
176 765 m 1,0,-1
 180 761 l 1,1,-1
 176 765 l 1,0,-1
180 765 m 1,2,3
 180 796 180 796 205 818.5 c 128,-1,4
 230 841 230 841 262 845.5 c 128,-1,5
 294 850 294 850 324 842 c 1,6,7
 354 831 354 831 357 804.5 c 128,-1,8
 360 778 360 778 339 757 c 0,9,10
 333 751 333 751 293 718 c 1,11,12
 334 706 334 706 346.5 674 c 128,-1,13
 359 642 359 642 336 605 c 1,14,15
 321 583 321 583 289.5 561.5 c 128,-1,16
 258 540 258 540 222.5 527.5 c 128,-1,17
 187 515 187 515 154 522.5 c 128,-1,18
 121 530 121 530 105 562 c 1,19,20
 120 569 120 569 136 566.5 c 128,-1,21
 152 564 152 564 164 558 c 128,-1,22
 176 552 176 552 193 550.5 c 128,-1,23
 210 549 210 549 227 559 c 0,24,25
 247 571 247 571 264.5 593.5 c 128,-1,26
 282 616 282 616 284.5 641 c 128,-1,27
 287 666 287 666 258 682 c 1,28,29
 250 685 250 685 241 686 c 128,-1,30
 232 687 232 687 225 685.5 c 128,-1,31
 218 684 218 684 207.5 682 c 128,-1,32
 197 680 197 680 191 679 c 1,33,34
 199 696 199 696 217 707.5 c 128,-1,35
 235 719 235 719 255.5 730 c 128,-1,36
 276 741 276 741 285 757 c 1,37,38
 297 775 297 775 286.5 794 c 128,-1,39
 276 813 276 813 254 810 c 0,40,41
 241 809 241 809 228.5 801.5 c 128,-1,42
 216 794 216 794 201 781.5 c 128,-1,43
 186 769 186 769 180 765 c 1,2,3
EndSplineSet
EndChar

StartChar: acute
Encoding: 180 180 118
Width: 333
Flags: W
LayerCount: 2
Fore
SplineSet
207 550 m 1,0,1
 209 554 209 554 214 563 c 0,2,3
 225 585 225 585 231.5 596.5 c 128,-1,4
 238 608 238 608 251 628 c 128,-1,5
 264 648 264 648 274 659 c 128,-1,6
 284 670 284 670 299.5 682.5 c 128,-1,7
 315 695 315 695 329.5 699.5 c 128,-1,8
 344 704 344 704 363 703.5 c 128,-1,9
 382 703 382 703 402 695 c 1,10,11
 386 683 386 683 359 656 c 128,-1,12
 332 629 332 629 310.5 607 c 128,-1,13
 289 585 289 585 260.5 567.5 c 128,-1,14
 232 550 232 550 207 550 c 1,0,1
EndSplineSet
EndChar

StartChar: mu
Encoding: 181 181 119
Width: 500
Flags: W
LayerCount: 2
Fore
SplineSet
102 167 m 1,0,1
 100 159 100 159 93 132.5 c 128,-1,2
 86 106 86 106 82.5 89 c 128,-1,3
 79 72 79 72 78 54 c 0,4,5
 77 46 77 46 76 24.5 c 128,-1,6
 75 3 75 3 73.5 -9.5 c 128,-1,7
 72 -22 72 -22 67 -39 c 128,-1,8
 62 -56 62 -56 55 -67 c 0,9,10
 42 -86 42 -86 18 -86 c 128,-1,11
 -6 -86 -6 -86 -14 -63 c 1,12,13
 -20 -42 -20 -42 -11 -15.5 c 128,-1,14
 -2 11 -2 11 16.5 44 c 128,-1,15
 35 77 35 77 40 89 c 0,16,17
 57 131 57 131 72.5 180.5 c 128,-1,18
 88 230 88 230 105.5 289.5 c 128,-1,19
 123 349 123 349 134 382 c 0,20,21
 136 388 136 388 141.5 413.5 c 128,-1,22
 147 439 147 439 153.5 458 c 128,-1,23
 160 477 160 477 170 483 c 0,24,25
 177 488 177 488 189 489 c 128,-1,26
 201 490 201 490 218 489 c 128,-1,27
 235 488 235 488 238 488 c 1,28,29
 232 466 232 466 209 390 c 128,-1,30
 186 314 186 314 176 273 c 0,31,32
 175 270 175 270 172 258.5 c 128,-1,33
 169 247 169 247 168 242 c 128,-1,34
 167 237 167 237 166 227 c 128,-1,35
 165 217 165 217 166 211 c 128,-1,36
 167 205 167 205 169.5 197 c 128,-1,37
 172 189 172 189 177 183 c 0,38,39
 190 168 190 168 207 165 c 128,-1,40
 224 162 224 162 241.5 169 c 128,-1,41
 259 176 259 176 274 187 c 128,-1,42
 289 198 289 198 300 210 c 0,43,44
 372 288 372 288 418 488 c 1,45,-1
 492 488 l 1,46,47
 482 443 482 443 456 362 c 128,-1,48
 430 281 430 281 422 249 c 0,49,50
 419 235 419 235 417.5 226.5 c 128,-1,51
 416 218 416 218 415.5 203 c 128,-1,52
 415 188 415 188 421.5 179.5 c 128,-1,53
 428 171 428 171 441 169 c 1,54,55
 456 168 456 168 467.5 177 c 128,-1,56
 479 186 479 186 486 198.5 c 128,-1,57
 493 211 493 211 504 222 c 128,-1,58
 515 233 515 233 527 234 c 1,59,60
 499 147 499 147 445.5 124 c 128,-1,61
 392 101 392 101 359.5 136.5 c 128,-1,62
 327 172 327 172 340 226 c 1,63,64
 334 219 334 219 322.5 204.5 c 128,-1,65
 311 190 311 190 304 183 c 0,66,67
 286 163 286 163 258.5 146 c 128,-1,68
 231 129 231 129 200.5 119.5 c 128,-1,69
 170 110 170 110 143 121 c 128,-1,70
 116 132 116 132 105 167 c 1,71,-1
 102 167 l 1,0,1
EndSplineSet
EndChar

StartChar: paragraph
Encoding: 182 182 120
Width: 490
Flags: W
LayerCount: 2
Fore
SplineSet
305 77 m 1,0,-1
 316 577 l 1,1,2
 284 568 284 568 271 543.5 c 128,-1,3
 258 519 258 519 255 480 c 0,4,5
 237 294 237 294 252 179 c 0,6,7
 255 156 255 156 256.5 146.5 c 128,-1,8
 258 137 258 137 263.5 121 c 128,-1,9
 269 105 269 105 279 95 c 128,-1,10
 289 85 289 85 305 77 c 1,0,-1
434 11 m 1,11,12
 324 25 324 25 249.5 68.5 c 128,-1,13
 175 112 175 112 122 202 c 0,14,15
 72 285 72 285 74 331 c 0,16,17
 76 355 76 355 87.5 383.5 c 128,-1,18
 99 412 99 412 110 430 c 128,-1,19
 121 448 121 448 139 476 c 1,20,21
 181 537 181 537 211 562 c 0,22,23
 267 607 267 607 350 627 c 128,-1,24
 433 647 433 647 520 648 c 1,25,-1
 516 612 l 1,26,-1
 348 589 l 1,27,-1
 340 62 l 1,28,29
 345 61 345 61 357 60 c 128,-1,30
 369 59 369 59 375.5 58 c 128,-1,31
 382 57 382 57 392.5 54.5 c 128,-1,32
 403 52 403 52 409 49 c 128,-1,33
 415 46 415 46 421.5 41 c 128,-1,34
 428 36 428 36 431 28.5 c 128,-1,35
 434 21 434 21 434 11 c 1,11,12
EndSplineSet
EndChar

StartChar: periodcentered
Encoding: 183 183 121
Width: 177
Flags: W
LayerCount: 2
Fore
SplineSet
141 481 m 0,0,1
 170 487 170 487 177 454 c 1,2,3
 183 420 183 420 160 396 c 0,4,5
 150 385 150 385 137 383 c 0,6,7
 101 377 101 377 97 411 c 0,8,9
 93 444 93 444 117 468 c 0,10,11
 128 478 128 478 141 481 c 0,0,1
EndSplineSet
EndChar

StartChar: cedilla
Encoding: 184 184 122
Width: 333
Flags: W
LayerCount: 2
Fore
SplineSet
113 46 m 1,0,1
 114 48 114 48 116 52 c 0,2,3
 123 69 123 69 128 79 c 128,-1,4
 133 89 133 89 142.5 104.5 c 128,-1,5
 152 120 152 120 163.5 128 c 128,-1,6
 175 136 175 136 188 136 c 1,7,-1
 164 89 l 1,8,9
 188 85 188 85 198.5 66 c 128,-1,10
 209 47 209 47 206 24.5 c 128,-1,11
 203 2 203 2 191 -16 c 0,12,13
 157 -67 157 -67 74 -67 c 1,14,-1
 74 -40 l 1,15,16
 124 -33 124 -33 143 -12 c 1,17,18
 160 10 160 10 149.5 27 c 128,-1,19
 139 44 139 44 113 46 c 1,0,1
EndSplineSet
EndChar

StartChar: one.superior
Encoding: 185 185 123
Width: 302
Flags: W
LayerCount: 2
Fore
SplineSet
273 530 m 1,0,-1
 273 527 l 1,1,-1
 316 527 l 1,2,-1
 273 530 l 1,0,-1
191 843 m 1,3,-1
 328 847 l 1,4,5
 325 832 325 832 316 792 c 128,-1,6
 307 752 307 752 302 730 c 128,-1,7
 297 708 297 708 288 674.5 c 128,-1,8
 279 641 279 641 270 613.5 c 128,-1,9
 261 586 261 586 250 562 c 1,10,11
 256 560 256 560 270 557 c 128,-1,12
 284 554 284 554 292 552 c 128,-1,13
 300 550 300 550 308.5 543.5 c 128,-1,14
 317 537 317 537 320 527 c 1,15,-1
 168 527 l 1,16,17
 188 586 188 586 232 730 c 0,18,19
 233 733 233 733 236 742.5 c 128,-1,20
 239 752 239 752 241.5 759.5 c 128,-1,21
 244 767 244 767 246.5 776 c 128,-1,22
 249 785 249 785 248.5 793 c 128,-1,23
 248 801 248 801 245 806 c 0,24,25
 242 812 242 812 234 815.5 c 128,-1,26
 226 819 226 819 219.5 820 c 128,-1,27
 213 821 213 821 201 822 c 128,-1,28
 189 823 189 823 188 823 c 2,29,-1
 191 843 l 1,3,-1
EndSplineSet
EndChar

StartChar: ordmasculine
Encoding: 186 186 124
Width: 208
Flags: W
LayerCount: 2
Fore
SplineSet
165 694 m 0,0,1
 146 684 146 684 143.5 645.5 c 128,-1,2
 141 607 141 607 151 589 c 1,3,4
 156 576 156 576 167 567.5 c 128,-1,5
 178 559 178 559 190 564 c 0,6,7
 211 573 211 573 216.5 613 c 128,-1,8
 222 653 222 653 211 671 c 1,9,10
 204 685 204 685 190.5 693 c 128,-1,11
 177 701 177 701 165 694 c 0,0,1
184 743 m 0,12,13
 215 750 215 750 242.5 728.5 c 128,-1,14
 270 707 270 707 273 675 c 0,15,16
 276 634 276 634 247 582 c 128,-1,17
 218 530 218 530 180 520 c 0,18,19
 143 511 143 511 113.5 537 c 128,-1,20
 84 563 84 563 82 601 c 0,21,22
 80 645 80 645 110.5 689 c 128,-1,23
 141 733 141 733 184 743 c 0,12,13
EndSplineSet
EndChar

StartChar: guillemotright
Encoding: 187 187 125
Width: 406
Flags: W
LayerCount: 2
Fore
SplineSet
281 499 m 1,0,1
 289 499 289 499 296 497 c 128,-1,2
 303 495 303 495 307.5 493 c 128,-1,3
 312 491 312 491 317.5 484.5 c 128,-1,4
 323 478 323 478 325 475.5 c 128,-1,5
 327 473 327 473 333.5 464 c 128,-1,6
 340 455 340 455 341 452 c 0,7,8
 349 441 349 441 371.5 410.5 c 128,-1,9
 394 380 394 380 409 358.5 c 128,-1,10
 424 337 424 337 438 316 c 1,11,12
 386 264 386 264 281 173 c 0,13,14
 278 170 278 170 265 158.5 c 128,-1,15
 252 147 252 147 246.5 143 c 128,-1,16
 241 139 241 139 230 133.5 c 128,-1,17
 219 128 219 128 207 128 c 1,18,-1
 328 312 l 1,19,-1
 318 366 l 1,20,-1
 281 499 l 1,0,1
121 499 m 1,21,22
 128 499 128 499 134 498 c 128,-1,23
 140 497 140 497 145 494 c 128,-1,24
 150 491 150 491 153.5 489 c 128,-1,25
 157 487 157 487 162 481 c 128,-1,26
 167 475 167 475 168.5 473 c 128,-1,27
 170 471 170 471 175.5 462.5 c 128,-1,28
 181 454 181 454 182 452 c 0,29,30
 191 440 191 440 214 410.5 c 128,-1,31
 237 381 237 381 253 357.5 c 128,-1,32
 269 334 269 334 277 312 c 1,33,34
 259 298 259 298 238 279.5 c 128,-1,35
 217 261 217 261 202.5 248 c 128,-1,36
 188 235 188 235 164 212 c 128,-1,37
 140 189 140 189 129 179 c 0,38,39
 125 175 125 175 114.5 165 c 128,-1,40
 104 155 104 155 98.5 150.5 c 128,-1,41
 93 146 93 146 84 140 c 128,-1,42
 75 134 75 134 66 131 c 128,-1,43
 57 128 57 128 47 128 c 1,44,-1
 133 257 l 1,45,-1
 170 313 l 1,46,-1
 159 366 l 1,47,-1
 121 499 l 1,21,22
EndSplineSet
EndChar

StartChar: onequarter
Encoding: 188 188 126
Width: 677
Flags: W
LayerCount: 2
Fore
SplineSet
465 284 m 1,0,-1
 559 284 l 1,1,-1
 590 394 l 1,2,3
 555 381 555 381 521 350 c 128,-1,4
 487 319 487 319 465 284 c 1,0,-1
164 718 m 1,5,6
 168 727 168 727 180 733 c 128,-1,7
 192 739 192 739 210.5 740.5 c 128,-1,8
 229 742 229 742 244 742.5 c 128,-1,9
 259 743 259 743 279.5 742 c 128,-1,10
 300 741 300 741 305 741 c 1,11,-1
 227 456 l 1,12,13
 230 455 230 455 241 453.5 c 128,-1,14
 252 452 252 452 258 450.5 c 128,-1,15
 264 449 264 449 272 446 c 128,-1,16
 280 443 280 443 285 437.5 c 128,-1,17
 290 432 290 432 293 425 c 1,18,-1
 148 425 l 1,19,20
 154 454 154 454 164 488 c 128,-1,21
 174 522 174 522 188 562.5 c 128,-1,22
 202 603 202 603 208 624 c 0,23,24
 209 628 209 628 212.5 637 c 128,-1,25
 216 646 216 646 218.5 654 c 128,-1,26
 221 662 221 662 223 671 c 128,-1,27
 225 680 225 680 225 688 c 128,-1,28
 225 696 225 696 222 701 c 0,29,30
 218 708 218 708 208 711.5 c 128,-1,31
 198 715 198 715 182 716.5 c 128,-1,32
 166 718 166 718 164 718 c 1,5,6
402 241 m 1,33,34
 433 312 433 312 513.5 379 c 128,-1,35
 594 446 594 446 668 456 c 1,36,-1
 621 284 l 1,37,-1
 676 284 l 1,38,-1
 664 241 l 1,39,40
 661 241 661 241 652.5 241.5 c 128,-1,41
 644 242 644 242 638.5 242 c 128,-1,42
 633 242 633 242 626 241 c 128,-1,43
 619 240 619 240 614 237 c 0,44,45
 607 232 607 232 600.5 216.5 c 128,-1,46
 594 201 594 201 590.5 187.5 c 128,-1,47
 587 174 587 174 583 153 c 128,-1,48
 579 132 579 132 578 128 c 1,49,-1
 512 124 l 1,50,-1
 543 241 l 1,51,-1
 402 241 l 1,33,34
152 105 m 1,52,-1
 483 616 l 1,53,-1
 549 734 l 1,54,-1
 579 780 l 1,55,-1
 641 788 l 1,56,57
 622 752 622 752 577 690 c 128,-1,58
 532 628 532 628 522 612 c 0,59,60
 415 446 415 446 299 241 c 0,61,62
 295 234 295 234 289 222 c 128,-1,63
 283 210 283 210 278 200 c 128,-1,64
 273 190 273 190 265.5 176.5 c 128,-1,65
 258 163 258 163 251.5 153.5 c 128,-1,66
 245 144 245 144 236.5 132.5 c 128,-1,67
 228 121 228 121 219.5 115.5 c 128,-1,68
 211 110 211 110 199.5 104.5 c 128,-1,69
 188 99 188 99 177 100 c 128,-1,70
 166 101 166 101 152 105 c 1,52,-1
EndSplineSet
EndChar

StartChar: onehalf
Encoding: 189 189 127
Width: 677
Flags: W
LayerCount: 2
Fore
SplineSet
168 738 m 1,0,-1
 305 741 l 1,1,-1
 223 452 l 1,2,3
 223 452 223 452 232.5 451 c 128,-1,4
 242 450 242 450 245 449.5 c 128,-1,5
 248 449 248 449 256 447.5 c 128,-1,6
 264 446 264 446 268 444 c 128,-1,7
 272 442 272 442 277.5 439.5 c 128,-1,8
 283 437 283 437 286.5 433.5 c 128,-1,9
 290 430 290 430 293 425 c 1,10,-1
 145 425 l 1,11,12
 184 522 184 522 227 706 c 1,13,-1
 164 718 l 1,14,-1
 168 738 l 1,0,-1
445 362 m 1,15,16
 453 386 453 386 475 407 c 128,-1,17
 497 428 497 428 524.5 438.5 c 128,-1,18
 552 449 552 449 579.5 450 c 128,-1,19
 607 451 607 451 629 434.5 c 128,-1,20
 651 418 651 418 658 386 c 0,21,22
 664 362 664 362 654.5 335.5 c 128,-1,23
 645 309 645 309 630 289.5 c 128,-1,24
 615 270 615 270 587.5 246 c 128,-1,25
 560 222 560 222 543.5 210.5 c 128,-1,26
 527 199 527 199 500 180 c 0,27,28
 495 177 495 177 492 175 c 1,29,-1
 668 187 l 1,30,-1
 628 132 l 1,31,-1
 559 128 l 1,32,-1
 398 120 l 1,33,34
 401 134 401 134 411.5 145.5 c 128,-1,35
 422 157 422 157 440.5 169.5 c 128,-1,36
 459 182 459 182 465 187 c 0,37,38
 495 212 495 212 514 230 c 128,-1,39
 533 248 533 248 554.5 277.5 c 128,-1,40
 576 307 576 307 585 335 c 0,41,42
 601 386 601 386 566 404 c 0,43,44
 535 421 535 421 504 397 c 0,45,46
 484 382 484 382 477 355 c 1,47,-1
 445 362 l 1,15,16
141 425 m 1,48,-1
 145 421 l 1,49,-1
 141 425 l 1,48,-1
152 105 m 1,50,-1
 156 101 l 1,51,-1
 152 105 l 1,50,-1
156 105 m 1,52,-1
 270 273 l 1,53,-1
 491 624 l 1,54,-1
 552 734 l 1,55,-1
 581 780 l 1,56,-1
 645 788 l 1,57,58
 624 753 624 753 580.5 692 c 128,-1,59
 537 631 537 631 522 609 c 0,60,61
 425 458 425 458 301 241 c 0,62,63
 297 235 297 235 291 223 c 128,-1,64
 285 211 285 211 280 200.5 c 128,-1,65
 275 190 275 190 268 177.5 c 128,-1,66
 261 165 261 165 254 154.5 c 128,-1,67
 247 144 247 144 238.5 133.5 c 128,-1,68
 230 123 230 123 221 116 c 128,-1,69
 212 109 212 109 202 104.5 c 128,-1,70
 192 100 192 100 180.5 100 c 128,-1,71
 169 100 169 100 156 105 c 1,52,-1
EndSplineSet
EndChar

StartChar: threequarters
Encoding: 190 190 128
Width: 677
Flags: W
LayerCount: 2
Fore
SplineSet
465 284 m 1,0,-1
 559 284 l 1,1,-1
 590 394 l 1,2,3
 555 381 555 381 521.5 350 c 128,-1,4
 488 319 488 319 465 284 c 1,0,-1
156 659 m 1,5,6
 157 705 157 705 205 729 c 128,-1,7
 253 753 253 753 297 737 c 0,8,9
 325 727 325 727 329.5 700 c 128,-1,10
 334 673 334 673 315 652 c 1,11,12
 307 641 307 641 270 609 c 1,13,14
 310 600 310 600 323 567.5 c 128,-1,15
 336 535 336 535 313 499 c 0,16,17
 299 477 299 477 267.5 455.5 c 128,-1,18
 236 434 236 434 200 421.5 c 128,-1,19
 164 409 164 409 130.5 416.5 c 128,-1,20
 97 424 97 424 82 456 c 1,21,22
 103 466 103 466 136 452 c 128,-1,23
 169 438 169 438 191 447.5 c 128,-1,24
 213 457 213 457 234 479 c 128,-1,25
 255 501 255 501 260.5 526 c 128,-1,26
 266 551 266 551 238 570 c 0,27,28
 229 575 229 575 218.5 576 c 128,-1,29
 208 577 208 577 193 575 c 128,-1,30
 178 573 178 573 172 573 c 1,31,32
 176 590 176 590 194 601.5 c 128,-1,33
 212 613 212 613 232.5 625 c 128,-1,34
 253 637 253 637 262 652 c 0,35,36
 273 670 273 670 263 688.5 c 128,-1,37
 253 707 253 707 230 705 c 0,38,39
 217 703 217 703 204.5 696 c 128,-1,40
 192 689 192 689 177.5 676.5 c 128,-1,41
 163 664 163 664 156 659 c 1,5,6
168 573 m 1,42,-1
 172 570 l 1,43,-1
 168 573 l 1,42,-1
402 241 m 1,44,45
 433 313 433 313 515 380 c 128,-1,46
 597 447 597 447 672 456 c 1,47,-1
 621 284 l 1,48,-1
 676 284 l 1,49,-1
 659 244 l 1,50,-1
 612 235 l 1,51,-1
 575 132 l 1,52,-1
 512 124 l 1,53,-1
 543 241 l 1,54,-1
 402 241 l 1,44,45
152 105 m 1,55,-1
 484 616 l 1,56,-1
 548 730 l 1,57,-1
 580 780 l 1,58,-1
 645 788 l 1,59,60
 627 762 627 762 576 684.5 c 128,-1,61
 525 607 525 607 500.5 569.5 c 128,-1,62
 476 532 476 532 435.5 469.5 c 128,-1,63
 395 407 395 407 363 353 c 128,-1,64
 331 299 331 299 301 245 c 0,65,66
 297 238 297 238 291 225.5 c 128,-1,67
 285 213 285 213 280 203 c 128,-1,68
 275 193 275 193 267.5 179 c 128,-1,69
 260 165 260 165 253.5 155.5 c 128,-1,70
 247 146 247 146 237.5 134.5 c 128,-1,71
 228 123 228 123 219.5 117 c 128,-1,72
 211 111 211 111 200 105 c 128,-1,73
 189 99 189 99 178 100.5 c 128,-1,74
 167 102 167 102 152 105 c 1,55,-1
EndSplineSet
EndChar

StartChar: questiondown
Encoding: 191 191 129
Width: 323
Flags: W
LayerCount: 2
Fore
SplineSet
281 284 m 1,0,1
 271 153 271 153 184 120 c 0,2,3
 168 114 168 114 140 109.5 c 128,-1,4
 112 105 112 105 89.5 97.5 c 128,-1,5
 67 90 67 90 51 73 c 1,6,7
 28 46 28 46 32.5 16.5 c 128,-1,8
 37 -13 37 -13 62 -37 c 128,-1,9
 87 -61 87 -61 117 -66 c 0,10,11
 132 -68 132 -68 143.5 -63.5 c 128,-1,12
 155 -59 155 -59 168.5 -49.5 c 128,-1,13
 182 -40 182 -40 191 -36 c 0,14,15
 201 -32 201 -32 207.5 -36.5 c 128,-1,16
 214 -41 214 -41 214 -52 c 0,17,18
 213 -92 213 -92 185 -114.5 c 128,-1,19
 157 -137 157 -137 121.5 -138 c 128,-1,20
 86 -139 86 -139 49.5 -124.5 c 128,-1,21
 13 -110 13 -110 -4 -83 c 1,22,23
 -24 -45 -24 -45 -19.5 2.5 c 128,-1,24
 -15 50 -15 50 11 95.5 c 128,-1,25
 37 141 37 141 70 159 c 0,26,27
 90 170 90 170 133 178.5 c 128,-1,28
 176 187 176 187 195 198 c 0,29,30
 210 207 210 207 223.5 229 c 128,-1,31
 237 251 237 251 250 267.5 c 128,-1,32
 263 284 263 284 281 284 c 1,0,1
262 449 m 0,33,34
 296 463 296 463 309 433 c 0,35,36
 322 405 322 405 303 380 c 1,37,38
 294 370 294 370 281 365 c 1,39,40
 261 359 261 359 248.5 376.5 c 128,-1,41
 236 394 236 394 239.5 418 c 128,-1,42
 243 442 243 442 262 449 c 0,33,34
EndSplineSet
EndChar

StartChar: Agrave
Encoding: 192 192 130
Width: 583
Flags: W
LayerCount: 2
Fore
SplineSet
262 390 m 1,0,1
 268 390 268 390 299.5 387 c 128,-1,2
 331 384 331 384 354.5 385 c 128,-1,3
 378 386 378 386 388 394 c 0,4,5
 392 397 392 397 394.5 402.5 c 128,-1,6
 397 408 397 408 397.5 415.5 c 128,-1,7
 398 423 398 423 398.5 428.5 c 128,-1,8
 399 434 399 434 398.5 442 c 128,-1,9
 398 450 398 450 398 452 c 0,10,11
 399 515 399 515 410 601 c 1,12,13
 402 597 402 597 394.5 589.5 c 128,-1,14
 387 582 387 582 383 577.5 c 128,-1,15
 379 573 379 573 370.5 561 c 128,-1,16
 362 549 362 549 361 546 c 0,17,18
 353 535 353 535 334 510.5 c 128,-1,19
 315 486 315 486 304 470.5 c 128,-1,20
 293 455 293 455 280 432 c 128,-1,21
 267 409 267 409 262 390 c 1,0,1
20 128 m 1,22,-1
 20 124 l 1,23,-1
 152 124 l 1,24,-1
 20 128 l 1,22,-1
320 128 m 1,25,-1
 320 124 l 1,26,-1
 469 124 l 1,27,28
 451 132 451 132 425.5 132.5 c 128,-1,29
 400 133 400 133 366 130.5 c 128,-1,30
 332 128 332 128 320 128 c 1,25,-1
352 929 m 1,31,-1
 452 927 l 1,32,-1
 477 886 l 1,33,-1
 523 777 l 1,34,35
 459 777 459 777 352 929 c 1,31,-1
-12 124 m 1,36,37
 -9 141 -9 141 1 146.5 c 128,-1,38
 11 152 11 152 28 155 c 128,-1,39
 45 158 45 158 55 163 c 0,40,41
 61 167 61 167 67.5 172.5 c 128,-1,42
 74 178 74 178 78 182.5 c 128,-1,43
 82 187 82 187 88 195 c 128,-1,44
 94 203 94 203 97 207 c 128,-1,45
 100 211 100 211 106.5 221 c 128,-1,46
 113 231 113 231 114 234 c 0,47,48
 128 254 128 254 164.5 311.5 c 128,-1,49
 201 369 201 369 220 397.5 c 128,-1,50
 239 426 239 426 269.5 472.5 c 128,-1,51
 300 519 300 519 327 557 c 128,-1,52
 354 595 354 595 381 632 c 0,53,54
 387 639 387 639 401.5 660 c 128,-1,55
 416 681 416 681 425 693 c 128,-1,56
 434 705 434 705 449 720 c 128,-1,57
 464 735 464 735 479.5 742 c 128,-1,58
 495 749 495 749 512 749 c 1,59,60
 509 692 509 692 499.5 548.5 c 128,-1,61
 490 405 490 405 488 327 c 0,62,63
 488 318 488 318 483.5 281 c 128,-1,64
 479 244 479 244 480.5 218 c 128,-1,65
 482 192 482 192 493 175 c 0,66,67
 497 168 497 168 503 164 c 128,-1,68
 509 160 509 160 516.5 158.5 c 128,-1,69
 524 157 524 157 529 156 c 128,-1,70
 534 155 534 155 544 157 c 128,-1,71
 554 159 554 159 558 159.5 c 128,-1,72
 562 160 562 160 573 163.5 c 128,-1,73
 584 167 584 167 586 167 c 1,74,75
 586 150 586 150 576 140.5 c 128,-1,76
 566 131 566 131 555 128.5 c 128,-1,77
 544 126 544 126 523 124 c 0,78,79
 488 122 488 122 414 124.5 c 128,-1,80
 340 127 340 127 305 124 c 1,81,-1
 309 155 l 1,82,83
 326 156 326 156 339.5 162 c 128,-1,84
 353 168 353 168 361.5 175.5 c 128,-1,85
 370 183 370 183 376 198 c 128,-1,86
 382 213 382 213 385 224.5 c 128,-1,87
 388 236 388 236 389.5 256 c 128,-1,88
 391 276 391 276 391 286.5 c 128,-1,89
 391 297 391 297 391 318.5 c 128,-1,90
 391 340 391 340 391 347 c 1,91,92
 381 347 381 347 341.5 351.5 c 128,-1,93
 302 356 302 356 273.5 353.5 c 128,-1,94
 245 351 245 351 229 337 c 0,95,96
 197 310 197 310 156 214 c 0,97,98
 155 213 155 213 152 206 c 128,-1,99
 149 199 149 199 148 196.5 c 128,-1,100
 147 194 147 194 144.5 186.5 c 128,-1,101
 142 179 142 179 143 176.5 c 128,-1,102
 144 174 144 174 145 167 c 1,103,104
 153 152 153 152 199 152 c 1,105,-1
 183 125 l 1,106,-1
 121 128 l 1,107,-1
 -12 124 l 1,36,37
EndSplineSet
EndChar

